%TF.GenerationSoftware,KiCad,Pcbnew,(6.0.8)*%
%TF.CreationDate,2022-12-27T02:43:28+02:00*%
%TF.ProjectId,lazy_ferris-rounded_final,6c617a79-5f66-4657-9272-69732d726f75,v1.0.0*%
%TF.SameCoordinates,Original*%
%TF.FileFunction,Paste,Bot*%
%TF.FilePolarity,Positive*%
%FSLAX46Y46*%
G04 Gerber Fmt 4.6, Leading zero omitted, Abs format (unit mm)*
G04 Created by KiCad (PCBNEW (6.0.8)) date 2022-12-27 02:43:28*
%MOMM*%
%LPD*%
G01*
G04 APERTURE LIST*
G04 Aperture macros list*
%AMRotRect*
0 Rectangle, with rotation*
0 The origin of the aperture is its center*
0 $1 length*
0 $2 width*
0 $3 Rotation angle, in degrees counterclockwise*
0 Add horizontal line*
21,1,$1,$2,0,0,$3*%
G04 Aperture macros list end*
%ADD10R,1.000000X0.800000*%
%ADD11R,0.700000X1.500000*%
%ADD12R,2.600000X2.600000*%
%ADD13RotRect,2.600000X2.600000X352.500000*%
%ADD14R,0.900000X1.700000*%
%ADD15RotRect,2.600000X2.600000X337.500000*%
G04 APERTURE END LIST*
D10*
%TO.C,*%
X114256131Y-4091427D03*
X110885366Y-10566606D03*
X108925072Y-9546142D03*
X112295837Y-3070963D03*
D11*
X111072832Y-4012641D03*
X109687586Y-6673674D03*
X108994963Y-8004190D03*
%TD*%
D12*
%TO.C,S11*%
X32725000Y48950000D03*
X44275000Y46750000D03*
%TD*%
%TO.C,S1*%
X14725000Y5950000D03*
X26275000Y3750000D03*
%TD*%
D13*
%TO.C,S31*%
X72529649Y-5673430D03*
X83693679Y-9362186D03*
%TD*%
D12*
%TO.C,S5*%
X14725000Y39950000D03*
X26275000Y37750000D03*
%TD*%
D14*
%TO.C,*%
X112743788Y-69868D03*
X115759624Y-1639814D03*
%TD*%
D12*
%TO.C,S7*%
X32725000Y14950000D03*
X44275000Y12750000D03*
%TD*%
%TO.C,S9*%
X32725000Y31950000D03*
X44275000Y29750000D03*
%TD*%
%TO.C,S3*%
X14725000Y22950000D03*
X26275000Y20750000D03*
%TD*%
%TO.C,S15*%
X50925000Y37950000D03*
X62475000Y35750000D03*
%TD*%
%TO.C,S23*%
X68725000Y48950000D03*
X80275000Y46750000D03*
%TD*%
%TO.C,S25*%
X86725000Y11950000D03*
X98275000Y9750000D03*
%TD*%
%TO.C,S13*%
X50925000Y20950000D03*
X62475000Y18750000D03*
%TD*%
%TO.C,S17*%
X50925000Y54950000D03*
X62475000Y52750000D03*
%TD*%
%TO.C,S21*%
X68725000Y31950000D03*
X80275000Y29750000D03*
%TD*%
%TO.C,S29*%
X86725000Y45950000D03*
X98275000Y43750000D03*
%TD*%
%TO.C,S19*%
X68725000Y14950000D03*
X80275000Y12750000D03*
%TD*%
%TO.C,S27*%
X86725000Y28950000D03*
X98275000Y26750000D03*
%TD*%
D15*
%TO.C,S33*%
X98346176Y-11097754D03*
X108175081Y-17550282D03*
%TD*%
M02*
