%TF.GenerationSoftware,KiCad,Pcbnew,(6.0.8)*%
%TF.CreationDate,2022-12-27T02:43:28+02:00*%
%TF.ProjectId,lazy_ferris-rounded_final,6c617a79-5f66-4657-9272-69732d726f75,v1.0.0*%
%TF.SameCoordinates,Original*%
%TF.FileFunction,Profile,NP*%
%FSLAX46Y46*%
G04 Gerber Fmt 4.6, Leading zero omitted, Abs format (unit mm)*
G04 Created by KiCad (PCBNEW (6.0.8)) date 2022-12-27 02:43:28*
%MOMM*%
%LPD*%
G01*
G04 APERTURE LIST*
%TA.AperFunction,Profile*%
%ADD10C,0.150000*%
%TD*%
G04 APERTURE END LIST*
D10*
X58420000Y-17780000D02*
G75*
G03*
X55880000Y-15240000I-4575200J-2035200D01*
G01*
X58420000Y-17780000D02*
G75*
G03*
X60960000Y-19271986I2976417J2159061D01*
G01*
X26250000Y44750000D02*
X26250000Y49750000D01*
X119950000Y2289058D02*
G75*
G03*
X106680000Y-27000000I105437892J-65421419D01*
G01*
X99750000Y38750000D02*
X99750000Y46750000D01*
X81750000Y50750000D02*
G75*
G03*
X83750000Y48750000I2000000J0D01*
G01*
X110867648Y-14928273D02*
G75*
G03*
X110785784Y-15101849I1765852J-938927D01*
G01*
X65950000Y52775000D02*
X79750000Y52775000D01*
X119950000Y2289058D02*
X119950000Y34750000D01*
X99750000Y38750000D02*
G75*
G03*
X101750000Y36750000I2000000J0D01*
G01*
X101750000Y36750000D02*
X117950000Y36750000D01*
X42450000Y51750000D02*
G75*
G03*
X44450000Y53750000I0J2000000D01*
G01*
X46450000Y57750000D02*
X61950000Y57750000D01*
X60960000Y-19271986D02*
X87662489Y-22583591D01*
X24250000Y42750000D02*
G75*
G03*
X26250000Y44750000I0J2000000D01*
G01*
X10250000Y42750000D02*
X24250000Y42750000D01*
X44450000Y53750000D02*
X44450000Y55750000D01*
X81750000Y50775000D02*
X81750000Y50750000D01*
X63950000Y55750000D02*
G75*
G03*
X61950000Y57750000I-2000000J0D01*
G01*
X8250000Y-6750000D02*
X8250000Y40750000D01*
X87662489Y-22583591D02*
X102906502Y-28897868D01*
X81750000Y50775000D02*
G75*
G03*
X79750000Y52775000I-2000000J0D01*
G01*
X99750000Y46750000D02*
G75*
G03*
X97750000Y48750000I-2000000J0D01*
G01*
X46450000Y57750000D02*
G75*
G03*
X44450000Y55750000I0J-2000000D01*
G01*
X83750000Y48750000D02*
X97750000Y48750000D01*
X28250000Y51750000D02*
X42450000Y51750000D01*
X102906502Y-28897868D02*
G75*
G03*
X106680000Y-27000000I1108672J2495972D01*
G01*
X8250000Y-6750000D02*
G75*
G03*
X10250000Y-8750000I2000000J0D01*
G01*
X28250000Y51750000D02*
G75*
G03*
X26250000Y49750000I0J-2000000D01*
G01*
X10250000Y42750000D02*
G75*
G03*
X8250000Y40750000I0J-2000000D01*
G01*
X55880000Y-15240000D02*
G75*
G03*
X27940000Y-8750000I-26792858J-51958490D01*
G01*
X63950000Y55750000D02*
X63950000Y54775000D01*
X119950000Y34750000D02*
G75*
G03*
X117950000Y36750000I-2000000J0D01*
G01*
X10250000Y-8750000D02*
X27940000Y-8750000D01*
X63950000Y54775000D02*
G75*
G03*
X65950000Y52775000I2000000J0D01*
G01*
M02*
