0
SECTION
2
HEADER
9
$INSUNITS
70
4
0
ENDSEC
0
SECTION
2
TABLES
0
TABLE
2
LTYPE
0
LTYPE
72
65
70
64
2
CONTINUOUS
3
______
73
0
40
0
0
ENDTAB
0
TABLE
2
LAYER
0
ENDTAB
0
ENDSEC
0
SECTION
2
ENTITIES
0
LINE
8
0
10
10.25
20
-8.75
11
60.2872884
21
-8.75
0
LINE
8
0
10
8.25
20
-6.75
11
8.25
21
40.75
0
LINE
8
0
10
10.25
20
42.75
11
24.25
21
42.75
0
LINE
8
0
10
28.25
20
51.75
11
42.45
21
51.75
0
LINE
8
0
10
26.25
20
44.75
11
26.25
21
49.75
0
LINE
8
0
10
46.45
20
57.75
11
61.95
21
57.75
0
LINE
8
0
10
63.95
20
55.75
11
63.95
21
54.775
0
LINE
8
0
10
44.45
20
53.75
11
44.45
21
55.75
0
LINE
8
0
10
65.95
20
52.775
11
79.75
21
52.775
0
LINE
8
0
10
81.75
20
50.775
11
81.75
21
50.75
0
LINE
8
0
10
101.75
20
36.75
11
117.95
21
36.75
0
LINE
8
0
10
119.95
20
2.2890582
11
119.95
21
34.75
0
LINE
8
0
10
83.75
20
48.75
11
97.75
21
48.75
0
LINE
8
0
10
99.75
20
38.75
11
99.75
21
46.75
0
LINE
8
0
10
63.1998635
20
-19.271986
11
87.6982489
21
-22.4972596
0
LINE
8
0
10
61.4780262
20
-17.0280439
11
62.2701781
21
-11.0110524
0
LINE
8
0
10
87.6624893
20
-22.583591
11
102.9065015
21
-28.8978676
0
LINE
8
0
10
87.6982489
20
-22.4972596
11
87.6624893
21
-22.583591
0
LINE
8
0
10
105.5196275
20
-27.8154754
11
110.7857837
21
-15.1018497
0
LINE
8
0
10
110.8676477
20
-14.9282733
11
120.0063377
21
2.2591029
0
LINE
8
0
10
120.0063377
20
2.2591029
11
119.95
21
2.2890582
0
ARC
8
0
10
60.2872884
20
-10.75
40
2
50
352.4999998
51
90
0
ARC
8
0
10
63.4609159
20
-17.2890963
40
2
50
172.4999998
51
262.4999998
0
ARC
8
0
10
103.6718684
20
-27.0501085
40
2
50
247.500001
51
337.500001
0
ARC
8
0
10
112.6335428
20
-15.8672165
40
2
50
151.9999983
51
157.500001
0
ARC
8
0
10
117.95
20
34.75
40
2
50
0
51
90
0
ARC
8
0
10
101.75
20
38.75
40
2
50
180
51
270
0
ARC
8
0
10
97.75
20
46.75
40
2
50
0
51
90
0
ARC
8
0
10
83.75
20
50.75
40
2
50
180
51
270
0
ARC
8
0
10
79.75
20
50.775
40
2
50
0
51
90
0
ARC
8
0
10
65.95
20
54.775
40
2
50
180
51
270
0
ARC
8
0
10
61.95
20
55.75
40
2
50
0
51
90
0
ARC
8
0
10
46.45
20
55.75
40
2
50
90
51
180
0
ARC
8
0
10
42.45
20
53.75
40
2
50
270
51
0
0
ARC
8
0
10
28.25
20
49.75
40
2
50
90
51
180
0
ARC
8
0
10
24.25
20
44.75
40
2
50
270
51
0
0
ARC
8
0
10
10.25
20
40.75
40
2
50
90
51
180
0
ARC
8
0
10
10.25
20
-6.75
40
2
50
180
51
270
0
ENDSEC
0
EOF