0
SECTION
2
HEADER
9
$INSUNITS
70
4
0
ENDSEC
0
SECTION
2
TABLES
0
TABLE
2
LTYPE
0
LTYPE
72
65
70
64
2
CONTINUOUS
3
______
73
0
40
0
0
ENDTAB
0
TABLE
2
LAYER
0
ENDTAB
0
ENDSEC
0
SECTION
2
ENTITIES
0
LINE
8
0
10
10.7
20
-8.75
11
62.0872884
21
-8.75
0
LINE
8
0
10
8.7
20
-6.75
11
8.7
21
40.75
0
LINE
8
0
10
10.7
20
42.75
11
25.15
21
42.75
0
LINE
8
0
10
29.15
20
51.75
11
43.8
21
51.75
0
LINE
8
0
10
27.15
20
44.75
11
27.15
21
49.75
0
LINE
8
0
10
47.8
20
57.75
11
65.3
21
57.75
0
LINE
8
0
10
67.3
20
55.75
11
67.3
21
54.775
0
LINE
8
0
10
45.8
20
53.75
11
45.8
21
55.75
0
LINE
8
0
10
69.3
20
52.775
11
83.55
21
52.775
0
LINE
8
0
10
85.55
20
50.775
11
85.55
21
50.75
0
LINE
8
0
10
104
20
36.75
11
120.2
21
36.75
0
LINE
8
0
10
122.2
20
2.25
11
122.2
21
34.75
0
LINE
8
0
10
122.2
20
2.25
11
121.8014976
21
2.25
0
LINE
8
0
10
87.55
20
48.75
11
100
21
48.75
0
LINE
8
0
10
102
20
38.75
11
102
21
46.75
0
LINE
8
0
10
64.9998635
20
-19.271986
11
89.4982489
21
-22.4972596
0
LINE
8
0
10
63.2780262
20
-17.0280439
11
64.0701781
21
-11.0110524
0
LINE
8
0
10
89.4624893
20
-22.583591
11
104.7065015
21
-28.8978676
0
LINE
8
0
10
89.4982489
20
-22.4972596
11
89.4624893
21
-22.583591
0
LINE
8
0
10
107.3196275
20
-27.8154754
11
112.5857837
21
-15.1018497
0
LINE
8
0
10
112.6676477
20
-14.9282733
11
121.8014976
21
2.25
0
ARC
8
0
10
62.0872884
20
-10.75
40
2
50
352.4999998
51
90
0
ARC
8
0
10
65.2609159
20
-17.2890963
40
2
50
172.4999998
51
262.4999998
0
ARC
8
0
10
105.4718684
20
-27.0501085
40
2
50
247.500001
51
337.500001
0
ARC
8
0
10
114.4335428
20
-15.8672165
40
2
50
151.9999983
51
157.500001
0
ARC
8
0
10
120.2
20
34.75
40
2
50
0
51
90
0
ARC
8
0
10
104
20
38.75
40
2
50
180
51
270
0
ARC
8
0
10
100
20
46.75
40
2
50
0
51
90
0
ARC
8
0
10
87.55
20
50.75
40
2
50
180
51
270
0
ARC
8
0
10
83.55
20
50.775
40
2
50
0
51
90
0
ARC
8
0
10
69.3
20
54.775
40
2
50
180
51
270
0
ARC
8
0
10
65.3
20
55.75
40
2
50
0
51
90
0
ARC
8
0
10
47.8
20
55.75
40
2
50
90
51
180
0
ARC
8
0
10
43.8
20
53.75
40
2
50
270
51
0
0
ARC
8
0
10
29.15
20
49.75
40
2
50
90
51
180
0
ARC
8
0
10
25.15
20
44.75
40
2
50
270
51
0
0
ARC
8
0
10
10.7
20
40.75
40
2
50
90
51
180
0
ARC
8
0
10
10.7
20
-6.75
40
2
50
180
51
270
0
ENDSEC
0
EOF