0
SECTION
2
HEADER
9
$INSUNITS
70
4
0
ENDSEC
0
SECTION
2
TABLES
0
TABLE
2
LTYPE
0
LTYPE
72
65
70
64
2
CONTINUOUS
3
______
73
0
40
0
0
ENDTAB
0
TABLE
2
LAYER
0
ENDTAB
0
ENDSEC
0
SECTION
2
ENTITIES
0
LINE
8
0
10
9.75
20
-9.25
11
58.7085188
21
-9.25
0
LINE
8
0
10
7.75
20
-7.25
11
7.75
21
41.25
0
LINE
8
0
10
9.75
20
43.25
11
24.25
21
43.25
0
LINE
8
0
10
28.25
20
52.25
11
42.45
21
52.25
0
LINE
8
0
10
26.25
20
45.25
11
26.25
21
50.25
0
LINE
8
0
10
46.45
20
58.25
11
61.95
21
58.25
0
LINE
8
0
10
63.95
20
56.25
11
63.95
21
54.25
0
LINE
8
0
10
44.45
20
54.25
11
44.45
21
56.25
0
LINE
8
0
10
65.95
20
52.25
11
81.75
21
52.25
0
LINE
8
0
10
81.75
20
52.25
11
81.75
21
51.25
0
LINE
8
0
10
102.25
20
36.75
11
117.95
21
36.75
0
LINE
8
0
10
119.95
20
2.2890582
11
119.95
21
34.75
0
LINE
8
0
10
83.75
20
49.25
11
98.25
21
49.25
0
LINE
8
0
10
100.25
20
38.75
11
100.25
21
47.25
0
LINE
8
0
10
61.6474331
20
-19.5719191
11
87.5001573
21
-22.9754949
0
LINE
8
0
10
59.9255958
20
-17.327977
11
60.6914085
21
-11.5110524
0
LINE
8
0
10
111.5973637
20
-13.5558771
11
111.9131604
21
-13.6866844
0
LINE
8
0
10
105.7902256
20
-28.4687569
11
111.9131604
21
-13.6866844
0
LINE
8
0
10
87.4711475
20
-23.0455307
11
103.1770996
21
-29.5511491
0
LINE
8
0
10
87.4711475
20
-23.0455307
11
87.5001573
21
-22.9754949
0
LINE
8
0
10
111.5973637
20
-13.5558771
11
120.0063377
21
2.2591029
0
LINE
8
0
10
120.0063377
20
2.2591029
11
119.95
21
2.2890582
0
ARC
8
0
10
58.7085188
20
-11.25
40
2
50
352.4999998
51
90
0
ARC
8
0
10
61.9084855
20
-17.5890294
40
2
50
172.4999998
51
262.4999998
0
ARC
8
0
10
103.9424665
20
-27.70339
40
2
50
247.500001
51
337.500001
0
ARC
8
0
10
117.95
20
34.75
40
2
50
0
51
90
0
ARC
8
0
10
102.25
20
38.75
40
2
50
180
51
270
0
ARC
8
0
10
98.25
20
47.25
40
2
50
0
51
90
0
ARC
8
0
10
83.75
20
51.25
40
2
50
180
51
270
0
ARC
8
0
10
65.95
20
54.25
40
2
50
180
51
270
0
ARC
8
0
10
61.95
20
56.25
40
2
50
0
51
90
0
ARC
8
0
10
46.45
20
56.25
40
2
50
90
51
180
0
ARC
8
0
10
42.45
20
54.25
40
2
50
270
51
0
0
ARC
8
0
10
28.25
20
50.25
40
2
50
90
51
180
0
ARC
8
0
10
24.25
20
45.25
40
2
50
270
51
0
0
ARC
8
0
10
9.75
20
41.25
40
2
50
90
51
180
0
ARC
8
0
10
9.75
20
-7.25
40
2
50
180
51
270
0
ENDSEC
0
EOF