0
SECTION
2
HEADER
9
$INSUNITS
70
4
0
ENDSEC
0
SECTION
2
TABLES
0
TABLE
2
LTYPE
0
LTYPE
72
65
70
64
2
CONTINUOUS
3
______
73
0
40
0
0
ENDTAB
0
TABLE
2
LAYER
0
ENDTAB
0
ENDSEC
0
SECTION
2
ENTITIES
0
LINE
8
0
10
9.25
20
-8.25
11
26.75
21
-8.25
0
LINE
8
0
10
26.75
20
-8.25
11
26.75
21
8.25
0
LINE
8
0
10
26.75
20
8.25
11
9.25
21
8.25
0
LINE
8
0
10
9.25
20
8.25
11
9.25
21
-8.25
0
LINE
8
0
10
9.25
20
8.75
11
26.75
21
8.75
0
LINE
8
0
10
26.75
20
8.75
11
26.75
21
25.25
0
LINE
8
0
10
26.75
20
25.25
11
9.25
21
25.25
0
LINE
8
0
10
9.25
20
25.25
11
9.25
21
8.75
0
LINE
8
0
10
9.25
20
25.75
11
26.75
21
25.75
0
LINE
8
0
10
26.75
20
25.75
11
26.75
21
42.25
0
LINE
8
0
10
26.75
20
42.25
11
9.25
21
42.25
0
LINE
8
0
10
9.25
20
42.25
11
9.25
21
25.75
0
LINE
8
0
10
27.25
20
0.75
11
44.75
21
0.75
0
LINE
8
0
10
44.75
20
0.75
11
44.75
21
17.25
0
LINE
8
0
10
44.75
20
17.25
11
27.25
21
17.25
0
LINE
8
0
10
27.25
20
17.25
11
27.25
21
0.75
0
LINE
8
0
10
27.25
20
17.75
11
44.75
21
17.75
0
LINE
8
0
10
44.75
20
17.75
11
44.75
21
34.25
0
LINE
8
0
10
44.75
20
34.25
11
27.25
21
34.25
0
LINE
8
0
10
27.25
20
34.25
11
27.25
21
17.75
0
LINE
8
0
10
27.25
20
34.75
11
44.75
21
34.75
0
LINE
8
0
10
44.75
20
34.75
11
44.75
21
51.25
0
LINE
8
0
10
44.75
20
51.25
11
27.25
21
51.25
0
LINE
8
0
10
27.25
20
51.25
11
27.25
21
34.75
0
LINE
8
0
10
45.45
20
6.75
11
62.95
21
6.75
0
LINE
8
0
10
62.95
20
6.75
11
62.95
21
23.25
0
LINE
8
0
10
62.95
20
23.25
11
45.45
21
23.25
0
LINE
8
0
10
45.45
20
23.25
11
45.45
21
6.75
0
LINE
8
0
10
45.45
20
23.75
11
62.95
21
23.75
0
LINE
8
0
10
62.95
20
23.75
11
62.95
21
40.25
0
LINE
8
0
10
62.95
20
40.25
11
45.45
21
40.25
0
LINE
8
0
10
45.45
20
40.25
11
45.45
21
23.75
0
LINE
8
0
10
45.45
20
40.75
11
62.95
21
40.75
0
LINE
8
0
10
62.95
20
40.75
11
62.95
21
57.25
0
LINE
8
0
10
62.95
20
57.25
11
45.45
21
57.25
0
LINE
8
0
10
45.45
20
57.25
11
45.45
21
40.75
0
LINE
8
0
10
63.25
20
0.75
11
80.75
21
0.75
0
LINE
8
0
10
80.75
20
0.75
11
80.75
21
17.25
0
LINE
8
0
10
80.75
20
17.25
11
63.25
21
17.25
0
LINE
8
0
10
63.25
20
17.25
11
63.25
21
0.75
0
LINE
8
0
10
63.25
20
17.75
11
80.75
21
17.75
0
LINE
8
0
10
80.75
20
17.75
11
80.75
21
34.25
0
LINE
8
0
10
80.75
20
34.25
11
63.25
21
34.25
0
LINE
8
0
10
63.25
20
34.25
11
63.25
21
17.75
0
LINE
8
0
10
63.25
20
34.75
11
80.75
21
34.75
0
LINE
8
0
10
80.75
20
34.75
11
80.75
21
51.25
0
LINE
8
0
10
80.75
20
51.25
11
63.25
21
51.25
0
LINE
8
0
10
63.25
20
51.25
11
63.25
21
34.75
0
LINE
8
0
10
81.25
20
-2.25
11
98.75
21
-2.25
0
LINE
8
0
10
98.75
20
-2.25
11
98.75
21
14.25
0
LINE
8
0
10
98.75
20
14.25
11
81.25
21
14.25
0
LINE
8
0
10
81.25
20
14.25
11
81.25
21
-2.25
0
LINE
8
0
10
81.25
20
14.75
11
98.75
21
14.75
0
LINE
8
0
10
98.75
20
14.75
11
98.75
21
31.25
0
LINE
8
0
10
98.75
20
31.25
11
81.25
21
31.25
0
LINE
8
0
10
81.25
20
31.25
11
81.25
21
14.75
0
LINE
8
0
10
81.25
20
31.75
11
98.75
21
31.75
0
LINE
8
0
10
98.75
20
31.75
11
98.75
21
48.25
0
LINE
8
0
10
98.75
20
48.25
11
81.25
21
48.25
0
LINE
8
0
10
81.25
20
48.25
11
81.25
21
31.75
0
LINE
8
0
10
87.853831
20
-22.1216512
11
104.0217228
21
-28.8186113
0
LINE
8
0
10
104.0217228
20
-28.8186113
11
110.3359994
21
-13.574599
0
LINE
8
0
10
110.3359994
20
-13.574599
11
94.1681076
21
-6.8776389
0
LINE
8
0
10
94.1681076
20
-6.8776389
11
87.853831
21
-22.1216512
0
LINE
8
0
10
60.7865145
20
-18.4499481
11
87.0598033
21
-21.9088922
0
LINE
8
0
10
87.0598033
20
-21.9088922
11
89.2134855
21
-5.5500519
0
LINE
8
0
10
89.2134855
20
-5.5500519
11
62.9401967
21
-2.0911078
0
LINE
8
0
10
62.9401967
20
-2.0911078
11
60.7865145
21
-18.4499481
0
ENDSEC
0
EOF