0
SECTION
2
HEADER
9
$INSUNITS
70
4
0
ENDSEC
0
SECTION
2
TABLES
0
TABLE
2
LTYPE
0
LTYPE
72
65
70
64
2
CONTINUOUS
3
______
73
0
40
0
0
ENDTAB
0
TABLE
2
LAYER
0
ENDTAB
0
ENDSEC
0
SECTION
2
ENTITIES
0
LINE
8
0
10
9.7
20
-8.25
11
27.2
21
-8.25
0
LINE
8
0
10
27.2
20
-8.25
11
27.2
21
8.25
0
LINE
8
0
10
27.2
20
8.25
11
9.7
21
8.25
0
LINE
8
0
10
9.7
20
8.25
11
9.7
21
-8.25
0
LINE
8
0
10
9.7
20
8.75
11
27.2
21
8.75
0
LINE
8
0
10
27.2
20
8.75
11
27.2
21
25.25
0
LINE
8
0
10
27.2
20
25.25
11
9.7
21
25.25
0
LINE
8
0
10
9.7
20
25.25
11
9.7
21
8.75
0
LINE
8
0
10
9.7
20
25.75
11
27.2
21
25.75
0
LINE
8
0
10
27.2
20
25.75
11
27.2
21
42.25
0
LINE
8
0
10
27.2
20
42.25
11
9.7
21
42.25
0
LINE
8
0
10
9.7
20
42.25
11
9.7
21
25.75
0
LINE
8
0
10
28.15
20
0.75
11
45.65
21
0.75
0
LINE
8
0
10
45.65
20
0.75
11
45.65
21
17.25
0
LINE
8
0
10
45.65
20
17.25
11
28.15
21
17.25
0
LINE
8
0
10
28.15
20
17.25
11
28.15
21
0.75
0
LINE
8
0
10
28.15
20
17.75
11
45.65
21
17.75
0
LINE
8
0
10
45.65
20
17.75
11
45.65
21
34.25
0
LINE
8
0
10
45.65
20
34.25
11
28.15
21
34.25
0
LINE
8
0
10
28.15
20
34.25
11
28.15
21
17.75
0
LINE
8
0
10
28.15
20
34.75
11
45.65
21
34.75
0
LINE
8
0
10
45.65
20
34.75
11
45.65
21
51.25
0
LINE
8
0
10
45.65
20
51.25
11
28.15
21
51.25
0
LINE
8
0
10
28.15
20
51.25
11
28.15
21
34.75
0
LINE
8
0
10
46.8
20
6.75
11
64.3
21
6.75
0
LINE
8
0
10
64.3
20
6.75
11
64.3
21
23.25
0
LINE
8
0
10
64.3
20
23.25
11
46.8
21
23.25
0
LINE
8
0
10
46.8
20
23.25
11
46.8
21
6.75
0
LINE
8
0
10
46.8
20
23.75
11
64.3
21
23.75
0
LINE
8
0
10
64.3
20
23.75
11
64.3
21
40.25
0
LINE
8
0
10
64.3
20
40.25
11
46.8
21
40.25
0
LINE
8
0
10
46.8
20
40.25
11
46.8
21
23.75
0
LINE
8
0
10
46.8
20
40.75
11
64.3
21
40.75
0
LINE
8
0
10
64.3
20
40.75
11
64.3
21
57.25
0
LINE
8
0
10
64.3
20
57.25
11
46.8
21
57.25
0
LINE
8
0
10
46.8
20
57.25
11
46.8
21
40.75
0
LINE
8
0
10
65.05
20
0.75
11
82.55
21
0.75
0
LINE
8
0
10
82.55
20
0.75
11
82.55
21
17.25
0
LINE
8
0
10
82.55
20
17.25
11
65.05
21
17.25
0
LINE
8
0
10
65.05
20
17.25
11
65.05
21
0.75
0
LINE
8
0
10
65.05
20
17.75
11
82.55
21
17.75
0
LINE
8
0
10
82.55
20
17.75
11
82.55
21
34.25
0
LINE
8
0
10
82.55
20
34.25
11
65.05
21
34.25
0
LINE
8
0
10
65.05
20
34.25
11
65.05
21
17.75
0
LINE
8
0
10
65.05
20
34.75
11
82.55
21
34.75
0
LINE
8
0
10
82.55
20
34.75
11
82.55
21
51.25
0
LINE
8
0
10
82.55
20
51.25
11
65.05
21
51.25
0
LINE
8
0
10
65.05
20
51.25
11
65.05
21
34.75
0
LINE
8
0
10
83.5
20
-2.25
11
101
21
-2.25
0
LINE
8
0
10
101
20
-2.25
11
101
21
14.25
0
LINE
8
0
10
101
20
14.25
11
83.5
21
14.25
0
LINE
8
0
10
83.5
20
14.25
11
83.5
21
-2.25
0
LINE
8
0
10
83.5
20
14.75
11
101
21
14.75
0
LINE
8
0
10
101
20
14.75
11
101
21
31.25
0
LINE
8
0
10
101
20
31.25
11
83.5
21
31.25
0
LINE
8
0
10
83.5
20
31.25
11
83.5
21
14.75
0
LINE
8
0
10
83.5
20
31.75
11
101
21
31.75
0
LINE
8
0
10
101
20
31.75
11
101
21
48.25
0
LINE
8
0
10
101
20
48.25
11
83.5
21
48.25
0
LINE
8
0
10
83.5
20
48.25
11
83.5
21
31.75
0
LINE
8
0
10
89.653831
20
-22.1216512
11
105.8217228
21
-28.8186113
0
LINE
8
0
10
105.8217228
20
-28.8186113
11
112.1359994
21
-13.574599
0
LINE
8
0
10
112.1359994
20
-13.574599
11
95.9681076
21
-6.8776389
0
LINE
8
0
10
95.9681076
20
-6.8776389
11
89.653831
21
-22.1216512
0
LINE
8
0
10
62.5865145
20
-18.4499481
11
88.8598033
21
-21.9088922
0
LINE
8
0
10
88.8598033
20
-21.9088922
11
91.0134855
21
-5.5500519
0
LINE
8
0
10
91.0134855
20
-5.5500519
11
64.7401967
21
-2.0911078
0
LINE
8
0
10
64.7401967
20
-2.0911078
11
62.5865145
21
-18.4499481
0
ENDSEC
0
EOF