0
SECTION
2
HEADER
9
$INSUNITS
70
4
0
ENDSEC
0
SECTION
2
TABLES
0
TABLE
2
LTYPE
0
LTYPE
72
65
70
64
2
CONTINUOUS
3
______
73
0
40
0
0
ENDTAB
0
TABLE
2
LAYER
0
ENDTAB
0
ENDSEC
0
SECTION
2
ENTITIES
0
LINE
8
0
10
9
20
-10.5
11
9
21
41.5
0
LINE
8
0
10
9.3609546
20
-10.5
11
9
21
-10.5
0
LINE
8
0
10
10
20
42.5
11
24
21
42.5
0
ARC
8
0
10
10
20
41.5
40
1
50
90
51
180
0
LINE
8
0
10
28
20
51.5
11
42.2
21
51.5
0
ARC
8
0
10
28
20
50.5
40
1
50
90
51
180
0
LINE
8
0
10
27
20
50.5
11
27
21
45.5
0
LINE
8
0
10
63.2
20
54.5
11
63.2
21
56.5
0
ARC
8
0
10
62.2
20
56.5
40
1
50
0
51
90
0
LINE
8
0
10
62.2
20
57.5
11
46.2
21
57.5
0
ARC
8
0
10
46.2
20
56.5
40
1
50
90
51
180
0
LINE
8
0
10
45.2
20
56.5
11
45.2
21
54.5
0
LINE
8
0
10
81
20
49.5
11
81
21
50.5
0
ARC
8
0
10
80
20
50.5
40
1
50
0
51
90
0
LINE
8
0
10
66.2
20
51.5
11
80
21
51.5
0
LINE
8
0
10
119
20
-17.5
11
119
21
28.5
0
LINE
8
0
10
102
20
31.5
11
116
21
31.5
0
LINE
8
0
10
119
20
-17.5
11
118.7965885
21
-17.5
0
LINE
8
0
10
99
20
34.5
11
99
21
47.5
0
ARC
8
0
10
98
20
47.5
40
1
50
0
51
90
0
LINE
8
0
10
82
20
48.5
11
98
21
48.5
0
LINE
8
0
10
9.3269755
20
-10.6927051
11
96.812147
21
-26.1187012
0
LINE
8
0
10
9.3269755
20
-10.6927051
11
9.3609546
21
-10.5
0
LINE
8
0
10
97.5590573
20
-26.3542012
11
108.92519
21
-31.6543159
0
LINE
8
0
10
118.7965885
20
-17.5
11
118.8286238
21
-17.5149383
0
LINE
8
0
10
112.9119682
20
-30.2032474
11
118.8286238
21
-17.5149383
0
ARC
8
0
10
24
20
45.5
40
3
50
270
51
0
0
ARC
8
0
10
42.2
20
54.5
40
3
50
270
51
0
0
ARC
8
0
10
66.2
20
54.5
40
3
50
180
51
270
0
ARC
8
0
10
102
20
34.5
40
3
50
180
51
270
0
ARC
8
0
10
116
20
28.5
40
3
50
0
51
90
0
ARC
8
0
10
110.1930448
20
-28.9353925
40
3
50
245.0000009
51
334.9999983
0
ARC
8
0
10
96.2912024
20
-29.0731245
40
3
50
64.9999994
51
79.9999992
0
ARC
8
0
10
82
20
49.5
40
1
50
180
51
270
0
ARC
8
0
10
109.3478083
20
-30.7480081
40
1
50
244.9999983
51
245.0000009
0
ARC
8
0
10
97.3477481
20
-26.807355
40
0.5
50
64.9999983
51
64.9999994
0
ENDSEC
0
EOF