M48
; DRILL file {KiCad (6.0.8)} date Tue Dec 27 02:43:24 2022
; FORMAT={-:-/ absolute / inch / decimal}
; #@! TF.CreationDate,2022-12-27T02:43:24+02:00
; #@! TF.GenerationSoftware,Kicad,Pcbnew,(6.0.8)
; #@! TF.FileFunction,NonPlated,1,2,NPTH
FMAT,2
INCH
; #@! TA.AperFunction,NonPlated,NPTH,ComponentDrill
T1C0.0354
; #@! TA.AperFunction,NonPlated,NPTH,ComponentDrill
T2C0.0670
; #@! TA.AperFunction,NonPlated,NPTH,ComponentDrill
T3C0.1181
; #@! TA.AperFunction,NonPlated,NPTH,ComponentDrill
T4C0.1350
%
G90
G05
T1
X4.3662Y-0.3209
X4.3662Y-0.3209
X4.4208Y-0.2162
X4.4208Y-0.2162
T2
X0.4921Y1.3386
X0.4921Y1.3386
X0.4921Y0.6693
X0.4921Y0.6693
X0.4921Y0.0
X0.4921Y0.0
X0.9252Y1.3386
X0.9252Y1.3386
X0.9252Y0.6693
X0.9252Y0.6693
X0.9252Y0.0
X0.9252Y0.0
X1.2008Y1.6929
X1.2008Y1.6929
X1.2008Y1.0236
X1.2008Y1.0236
X1.2008Y0.3543
X1.2008Y0.3543
X1.6339Y1.6929
X1.6339Y1.6929
X1.6339Y1.0236
X1.6339Y1.0236
X1.6339Y0.3543
X1.6339Y0.3543
X1.9173Y1.9291
X1.9173Y1.9291
X1.9173Y1.2598
X1.9173Y1.2598
X1.9173Y0.5906
X1.9173Y0.5906
X2.3504Y1.9291
X2.3504Y1.9291
X2.3504Y1.2598
X2.3504Y1.2598
X2.3504Y0.5906
X2.3504Y0.5906
X2.6181Y1.6929
X2.6181Y1.6929
X2.6181Y1.0236
X2.6181Y1.0236
X2.6181Y0.3543
X2.6181Y0.3543
X2.7381Y-0.4442
X2.7381Y-0.4442
X3.0512Y1.6929
X3.0512Y1.6929
X3.0512Y1.0236
X3.0512Y1.0236
X3.0512Y0.3543
X3.0512Y0.3543
X3.1674Y-0.5007
X3.1674Y-0.5007
X3.3268Y1.5748
X3.3268Y1.5748
X3.3268Y0.9055
X3.3268Y0.9055
X3.3268Y0.2362
X3.3268Y0.2362
X3.7013Y-0.6198
X3.7013Y-0.6198
X3.7598Y1.5748
X3.7598Y1.5748
X3.7598Y0.9055
X3.7598Y0.9055
X3.7598Y0.2362
X3.7598Y0.2362
X4.1014Y-0.7855
X4.1014Y-0.7855
T3
X0.5118Y1.4862
X0.5118Y0.8169
X0.5118Y0.1476
X0.7087Y1.5728
X0.7087Y1.5728
X0.7087Y0.9035
X0.7087Y0.9035
X0.7087Y0.2343
X0.7087Y0.2343
X0.9055Y1.4862
X0.9055Y0.8169
X0.9055Y0.1476
X1.2205Y1.8406
X1.2205Y1.1713
X1.2205Y0.502
X1.4173Y1.9272
X1.4173Y1.9272
X1.4173Y1.2579
X1.4173Y1.2579
X1.4173Y0.5886
X1.4173Y0.5886
X1.6142Y1.8406
X1.6142Y1.1713
X1.6142Y0.502
X1.937Y2.0768
X1.937Y1.4075
X1.937Y0.7382
X2.1339Y2.1634
X2.1339Y2.1634
X2.1339Y1.4941
X2.1339Y1.4941
X2.1339Y0.8248
X2.1339Y0.8248
X2.3307Y2.0768
X2.3307Y1.4075
X2.3307Y0.7382
X2.6378Y1.8406
X2.6378Y1.1713
X2.6378Y0.502
X2.7769Y-0.3004
X2.8346Y1.9272
X2.8346Y1.9272
X2.8346Y1.2579
X2.8346Y1.2579
X2.8346Y0.5886
X2.8346Y0.5886
X2.9833Y-0.2402
X2.9833Y-0.2402
X3.0315Y1.8406
X3.0315Y1.1713
X3.0315Y0.502
X3.1672Y-0.3518
X3.3465Y1.7224
X3.3465Y1.0531
X3.3465Y0.3839
X3.5433Y1.8091
X3.5433Y1.8091
X3.5433Y1.1398
X3.5433Y1.1398
X3.5433Y0.4705
X3.5433Y0.4705
X3.7402Y1.7224
X3.7402Y1.0531
X3.7402Y0.3839
X3.776Y-0.491
X3.991Y-0.4863
X3.991Y-0.4863
X4.1397Y-0.6416
T4
X0.7087Y1.3386
X0.7087Y1.3386
X0.7087Y0.6693
X0.7087Y0.6693
X0.7087Y0.0
X0.7087Y0.0
X1.4173Y1.6929
X1.4173Y1.6929
X1.4173Y1.0236
X1.4173Y1.0236
X1.4173Y0.3543
X1.4173Y0.3543
X2.1339Y1.9291
X2.1339Y1.9291
X2.1339Y1.2598
X2.1339Y1.2598
X2.1339Y0.5906
X2.1339Y0.5906
X2.8346Y1.6929
X2.8346Y1.6929
X2.8346Y1.0236
X2.8346Y1.0236
X2.8346Y0.3543
X2.8346Y0.3543
X2.9528Y-0.4724
X2.9528Y-0.4724
X3.5433Y1.5748
X3.5433Y1.5748
X3.5433Y0.9055
X3.5433Y0.9055
X3.5433Y0.2362
X3.5433Y0.2362
X3.9014Y-0.7027
X3.9014Y-0.7027
T0
M30
