M48
; DRILL file {KiCad (6.0.8)} date Tue Dec 27 02:43:23 2022
; FORMAT={-:-/ absolute / inch / decimal}
; #@! TF.CreationDate,2022-12-27T02:43:23+02:00
; #@! TF.GenerationSoftware,Kicad,Pcbnew,(6.0.8)
; #@! TF.FileFunction,Plated,1,2,PTH
FMAT,2
INCH
; #@! TA.AperFunction,Plated,PTH,ComponentDrill
T1C0.0157
; #@! TA.AperFunction,Plated,PTH,ComponentDrill
T2C0.0276
; #@! TA.AperFunction,Plated,PTH,ComponentDrill
T3C0.0433
; #@! TA.AperFunction,Plated,PTH,ComponentDrill
T4C0.0500
%
G90
G05
T1
X4.3106Y1.298
X4.3106Y1.198
X4.3106Y1.098
X4.3106Y0.998
X4.3106Y0.898
X4.3106Y0.798
X4.3106Y0.698
X4.3106Y0.598
X4.3106Y0.498
X4.3106Y0.398
X4.3106Y0.298
X4.3106Y0.198
X4.3706Y1.298
X4.3706Y1.198
X4.3706Y1.098
X4.3706Y0.998
X4.3706Y0.898
X4.3706Y0.798
X4.3706Y0.698
X4.3706Y0.598
X4.3706Y0.498
X4.3706Y0.398
X4.3706Y0.298
X4.3706Y0.198
T2
X4.011Y-0.258
X4.0655Y-0.2806
T3
X4.0406Y1.298
X4.0406Y1.298
X4.0406Y1.198
X4.0406Y1.098
X4.0406Y0.998
X4.0406Y0.898
X4.0406Y0.798
X4.0406Y0.698
X4.0406Y0.598
X4.0406Y0.498
X4.0406Y0.398
X4.0406Y0.298
X4.0406Y0.198
X4.6406Y1.298
X4.6406Y1.298
X4.6406Y1.198
X4.6406Y1.098
X4.6406Y0.998
X4.6406Y0.898
X4.6406Y0.798
X4.6406Y0.698
X4.6406Y0.598
X4.6406Y0.498
X4.6406Y0.398
X4.6406Y0.298
X4.6406Y0.198
T4
X0.5118Y1.189
X0.5118Y0.5197
X0.5118Y-0.1496
X0.7087Y1.1063
X0.7087Y1.1063
X0.7087Y0.437
X0.7087Y0.437
X0.7087Y-0.2323
X0.7087Y-0.2323
X0.9055Y1.189
X0.9055Y0.5197
X0.9055Y-0.1496
X1.2205Y1.5433
X1.2205Y0.874
X1.2205Y0.2047
X1.4173Y1.4606
X1.4173Y1.4606
X1.4173Y0.7913
X1.4173Y0.7913
X1.4173Y0.122
X1.4173Y0.122
X1.6142Y1.5433
X1.6142Y0.874
X1.6142Y0.2047
X1.937Y1.7795
X1.937Y1.1102
X1.937Y0.4409
X2.1339Y1.6969
X2.1339Y1.6969
X2.1339Y1.0276
X2.1339Y1.0276
X2.1339Y0.3583
X2.1339Y0.3583
X2.3307Y1.7795
X2.3307Y1.1102
X2.3307Y0.4409
X2.6378Y1.5433
X2.6378Y0.874
X2.6378Y0.2047
X2.7381Y-0.5951
X2.8346Y1.4606
X2.8346Y1.4606
X2.8346Y0.7913
X2.8346Y0.7913
X2.8346Y0.122
X2.8346Y0.122
X2.9224Y-0.7027
X2.9224Y-0.7027
X3.0315Y1.5433
X3.0315Y0.874
X3.0315Y0.2047
X3.1284Y-0.6465
X3.3465Y1.4252
X3.3465Y0.7559
X3.3465Y0.0866
X3.5433Y1.3425
X3.5433Y1.3425
X3.5433Y0.6732
X3.5433Y0.6732
X3.5433Y0.0039
X3.5433Y0.0039
X3.6623Y-0.7656
X3.7402Y1.4252
X3.7402Y0.7559
X3.7402Y0.0866
X3.8125Y-0.9173
X3.8125Y-0.9173
X4.026Y-0.9162
T0
M30
