%TF.GenerationSoftware,KiCad,Pcbnew,(6.0.8)*%
%TF.CreationDate,2022-12-27T02:43:28+02:00*%
%TF.ProjectId,lazy_ferris-rounded_final,6c617a79-5f66-4657-9272-69732d726f75,v1.0.0*%
%TF.SameCoordinates,Original*%
%TF.FileFunction,Copper,L2,Bot*%
%TF.FilePolarity,Positive*%
%FSLAX46Y46*%
G04 Gerber Fmt 4.6, Leading zero omitted, Abs format (unit mm)*
G04 Created by KiCad (PCBNEW (6.0.8)) date 2022-12-27 02:43:28*
%MOMM*%
%LPD*%
G01*
G04 APERTURE LIST*
G04 Aperture macros list*
%AMRotRect*
0 Rectangle, with rotation*
0 The origin of the aperture is its center*
0 $1 length*
0 $2 width*
0 $3 Rotation angle, in degrees counterclockwise*
0 Add horizontal line*
21,1,$1,$2,0,0,$3*%
%AMFreePoly0*
4,1,6,0.600000,0.200000,0.000000,-0.400000,-0.600000,0.200000,-0.600000,0.400000,0.600000,0.400000,0.600000,0.200000,0.600000,0.200000,$1*%
%AMFreePoly1*
4,1,5,0.125000,-0.500000,-0.125000,-0.500000,-0.125000,0.500000,0.125000,0.500000,0.125000,-0.500000,0.125000,-0.500000,$1*%
%AMFreePoly2*
4,1,49,0.004773,0.123721,0.009154,0.124665,0.028961,0.117240,0.062500,0.108253,0.068237,0.102516,0.075053,0.099961,0.087617,0.083136,0.108253,0.062500,0.111178,0.051584,0.117161,0.043572,0.118539,0.024114,0.125000,0.000000,0.121239,-0.014035,0.122131,-0.026629,0.113759,-0.041951,0.108253,-0.062500,0.095644,-0.075109,0.088389,-0.088388,-0.641000,-0.817776,-0.641000,-4.770224,
0.088389,-5.499612,0.109852,-5.528356,0.124665,-5.597154,0.099961,-5.663053,0.043572,-5.705161,-0.026629,-5.710131,-0.088388,-5.676389,-0.854388,-4.910388,-0.867707,-4.892552,-0.871189,-4.889530,-0.871982,-4.886826,-0.875852,-4.881644,-0.882331,-4.851549,-0.891000,-4.822000,-0.891000,-0.766000,-0.887805,-0.743969,-0.888131,-0.739371,-0.886780,-0.736898,-0.885852,-0.730498,-0.869151,-0.704632,
-0.854388,-0.677612,-0.088388,0.088389,-0.064606,0.106147,-0.062500,0.108253,-0.061385,0.108552,-0.059644,0.109852,-0.043806,0.113262,0.000000,0.125000,0.004773,0.123721,0.004773,0.123721,$1*%
%AMFreePoly3*
4,1,6,0.600000,-0.250000,-0.600000,-0.250000,-0.600000,1.000000,0.000000,0.400000,0.600000,1.000000,0.600000,-0.250000,0.600000,-0.250000,$1*%
G04 Aperture macros list end*
%TA.AperFunction,ComponentPad*%
%ADD10C,1.000000*%
%TD*%
%TA.AperFunction,SMDPad,CuDef*%
%ADD11R,1.000000X0.800000*%
%TD*%
%TA.AperFunction,SMDPad,CuDef*%
%ADD12R,0.700000X1.500000*%
%TD*%
%TA.AperFunction,SMDPad,CuDef*%
%ADD13R,2.600000X2.600000*%
%TD*%
%TA.AperFunction,ComponentPad*%
%ADD14C,2.032000*%
%TD*%
%TA.AperFunction,SMDPad,CuDef*%
%ADD15RotRect,2.600000X2.600000X352.500000*%
%TD*%
%TA.AperFunction,SMDPad,CuDef*%
%ADD16R,0.900000X1.700000*%
%TD*%
%TA.AperFunction,SMDPad,CuDef*%
%ADD17FreePoly0,270.000000*%
%TD*%
%TA.AperFunction,ComponentPad*%
%ADD18C,1.600000*%
%TD*%
%TA.AperFunction,SMDPad,CuDef*%
%ADD19FreePoly1,90.000000*%
%TD*%
%TA.AperFunction,SMDPad,CuDef*%
%ADD20FreePoly0,90.000000*%
%TD*%
%TA.AperFunction,SMDPad,CuDef*%
%ADD21FreePoly1,270.000000*%
%TD*%
%TA.AperFunction,ComponentPad*%
%ADD22R,1.600000X1.600000*%
%TD*%
%TA.AperFunction,ComponentPad*%
%ADD23C,0.800000*%
%TD*%
%TA.AperFunction,SMDPad,CuDef*%
%ADD24FreePoly2,270.000000*%
%TD*%
%TA.AperFunction,SMDPad,CuDef*%
%ADD25FreePoly3,90.000000*%
%TD*%
%TA.AperFunction,SMDPad,CuDef*%
%ADD26FreePoly2,90.000000*%
%TD*%
%TA.AperFunction,SMDPad,CuDef*%
%ADD27FreePoly3,270.000000*%
%TD*%
%TA.AperFunction,SMDPad,CuDef*%
%ADD28RotRect,2.600000X2.600000X337.500000*%
%TD*%
%TA.AperFunction,Conductor*%
%ADD29C,0.250000*%
%TD*%
G04 APERTURE END LIST*
D10*
%TO.P,,1*%
%TO.N,pos*%
X103264805Y-7127840D03*
%TO.P,,2*%
%TO.N,GND*%
X101878985Y-6553814D03*
%TD*%
D11*
%TO.P,,*%
%TO.N,*%
X114256131Y-4091427D03*
X110885366Y-10566606D03*
X108925072Y-9546142D03*
X112295837Y-3070963D03*
D12*
%TO.P,,1*%
%TO.N,pos*%
X111072832Y-4012641D03*
%TO.P,,2*%
%TO.N,RAW*%
X109687586Y-6673674D03*
%TO.P,,3*%
%TO.N,N/C*%
X108994963Y-8004190D03*
%TD*%
D13*
%TO.P,S11,1*%
%TO.N,P20*%
X32725000Y48950000D03*
%TO.P,S11,2*%
%TO.N,GND*%
X44275000Y46750000D03*
%TD*%
D14*
%TO.P,S6,1*%
%TO.N,P2*%
X23000000Y30200000D03*
X13000000Y30200000D03*
%TO.P,S6,2*%
%TO.N,GND*%
X18000000Y28100000D03*
X18000000Y28100000D03*
%TD*%
%TO.P,S2,1*%
%TO.N,P8*%
X23000000Y-3800000D03*
X13000000Y-3800000D03*
%TO.P,S2,2*%
%TO.N,GND*%
X18000000Y-5900000D03*
X18000000Y-5900000D03*
%TD*%
%TO.P,S28,1*%
%TO.N,P3*%
X85000000Y19200000D03*
X95000000Y19200000D03*
%TO.P,S28,2*%
%TO.N,GND*%
X90000000Y17100000D03*
X90000000Y17100000D03*
%TD*%
D13*
%TO.P,S1,1*%
%TO.N,P8*%
X14725000Y5950000D03*
%TO.P,S1,2*%
%TO.N,GND*%
X26275000Y3750000D03*
%TD*%
D15*
%TO.P,S31,1*%
%TO.N,P9*%
X72529649Y-5673430D03*
%TO.P,S31,2*%
%TO.N,GND*%
X83693679Y-9362186D03*
%TD*%
D13*
%TO.P,S5,1*%
%TO.N,P2*%
X14725000Y39950000D03*
%TO.P,S5,2*%
%TO.N,GND*%
X26275000Y37750000D03*
%TD*%
D16*
%TO.P,,1*%
%TO.N,RST*%
X112743788Y-69868D03*
%TO.P,,2*%
%TO.N,GND*%
X115759624Y-1639814D03*
%TD*%
D14*
%TO.P,S24,1*%
%TO.N,P21*%
X77000000Y39200000D03*
X67000000Y39200000D03*
%TO.P,S24,2*%
%TO.N,GND*%
X72000000Y37100000D03*
X72000000Y37100000D03*
%TD*%
D13*
%TO.P,S7,1*%
%TO.N,P14*%
X32725000Y14950000D03*
%TO.P,S7,2*%
%TO.N,GND*%
X44275000Y12750000D03*
%TD*%
D17*
%TO.P,MCU1,*%
%TO.N,*%
X116092000Y27890000D03*
D18*
X102630000Y12650000D03*
D17*
X116092000Y10110000D03*
D18*
X117870000Y15190000D03*
X102630000Y5030000D03*
D19*
X103900000Y27890000D03*
D20*
X104408000Y7570000D03*
X104408000Y15190000D03*
D21*
X116600000Y5030000D03*
D19*
X103900000Y30430000D03*
D21*
X116600000Y32970000D03*
D17*
X116092000Y25350000D03*
D18*
X117870000Y30430000D03*
X102630000Y25350000D03*
D21*
X116600000Y10110000D03*
D18*
X102630000Y27890000D03*
D20*
X104408000Y20270000D03*
D18*
X117870000Y10110000D03*
D17*
X116092000Y30430000D03*
D20*
X104408000Y12650000D03*
D19*
X103900000Y32970000D03*
D17*
X116092000Y15190000D03*
D18*
X117870000Y25350000D03*
D22*
X117870000Y32970000D03*
D21*
X116600000Y25350000D03*
D18*
X102630000Y30430000D03*
X102630000Y20270000D03*
X102630000Y17730000D03*
X102630000Y32970000D03*
D17*
X116092000Y12650000D03*
D19*
X103900000Y22810000D03*
D20*
X104408000Y17730000D03*
X104408000Y27890000D03*
X104408000Y30430000D03*
D19*
X103900000Y17730000D03*
D17*
X116092000Y17730000D03*
D19*
X103900000Y5030000D03*
D20*
X104408000Y10110000D03*
X104408000Y32970000D03*
D18*
X117870000Y12650000D03*
D21*
X116600000Y20270000D03*
D19*
X103900000Y20270000D03*
D18*
X117870000Y17730000D03*
X102630000Y15190000D03*
D20*
X104408000Y5030000D03*
D17*
X116092000Y5030000D03*
D21*
X116600000Y17730000D03*
D18*
X117870000Y32970000D03*
D21*
X116600000Y7570000D03*
D20*
X104408000Y22810000D03*
D19*
X103900000Y25350000D03*
D18*
X117870000Y20270000D03*
D17*
X116092000Y20270000D03*
D20*
X104408000Y25350000D03*
D21*
X116600000Y30430000D03*
D19*
X103900000Y7570000D03*
D18*
X117870000Y22810000D03*
D17*
X116092000Y7570000D03*
D18*
X102630000Y22810000D03*
D17*
X116092000Y22810000D03*
X116092000Y32970000D03*
D21*
X116600000Y12650000D03*
D19*
X103900000Y10110000D03*
D18*
X102630000Y10110000D03*
D21*
X116600000Y27890000D03*
X116600000Y15190000D03*
D18*
X102630000Y7570000D03*
X117870000Y7570000D03*
X117870000Y27890000D03*
D19*
X103900000Y12650000D03*
X103900000Y15190000D03*
D18*
X117870000Y5030000D03*
D21*
X116600000Y22810000D03*
D23*
%TO.P,MCU1,1*%
%TO.N,RAW*%
X111012000Y32970000D03*
D24*
X111012000Y32970000D03*
D25*
X105424000Y32970000D03*
D24*
%TO.P,MCU1,2*%
%TO.N,GND*%
X111012000Y30430000D03*
D23*
X111012000Y30430000D03*
D25*
%TO.N,N/C*%
X105424000Y30430000D03*
D24*
%TO.P,MCU1,3*%
%TO.N,RST*%
X111012000Y27890000D03*
D25*
X105424000Y27890000D03*
D23*
X111012000Y27890000D03*
D25*
%TO.P,MCU1,4*%
%TO.N,VCC*%
X105424000Y25350000D03*
D23*
X111012000Y25350000D03*
D24*
X111012000Y25350000D03*
D25*
%TO.P,MCU1,5*%
%TO.N,P21*%
X105424000Y22810000D03*
D24*
X111012000Y22810000D03*
D23*
X111012000Y22810000D03*
%TO.P,MCU1,6*%
%TO.N,P20*%
X111012000Y20270000D03*
D25*
X105424000Y20270000D03*
D24*
X111012000Y20270000D03*
D25*
%TO.P,MCU1,7*%
%TO.N,P19*%
X105424000Y17730000D03*
D23*
X111012000Y17730000D03*
D24*
X111012000Y17730000D03*
D25*
%TO.P,MCU1,8*%
%TO.N,P18*%
X105424000Y15190000D03*
D24*
X111012000Y15190000D03*
D23*
X111012000Y15190000D03*
D24*
%TO.P,MCU1,9*%
%TO.N,P15*%
X111012000Y12650000D03*
D23*
X111012000Y12650000D03*
D25*
X105424000Y12650000D03*
%TO.P,MCU1,10*%
%TO.N,P14*%
X105424000Y10110000D03*
D24*
X111012000Y10110000D03*
D23*
X111012000Y10110000D03*
%TO.P,MCU1,11*%
%TO.N,P16*%
X111012000Y7570000D03*
D25*
X105424000Y7570000D03*
D24*
X111012000Y7570000D03*
%TO.P,MCU1,12*%
%TO.N,P10*%
X111012000Y5030000D03*
D25*
X105424000Y5030000D03*
D23*
X111012000Y5030000D03*
%TO.P,MCU1,13*%
%TO.N,P9*%
X109488000Y5030000D03*
D26*
X109488000Y5030000D03*
D27*
X115076000Y5030000D03*
D26*
%TO.P,MCU1,14*%
%TO.N,P8*%
X109488000Y7570000D03*
D23*
X109488000Y7570000D03*
D27*
X115076000Y7570000D03*
D26*
%TO.P,MCU1,15*%
%TO.N,P7*%
X109488000Y10110000D03*
D23*
X109488000Y10110000D03*
D27*
X115076000Y10110000D03*
%TO.P,MCU1,16*%
%TO.N,P6*%
X115076000Y12650000D03*
D26*
X109488000Y12650000D03*
D23*
X109488000Y12650000D03*
D27*
%TO.P,MCU1,17*%
%TO.N,P5*%
X115076000Y15190000D03*
D26*
X109488000Y15190000D03*
D23*
X109488000Y15190000D03*
D27*
%TO.P,MCU1,18*%
%TO.N,P4*%
X115076000Y17730000D03*
D23*
X109488000Y17730000D03*
D26*
X109488000Y17730000D03*
D23*
%TO.P,MCU1,19*%
%TO.N,P3*%
X109488000Y20270000D03*
D26*
X109488000Y20270000D03*
D27*
X115076000Y20270000D03*
D26*
%TO.P,MCU1,20*%
%TO.N,P2*%
X109488000Y22810000D03*
D23*
X109488000Y22810000D03*
D27*
X115076000Y22810000D03*
D26*
%TO.P,MCU1,21*%
%TO.N,GND*%
X109488000Y25350000D03*
D27*
X115076000Y25350000D03*
D23*
X109488000Y25350000D03*
D27*
%TO.P,MCU1,22*%
X115076000Y27890000D03*
D23*
X109488000Y27890000D03*
D26*
X109488000Y27890000D03*
%TO.P,MCU1,23*%
%TO.N,P0*%
X109488000Y30430000D03*
D27*
X115076000Y30430000D03*
D23*
X109488000Y30430000D03*
D27*
%TO.P,MCU1,24*%
%TO.N,P1*%
X115076000Y32970000D03*
D26*
X109488000Y32970000D03*
D23*
X109488000Y32970000D03*
%TD*%
D14*
%TO.P,S30,1*%
%TO.N,P1*%
X95000000Y36200000D03*
X85000000Y36200000D03*
%TO.P,S30,2*%
%TO.N,GND*%
X90000000Y34100000D03*
X90000000Y34100000D03*
%TD*%
D13*
%TO.P,S9,1*%
%TO.N,P18*%
X32725000Y31950000D03*
%TO.P,S9,2*%
%TO.N,GND*%
X44275000Y29750000D03*
%TD*%
D14*
%TO.P,S26,1*%
%TO.N,P6*%
X85000000Y2200000D03*
X95000000Y2200000D03*
%TO.P,S26,2*%
%TO.N,GND*%
X90000000Y100000D03*
X90000000Y100000D03*
%TD*%
D13*
%TO.P,S3,1*%
%TO.N,P5*%
X14725000Y22950000D03*
%TO.P,S3,2*%
%TO.N,GND*%
X26275000Y20750000D03*
%TD*%
%TO.P,S15,1*%
%TO.N,P4*%
X50925000Y37950000D03*
%TO.P,S15,2*%
%TO.N,GND*%
X62475000Y35750000D03*
%TD*%
D14*
%TO.P,S22,1*%
%TO.N,P19*%
X77000000Y22200000D03*
X67000000Y22200000D03*
%TO.P,S22,2*%
%TO.N,GND*%
X72000000Y20100000D03*
X72000000Y20100000D03*
%TD*%
%TO.P,S32,1*%
%TO.N,P9*%
X69546776Y-15114860D03*
X79461225Y-16420121D03*
%TO.P,S32,2*%
%TO.N,GND*%
X74229895Y-17849525D03*
X74229895Y-17849525D03*
%TD*%
D13*
%TO.P,S23,1*%
%TO.N,P21*%
X68725000Y48950000D03*
%TO.P,S23,2*%
%TO.N,GND*%
X80275000Y46750000D03*
%TD*%
D14*
%TO.P,S12,1*%
%TO.N,P20*%
X41000000Y39200000D03*
X31000000Y39200000D03*
%TO.P,S12,2*%
%TO.N,GND*%
X36000000Y37100000D03*
X36000000Y37100000D03*
%TD*%
%TO.P,S4,1*%
%TO.N,P5*%
X23000000Y13200000D03*
X13000000Y13200000D03*
%TO.P,S4,2*%
%TO.N,GND*%
X18000000Y11100000D03*
X18000000Y11100000D03*
%TD*%
%TO.P,S18,1*%
%TO.N,P0*%
X59200000Y45200000D03*
X49200000Y45200000D03*
%TO.P,S18,2*%
%TO.N,GND*%
X54200000Y43100000D03*
X54200000Y43100000D03*
%TD*%
D13*
%TO.P,S25,1*%
%TO.N,P6*%
X86725000Y11950000D03*
%TO.P,S25,2*%
%TO.N,GND*%
X98275000Y9750000D03*
%TD*%
D14*
%TO.P,S16,1*%
%TO.N,P4*%
X59200000Y28200000D03*
X49200000Y28200000D03*
%TO.P,S16,2*%
%TO.N,GND*%
X54200000Y26100000D03*
X54200000Y26100000D03*
%TD*%
D13*
%TO.P,S13,1*%
%TO.N,P7*%
X50925000Y20950000D03*
%TO.P,S13,2*%
%TO.N,GND*%
X62475000Y18750000D03*
%TD*%
%TO.P,S17,1*%
%TO.N,P0*%
X50925000Y54950000D03*
%TO.P,S17,2*%
%TO.N,GND*%
X62475000Y52750000D03*
%TD*%
%TO.P,S21,1*%
%TO.N,P19*%
X68725000Y31950000D03*
%TO.P,S21,2*%
%TO.N,GND*%
X80275000Y29750000D03*
%TD*%
%TO.P,S29,1*%
%TO.N,P1*%
X86725000Y45950000D03*
%TO.P,S29,2*%
%TO.N,GND*%
X98275000Y43750000D03*
%TD*%
D14*
%TO.P,S20,1*%
%TO.N,P15*%
X67000000Y5200000D03*
X77000000Y5200000D03*
%TO.P,S20,2*%
%TO.N,GND*%
X72000000Y3100000D03*
X72000000Y3100000D03*
%TD*%
%TO.P,S14,1*%
%TO.N,P7*%
X49200000Y11200000D03*
X59200000Y11200000D03*
%TO.P,S14,2*%
%TO.N,GND*%
X54200000Y9100000D03*
X54200000Y9100000D03*
%TD*%
%TO.P,S34,1*%
%TO.N,P10*%
X93021320Y-19445450D03*
X102260116Y-23272284D03*
%TO.P,S34,2*%
%TO.N,GND*%
X96837083Y-23299014D03*
X96837083Y-23299014D03*
%TD*%
D13*
%TO.P,S19,1*%
%TO.N,P15*%
X68725000Y14950000D03*
%TO.P,S19,2*%
%TO.N,GND*%
X80275000Y12750000D03*
%TD*%
%TO.P,S27,1*%
%TO.N,P3*%
X86725000Y28950000D03*
%TO.P,S27,2*%
%TO.N,GND*%
X98275000Y26750000D03*
%TD*%
D14*
%TO.P,S10,1*%
%TO.N,P18*%
X41000000Y22200000D03*
X31000000Y22200000D03*
%TO.P,S10,2*%
%TO.N,GND*%
X36000000Y20100000D03*
X36000000Y20100000D03*
%TD*%
D28*
%TO.P,S33,1*%
%TO.N,P10*%
X98346176Y-11097754D03*
%TO.P,S33,2*%
%TO.N,GND*%
X108175081Y-17550282D03*
%TD*%
D14*
%TO.P,S8,1*%
%TO.N,P14*%
X31000000Y5200000D03*
X41000000Y5200000D03*
%TO.P,S8,2*%
%TO.N,GND*%
X36000000Y3100000D03*
X36000000Y3100000D03*
%TD*%
D29*
%TO.N,P8*%
X14875001Y5693932D02*
X14875001Y-599173D01*
X14800000Y5874999D02*
X14725000Y5950000D01*
X13937500Y-2862499D02*
X13000000Y-3800000D01*
X14799991Y5874990D02*
G75*
G02*
X14875001Y5693932I-181091J-181090D01*
G01*
X13937500Y-2862499D02*
G75*
G03*
X14875001Y-599173I-2263330J2263329D01*
G01*
%TO.N,GND*%
X104704921Y-6677840D02*
X105562882Y-6677840D01*
X62475000Y18722500D02*
X62475000Y17395657D01*
X79279747Y25939747D02*
X78623215Y25283215D01*
X97033105Y32275000D02*
X97031965Y32275000D01*
X98275000Y42395657D02*
X98275000Y43750000D01*
X79737499Y13287500D02*
X77793791Y15231207D01*
X109091504Y31555000D02*
X98771908Y31555000D01*
X112965471Y-1639814D02*
X115759624Y-1639814D01*
X44275000Y29750000D02*
X41793791Y32231208D01*
X49686530Y39825001D02*
X56146035Y39825001D01*
X44275000Y47260884D02*
X44275000Y46239115D01*
X37946035Y16825001D02*
X33603964Y16825001D01*
X96008604Y32275000D02*
X94985812Y32275000D01*
X58308413Y47208413D02*
X54200000Y43100000D01*
X90000000Y34100000D02*
X91697720Y32402279D01*
X22202569Y32302569D02*
X18000000Y28100000D01*
X58402569Y30302569D02*
X54200000Y26100000D01*
X63492499Y17787500D02*
X62549445Y18730554D01*
X98275000Y25670788D02*
X98275000Y25487367D01*
X94690074Y30825001D02*
X82110141Y30825001D01*
X44275000Y12714644D02*
X44275000Y11395657D01*
X108175081Y-17515916D02*
X108175081Y-17481551D01*
X44275000Y29750000D02*
X44275000Y28395657D01*
X102232538Y-6553814D02*
X102272585Y-6553814D01*
X98855000Y9955000D02*
X98782582Y9882582D01*
X97397500Y5957500D02*
X96978850Y5538850D01*
X95444099Y4774099D02*
X95997794Y4774099D01*
X90000000Y34100000D02*
X94202569Y38302569D01*
X106277829Y-19584992D02*
X108126481Y-17736340D01*
X110449500Y30992500D02*
X111012000Y30430000D01*
X62475000Y51189850D02*
X62475000Y52626256D01*
X98275000Y26129342D02*
X98275000Y25762499D01*
X82852731Y48260000D02*
X95279027Y48260000D01*
X80275000Y47283865D02*
X80275000Y49954591D01*
X81030000Y47505000D02*
X80652500Y47127500D01*
X59993791Y21231208D02*
X62455554Y18769445D01*
X110717100Y-2618372D02*
X110123748Y-3211725D01*
X26275000Y19395657D02*
X26275000Y19572667D01*
X80275000Y28989859D02*
X80275000Y28342500D01*
X45720000Y18548696D02*
X45720000Y13397500D01*
X29533792Y15008792D02*
X29756208Y15231208D01*
X108175081Y-17515916D02*
X108175081Y-17584646D01*
X96775128Y32275000D02*
X97029116Y32275000D01*
X97033105Y32275000D02*
X97033675Y32275000D01*
X24479314Y16245628D02*
X25317334Y17083648D01*
X96479314Y22245628D02*
X97317334Y23083648D01*
X92005000Y32275000D02*
X94985812Y32275000D01*
X80275000Y47283865D02*
X80275000Y46216134D01*
X96479314Y39245628D02*
X97317334Y40083648D01*
X33538964Y33825001D02*
X37946035Y33825001D01*
X108175081Y-17344092D02*
X108175081Y-17481551D01*
X26275000Y2312500D02*
X26275000Y3582500D01*
X44275000Y29750000D02*
X44275000Y34413470D01*
X22143768Y-1756231D02*
X18000000Y-5900000D01*
X63390000Y34740001D02*
X62508586Y35621415D01*
X80275000Y30510140D02*
X80275000Y28989859D01*
X97031965Y32275000D02*
X97031395Y32275000D01*
X43317334Y26083648D02*
X42479314Y25245628D01*
X98275000Y27737500D02*
X98275000Y26129342D01*
X44300000Y12725000D02*
X44249999Y12774999D01*
X78623416Y33136583D02*
X79142500Y32617499D01*
X61039784Y48339784D02*
X61474549Y48774549D01*
X112032408Y-2073553D02*
X112113074Y-1992888D01*
X108175081Y-17344092D02*
X108175081Y-15553649D01*
X78337499Y33422500D02*
X78623416Y33136583D01*
X98275000Y8075972D02*
X98275000Y9562500D01*
X76202569Y7302569D02*
X72000000Y3100000D01*
X83693679Y-10286517D02*
X83693679Y-9362186D01*
X83040078Y-11864448D02*
X81959558Y-12944968D01*
X27940000Y23592332D02*
X27940000Y28226036D01*
X92005000Y32275000D02*
X92185000Y32275000D01*
X41793791Y15231208D02*
X44249999Y12774999D01*
X79272271Y32487728D02*
X79531813Y32228186D01*
X62475000Y52873743D02*
X62475000Y52626256D01*
X98275000Y45264027D02*
X98275000Y43750000D01*
X98275000Y25670788D02*
X98275000Y25762499D01*
X25258534Y-141465D02*
X24704428Y-695570D01*
X96008604Y32275000D02*
X96264872Y32275000D01*
X43317334Y43083648D02*
X42479314Y42245628D01*
X27940000Y11161036D02*
X27940000Y6020452D01*
X26728440Y3868440D02*
X27275000Y4415000D01*
X77365777Y33825001D02*
X65599007Y33825001D01*
X102944503Y-6275496D02*
X103003633Y-6216367D01*
X97031395Y32275000D02*
X97029116Y32275000D01*
X44997500Y47472500D02*
X44636250Y47111250D01*
X78479314Y8245628D02*
X79317334Y9083648D01*
X96443524Y5003524D02*
X96367049Y4927049D01*
X43317334Y9083648D02*
X42479314Y8245628D01*
X40202569Y7302569D02*
X36000000Y3100000D01*
X99060000Y11904504D02*
X99060000Y10449913D01*
X96775128Y32275000D02*
X96264872Y32275000D01*
X80275000Y11989859D02*
X80275000Y11395657D01*
X94202569Y21302569D02*
X90000000Y17100000D01*
X40202569Y41302569D02*
X36000000Y37100000D01*
X78479314Y42245628D02*
X79317334Y43083648D01*
X56146035Y22825001D02*
X49996304Y22825001D01*
X97224999Y29775000D02*
X97576732Y29423267D01*
X24479314Y33245628D02*
X25317334Y34083648D01*
X29533792Y32073792D02*
X29691208Y32231208D01*
X44275000Y45395657D02*
X44275000Y46239115D01*
X76164982Y24264982D02*
X72000000Y20100000D01*
X103678527Y-6216367D02*
X103740540Y-6278380D01*
X79661584Y32098415D02*
X79531813Y32228186D01*
X76202569Y41302569D02*
X72000000Y37100000D01*
X107991893Y-5671710D02*
X109891725Y-3771878D01*
X94129626Y4229626D02*
X90000000Y100000D01*
X102430073Y-21178785D02*
X100456540Y-21178785D01*
X60679314Y31245628D02*
X61517334Y32083648D01*
X45720000Y49216769D02*
X45720000Y54699131D01*
X60679314Y14245628D02*
X61517334Y15083648D01*
X108175081Y-17584646D02*
X108175081Y-17619011D01*
X48570868Y57550000D02*
X59888733Y57550000D01*
X59993791Y38231208D02*
X62441413Y35783586D01*
X62475000Y54963733D02*
X62475000Y52873743D01*
X44360355Y12700000D02*
X45022500Y12700000D01*
X26275000Y36395657D02*
X26275000Y37626256D01*
X97897197Y-22238899D02*
X96837083Y-23299014D01*
X77654591Y52575000D02*
X62773743Y52575000D01*
X58402569Y13302569D02*
X54200000Y9100000D01*
X80275000Y30510140D02*
X80275000Y30617500D01*
X41125387Y51550000D02*
X30273919Y51550000D01*
X96978850Y5538850D02*
X96672949Y5232949D01*
X97139503Y13825001D02*
X82110141Y13825001D01*
X77136798Y-14942621D02*
X74229895Y-17849525D01*
X96596474Y5156474D02*
X96443524Y5003524D01*
X65816178Y16825001D02*
X73946035Y16825001D01*
X44275000Y47260884D02*
X44275000Y48400387D01*
X79272271Y32487728D02*
X79142500Y32617499D01*
X98275000Y25395657D02*
X98275000Y25487367D01*
X22202569Y15302569D02*
X18000000Y11100000D01*
X80275000Y45395657D02*
X80275000Y46216134D01*
X102128984Y-7510919D02*
X106763248Y-12145183D01*
X96672949Y5232949D02*
X96596474Y5156474D01*
X40202569Y24302569D02*
X36000000Y20100000D01*
X62475000Y35702501D02*
X62475000Y34395657D01*
X26450000Y38048743D02*
X26450000Y47726080D01*
X95340942Y21774070D02*
G75*
G03*
X96479313Y22245629I-42J1609930D01*
G01*
X24704438Y-695580D02*
G75*
G02*
X23424099Y-1225901I-1280338J1280380D01*
G01*
X26450008Y47726080D02*
G75*
G02*
X27570000Y50430000I3823892J20D01*
G01*
X62455553Y18769444D02*
G75*
G03*
X62502500Y18750000I46947J46956D01*
G01*
X78479293Y8245649D02*
G75*
G02*
X77340942Y7774099I-1138393J1138351D01*
G01*
X42479293Y25245649D02*
G75*
G02*
X41340942Y24774099I-1138393J1138351D01*
G01*
X110449499Y30992499D02*
G75*
G03*
X109091504Y31555000I-1357999J-1357999D01*
G01*
X26275019Y37626256D02*
G75*
G02*
X26362501Y37837499I298681J44D01*
G01*
X79507503Y51807503D02*
G75*
G03*
X77654591Y52575000I-1852903J-1852903D01*
G01*
X100456540Y-21178801D02*
G75*
G03*
X97897197Y-22238899I-40J-3619399D01*
G01*
X80275008Y30617500D02*
G75*
G03*
X79661584Y32098415I-2094308J0D01*
G01*
X59540942Y30774070D02*
G75*
G03*
X58402569Y30302569I-42J-1609870D01*
G01*
X44275022Y11395657D02*
G75*
G02*
X43317334Y9083648I-3269722J43D01*
G01*
X103003633Y-6216367D02*
G75*
G02*
X103678527Y-6216367I337447J-337444D01*
G01*
X92005000Y32275000D02*
G75*
G02*
X92005000Y32275000I0J0D01*
G01*
X80275017Y11989859D02*
G75*
G02*
X80812500Y13287500I1835083J41D01*
G01*
X95340942Y21774070D02*
G75*
G03*
X94202569Y21302569I-42J-1609870D01*
G01*
X98275000Y9562500D02*
G75*
G02*
X98462500Y9750000I187500J0D01*
G01*
X79317318Y43083664D02*
G75*
G03*
X80275000Y45395657I-2312018J2312036D01*
G01*
X104704921Y-6677825D02*
G75*
G02*
X103740540Y-6278380I-21J1363825D01*
G01*
X98782589Y9882575D02*
G75*
G02*
X98462500Y9750000I-320089J320125D01*
G01*
X44636224Y47111276D02*
G75*
G02*
X44275000Y47260884I-149624J149624D01*
G01*
X45022500Y12700000D02*
G75*
G03*
X45720000Y13397500I0J697500D01*
G01*
X26275014Y19572667D02*
G75*
G02*
X27107500Y21582500I2842286J33D01*
G01*
X22202549Y32302590D02*
G75*
G02*
X23340942Y32774099I1138351J-1138390D01*
G01*
X41125387Y51549995D02*
G75*
G02*
X43352500Y50627500I13J-3149595D01*
G01*
X26275000Y3582500D02*
G75*
G02*
X26442500Y3750000I167500J0D01*
G01*
X24479293Y33245649D02*
G75*
G02*
X23340942Y32774099I-1138393J1138351D01*
G01*
X45859991Y38240009D02*
G75*
G02*
X49686530Y39825001I3826509J-3826509D01*
G01*
X76164990Y24264974D02*
G75*
G02*
X77394099Y24774099I1229110J-1229074D01*
G01*
X62475022Y17395657D02*
G75*
G02*
X61517334Y15083648I-3269722J43D01*
G01*
X77136809Y-14942632D02*
G75*
G02*
X79548178Y-13943795I2411391J-2411368D01*
G01*
X41340942Y41774070D02*
G75*
G03*
X40202569Y41302569I-42J-1609870D01*
G01*
X65599007Y33825003D02*
G75*
G02*
X63390000Y34740001I-7J3123997D01*
G01*
X46555009Y56714991D02*
G75*
G02*
X48570868Y57550000I2015891J-2015891D01*
G01*
X62475022Y34395657D02*
G75*
G02*
X61517334Y32083648I-3269722J43D01*
G01*
X78623209Y25283221D02*
G75*
G02*
X77394099Y24774099I-1229109J1229079D01*
G01*
X26275008Y2312500D02*
G75*
G02*
X25258534Y-141465I-3470408J0D01*
G01*
X97576725Y29423260D02*
G75*
G02*
X98275000Y27737500I-1685725J-1685760D01*
G01*
X81029991Y47505009D02*
G75*
G02*
X82852731Y48260000I1822709J-1822709D01*
G01*
X102430073Y-21178755D02*
G75*
G03*
X106277829Y-19584992I27J5441555D01*
G01*
X22143761Y-1756224D02*
G75*
G02*
X23424099Y-1225901I1280339J-1280376D01*
G01*
X26275022Y19395657D02*
G75*
G02*
X25317334Y17083648I-3269722J43D01*
G01*
X45720012Y49216769D02*
G75*
G02*
X44997499Y47472501I-2466812J31D01*
G01*
X46555009Y56714991D02*
G75*
G03*
X45720000Y54699131I2015891J-2015891D01*
G01*
X99060001Y11904504D02*
G75*
G03*
X98497499Y13262500I-1920501J-4D01*
G01*
X78479293Y42245649D02*
G75*
G02*
X77340942Y41774099I-1138393J1138351D01*
G01*
X78337506Y33422507D02*
G75*
G03*
X77365777Y33825001I-971706J-971707D01*
G01*
X44636254Y47111246D02*
G75*
G03*
X44275000Y46239115I872146J-872146D01*
G01*
X112113086Y-1992900D02*
G75*
G02*
X112965471Y-1639814I852414J-852400D01*
G01*
X44275022Y45395657D02*
G75*
G02*
X43317334Y43083648I-3269722J43D01*
G01*
X62508580Y35621409D02*
G75*
G02*
X62475000Y35702501I81120J81091D01*
G01*
X97317318Y23083664D02*
G75*
G03*
X98275000Y25395657I-2312018J2312036D01*
G01*
X95340942Y38774070D02*
G75*
G03*
X94202569Y38302569I-42J-1609870D01*
G01*
X44274995Y48400387D02*
G75*
G03*
X43352500Y50627500I-3149595J13D01*
G01*
X41340942Y24774070D02*
G75*
G03*
X40202569Y24302569I-42J-1609870D01*
G01*
X44299924Y12724924D02*
G75*
G03*
X44275000Y12714644I-10324J-10324D01*
G01*
X62562487Y52662487D02*
G75*
G02*
X62475000Y52873743I211213J211213D01*
G01*
X62474996Y18722500D02*
G75*
G03*
X62455554Y18769445I-66396J0D01*
G01*
X95279027Y48260011D02*
G75*
G02*
X97397500Y47382500I-27J-2996011D01*
G01*
X80275097Y30510140D02*
G75*
G03*
X80812499Y30287501I314803J-40D01*
G01*
X26275022Y36395657D02*
G75*
G02*
X25317334Y34083648I-3269722J43D01*
G01*
X59540942Y13774070D02*
G75*
G03*
X58402569Y13302569I-42J-1609870D01*
G01*
X30273919Y51549992D02*
G75*
G03*
X27570000Y50430000I-19J-3823892D01*
G01*
X27939990Y28226036D02*
G75*
G02*
X29533793Y32073791I5441610J-36D01*
G01*
X99059994Y10449913D02*
G75*
G02*
X98855000Y9955000I-699894J-13D01*
G01*
X98771908Y31555002D02*
G75*
G02*
X97902792Y31915000I-8J1229098D01*
G01*
X26442500Y3750006D02*
G75*
G03*
X26728440Y3868440I0J404394D01*
G01*
X79737499Y13287500D02*
G75*
G03*
X80812500Y13287500I537500J537500D01*
G01*
X79737511Y13287512D02*
G75*
G02*
X80275000Y11989859I-1297611J-1297612D01*
G01*
X98275011Y8075972D02*
G75*
G02*
X97397500Y5957500I-2996011J28D01*
G01*
X59674099Y47774109D02*
G75*
G03*
X61039784Y48339784I1J1931391D01*
G01*
X62562575Y52662575D02*
G75*
G03*
X62475000Y52626256I-36275J-36275D01*
G01*
X42479293Y42245649D02*
G75*
G02*
X41340942Y41774099I-1138393J1138351D01*
G01*
X91697712Y32402271D02*
G75*
G03*
X92005000Y32275000I307288J307329D01*
G01*
X81959567Y-12944977D02*
G75*
G02*
X79548178Y-13943795I-2411367J2411377D01*
G01*
X80275022Y11395657D02*
G75*
G02*
X79317334Y9083648I-3269722J43D01*
G01*
X49996304Y22824998D02*
G75*
G03*
X46972501Y21572499I-4J-4276298D01*
G01*
X41793784Y32231201D02*
G75*
G03*
X37946035Y33825001I-3847784J-3847801D01*
G01*
X41340942Y7774070D02*
G75*
G03*
X40202569Y7302569I-42J-1609870D01*
G01*
X98497499Y13262500D02*
G75*
G03*
X97139503Y13825001I-1357999J-1358000D01*
G01*
X77793785Y15231201D02*
G75*
G03*
X73946035Y16825001I-3847785J-3847801D01*
G01*
X82110141Y30824983D02*
G75*
G03*
X80812500Y30287500I-41J-1835083D01*
G01*
X23340942Y15774070D02*
G75*
G03*
X24479313Y16245629I-42J1609930D01*
G01*
X62562487Y52662487D02*
G75*
G03*
X62773743Y52575000I211213J211213D01*
G01*
X76202549Y41302590D02*
G75*
G02*
X77340942Y41774099I1138351J-1138390D01*
G01*
X96367051Y4927047D02*
G75*
G02*
X95997794Y4774099I-369251J369253D01*
G01*
X80652510Y47127490D02*
G75*
G03*
X80275000Y46216134I911390J-911390D01*
G01*
X80275001Y28342500D02*
G75*
G02*
X79279747Y25939747I-3398001J0D01*
G01*
X94129636Y4229616D02*
G75*
G02*
X95444099Y4774099I1314464J-1314416D01*
G01*
X59540942Y30774070D02*
G75*
G03*
X60679313Y31245629I-42J1609930D01*
G01*
X110007731Y-3491802D02*
G75*
G02*
X110123748Y-3211725I396069J2D01*
G01*
X45720002Y18548696D02*
G75*
G02*
X46972501Y21572499I4276298J4D01*
G01*
X59674099Y47774091D02*
G75*
G03*
X58308413Y47208413I1J-1931391D01*
G01*
X98275011Y45264027D02*
G75*
G03*
X97397500Y47382500I-2996011J-27D01*
G01*
X44275012Y34413470D02*
G75*
G02*
X45860000Y38240000I5411488J30D01*
G01*
X44300013Y12725013D02*
G75*
G03*
X44360355Y12700000I60387J60387D01*
G01*
X76202549Y7302590D02*
G75*
G02*
X77340942Y7774099I1138351J-1138390D01*
G01*
X56146035Y39825010D02*
G75*
G02*
X59993791Y38231208I-35J-5441610D01*
G01*
X101878914Y-6907367D02*
G75*
G02*
X102232538Y-6553814I353586J-33D01*
G01*
X97317318Y40083664D02*
G75*
G03*
X98275000Y42395657I-2312018J2312036D01*
G01*
X61717490Y56792490D02*
G75*
G02*
X62475000Y54963733I-1828790J-1828790D01*
G01*
X44275022Y28395657D02*
G75*
G02*
X43317334Y26083648I-3269722J43D01*
G01*
X41793784Y15231201D02*
G75*
G03*
X37946035Y16825001I-3847784J-3847801D01*
G01*
X42479293Y8245649D02*
G75*
G02*
X41340942Y7774099I-1138393J1138351D01*
G01*
X82110141Y13824983D02*
G75*
G03*
X80812500Y13287500I-41J-1835083D01*
G01*
X102272585Y-6553809D02*
G75*
G03*
X102944503Y-6275496I15J950209D01*
G01*
X80652441Y47127559D02*
G75*
G02*
X80275000Y47283865I-156341J156341D01*
G01*
X56146035Y22825010D02*
G75*
G02*
X59993791Y21231208I-35J-5441610D01*
G01*
X108126466Y-17736325D02*
G75*
G03*
X108175081Y-17619011I-117266J117325D01*
G01*
X83693676Y-10286517D02*
G75*
G02*
X83040078Y-11864448I-2231576J17D01*
G01*
X29756215Y15231201D02*
G75*
G02*
X33603964Y16825001I3847785J-3847801D01*
G01*
X106763219Y-12145212D02*
G75*
G02*
X108175081Y-15553649I-3408419J-3408488D01*
G01*
X27939990Y11161036D02*
G75*
G02*
X29533793Y15008791I5441610J-36D01*
G01*
X61717490Y56792490D02*
G75*
G03*
X59888733Y57550000I-1828790J-1828790D01*
G01*
X62549447Y18730556D02*
G75*
G03*
X62502500Y18750000I-46947J-46956D01*
G01*
X61474549Y48774549D02*
G75*
G03*
X62475000Y51189850I-2415299J2415301D01*
G01*
X97033675Y32274987D02*
G75*
G02*
X97902792Y31915000I25J-1229087D01*
G01*
X44249987Y12774987D02*
G75*
G02*
X44275000Y12714644I-60387J-60387D01*
G01*
X109891735Y-3771888D02*
G75*
G03*
X110007737Y-3491802I-280135J280088D01*
G01*
X27107501Y21582499D02*
G75*
G03*
X27940000Y23592332I-2009831J2009831D01*
G01*
X80274996Y49954591D02*
G75*
G03*
X79507500Y51807500I-2620396J9D01*
G01*
X27940019Y6020452D02*
G75*
G02*
X27274999Y4415001I-2270519J48D01*
G01*
X97225007Y29775008D02*
G75*
G03*
X94690074Y30825001I-2534907J-2534908D01*
G01*
X80275017Y28989859D02*
G75*
G02*
X80812500Y30287500I1835083J41D01*
G01*
X29691215Y32231201D02*
G75*
G02*
X33538964Y33825001I3847785J-3847801D01*
G01*
X62441419Y35783592D02*
G75*
G02*
X62475000Y35702501I-81119J-81092D01*
G01*
X26362513Y37837487D02*
G75*
G03*
X26450000Y38048743I-211213J211213D01*
G01*
X91697712Y32402271D02*
G75*
G03*
X92005000Y32275000I307288J307329D01*
G01*
X62441419Y35783592D02*
G75*
G02*
X62475000Y35702501I-81119J-81092D01*
G01*
X111374755Y-2345994D02*
G75*
G03*
X110717100Y-2618372I-55J-930006D01*
G01*
X23340942Y15774070D02*
G75*
G03*
X22202569Y15302569I-42J-1609870D01*
G01*
X62475000Y35702501D02*
G75*
G02*
X62475000Y35702501I0J0D01*
G01*
X111374755Y-2346000D02*
G75*
G03*
X112032408Y-2073553I-55J930100D01*
G01*
X62475000Y18722500D02*
G75*
G02*
X62502500Y18750000I27500J0D01*
G01*
X105562882Y-6677826D02*
G75*
G03*
X107991892Y-5671709I18J3435126D01*
G01*
X65816178Y16824992D02*
G75*
G02*
X63492500Y17787501I22J3286208D01*
G01*
X59540942Y13774070D02*
G75*
G03*
X60679313Y14245629I-42J1609930D01*
G01*
X95340942Y38774070D02*
G75*
G03*
X96479313Y39245629I-42J1609930D01*
G01*
X101878998Y-6907367D02*
G75*
G03*
X102128984Y-7510919I853502J-33D01*
G01*
%TO.N,P5*%
X13937500Y14137500D02*
X13000000Y13200000D01*
X14875001Y22693932D02*
X14875001Y16400826D01*
X14800000Y22874999D02*
X14725000Y22950000D01*
X14799991Y22874990D02*
G75*
G02*
X14875001Y22693932I-181091J-181090D01*
G01*
X13937499Y14137501D02*
G75*
G03*
X14875001Y16400826I-2263329J2263329D01*
G01*
%TO.N,P2*%
X14875001Y33400826D02*
X14875001Y39693932D01*
X13937500Y31137500D02*
X13000000Y30200000D01*
X14800000Y39874999D02*
X14725000Y39950000D01*
X13937499Y31137501D02*
G75*
G03*
X14875001Y33400826I-2263329J2263329D01*
G01*
X14875013Y39693932D02*
G75*
G03*
X14800000Y39874999I-256113J-32D01*
G01*
%TO.N,P14*%
X72585690Y1759000D02*
X72129229Y1759000D01*
X83280811Y-97207D02*
X83018396Y165207D01*
X65462614Y4840922D02*
X65855384Y4448153D01*
X40760000Y5080000D02*
X40795147Y5080000D01*
X44976051Y7620000D02*
X53340000Y7620000D01*
X70242461Y2961077D02*
X70491076Y2712462D01*
X70242461Y2961077D02*
X70118154Y3085385D01*
X71786884Y1759000D02*
X71672769Y1759000D01*
X61390884Y7620000D02*
X60529114Y7620000D01*
X88139573Y-1690999D02*
X91695428Y-1691000D01*
X60098229Y7620000D02*
X58374690Y7620000D01*
X68250482Y3859000D02*
X66999998Y3859000D01*
X79170640Y1759000D02*
X72585690Y1759000D01*
X70491076Y2712462D02*
X70740671Y2462867D01*
X40940000Y5140000D02*
X41000000Y5200000D01*
X70987325Y2216212D02*
X71053152Y2150385D01*
X88139573Y-1690999D02*
X87634070Y-1690999D01*
X61390884Y7620000D02*
X61821769Y7620000D01*
X101505000Y7333963D02*
X101505000Y10110001D01*
X70740671Y2462867D02*
X70987325Y2216212D01*
X72015114Y1759000D02*
X71786884Y1759000D01*
X60529114Y7620000D02*
X60098229Y7620000D01*
X87297068Y-1690999D02*
X87634070Y-1690999D01*
X91695428Y-1691000D02*
X93641857Y-1691000D01*
X72015114Y1759000D02*
X72129229Y1759000D01*
X88139573Y-1690999D02*
X87634070Y-1690999D01*
X110449500Y10672500D02*
X111012000Y10110000D01*
X102629998Y11235000D02*
X109091504Y11235000D01*
X90920572Y-1690999D02*
X92480036Y-1690999D01*
X71196903Y2006634D02*
X71168153Y2035384D01*
X87128567Y-1691000D02*
X87297068Y-1690999D01*
X64480690Y5822846D02*
X65266229Y5037307D01*
X41910000Y6350000D02*
X40724852Y5164852D01*
X32875001Y14693932D02*
X32875001Y8400826D01*
X63292901Y7010636D02*
X64480690Y5822846D01*
X65855384Y4448153D02*
X66051769Y4251769D01*
X90920572Y-1690999D02*
X88139573Y-1690999D01*
X58374690Y7620000D02*
X44351572Y7620000D01*
X31937500Y6137500D02*
X31000000Y5200000D01*
X71196903Y2006634D02*
X71254404Y1949133D01*
X32800000Y14874999D02*
X32725000Y14950000D01*
X87634070Y-1690999D02*
X87297068Y-1690999D01*
X71053152Y2150385D02*
X71168153Y2035384D01*
X71254404Y1949133D02*
X71283155Y1920383D01*
X99911207Y3486207D02*
X96327792Y-97207D01*
X65462614Y4840922D02*
X65266229Y5037307D01*
X83018387Y165198D02*
G75*
G03*
X79170640Y1759000I-3847787J-3847798D01*
G01*
X101505000Y10110001D02*
G75*
G02*
X101834504Y10905495I1125000J-1D01*
G01*
X71672769Y1758979D02*
G75*
G02*
X71283155Y1920383I31J551021D01*
G01*
X44351572Y7620000D02*
G75*
G02*
X44976051Y7620000I312239J-1081361824D01*
G01*
X91695428Y-1691140D02*
G75*
G03*
X90920572Y-1691000I-581143J-1072050684D01*
G01*
X44976051Y7620020D02*
G75*
G03*
X41910000Y6350000I49J-4336120D01*
G01*
X66051770Y4251770D02*
G75*
G03*
X66999998Y3859000I948230J948230D01*
G01*
X32874989Y8400826D02*
G75*
G02*
X31937500Y6137500I-3200789J-26D01*
G01*
X44351570Y7620015D02*
G75*
G03*
X41910001Y6349999I378930J-3710415D01*
G01*
X110449499Y10672499D02*
G75*
G03*
X109091504Y11235000I-1357999J-1357999D01*
G01*
X87128567Y-1691008D02*
G75*
G02*
X83280811Y-97207I33J5441608D01*
G01*
X96327784Y-97199D02*
G75*
G02*
X92480036Y-1690999I-3847784J3847799D01*
G01*
X32799991Y14874990D02*
G75*
G02*
X32875001Y14693932I-181091J-181090D01*
G01*
X87634070Y-1690999D02*
G75*
G02*
X87634070Y-1690999I0J0D01*
G01*
X40939986Y5140014D02*
G75*
G02*
X40795147Y5080000I-144886J144886D01*
G01*
X61821769Y7619975D02*
G75*
G02*
X63292900Y7010635I31J-2080475D01*
G01*
X88139573Y-1690999D02*
G75*
G03*
X88139573Y-1690999I0J0D01*
G01*
X101834504Y10905495D02*
G75*
G02*
X102629998Y11235000I795496J-795495D01*
G01*
X99911199Y3486215D02*
G75*
G03*
X101505000Y7333963I-3847799J3847785D01*
G01*
X40724859Y5164845D02*
G75*
G03*
X40760000Y5080000I35141J-35145D01*
G01*
X70118166Y3085397D02*
G75*
G03*
X68250482Y3859000I-1867666J-1867697D01*
G01*
%TO.N,P18*%
X61191773Y20669622D02*
X61309622Y20551773D01*
X59330159Y22531234D02*
X59345697Y22515697D01*
X32875001Y31693932D02*
X32875001Y25400826D01*
X42835141Y23275001D02*
X57600473Y23275001D01*
X60615697Y21245697D02*
X60803909Y21057485D01*
X41537500Y22737500D02*
X41000000Y22200000D01*
X60098546Y21762848D02*
X59407848Y22453546D01*
X60098546Y21762848D02*
X60615697Y21245697D01*
X60944636Y20916759D02*
X61085363Y20776032D01*
X64641395Y19450780D02*
X64641395Y18554303D01*
X61191773Y20669622D02*
X61085363Y20776032D01*
X98852221Y14375000D02*
X81337006Y14375000D01*
X32800000Y31874999D02*
X32725000Y31950000D01*
X74335784Y17275001D02*
X65920697Y17275001D01*
X61653059Y20375000D02*
X63717175Y20375000D01*
X59345697Y22515697D02*
X59407848Y22453546D01*
X59283546Y22577849D02*
X61368546Y20492848D01*
X61368547Y20492849D02*
X61309622Y20551773D01*
X31937500Y23137500D02*
X31000000Y22200000D01*
X59299084Y22562311D02*
X59330159Y22531234D01*
X109091504Y16315000D02*
X103535796Y16315000D01*
X59283546Y22577849D02*
X59299084Y22562311D01*
X60803909Y21057485D02*
X60944636Y20916759D01*
X110449500Y15752500D02*
X111012000Y15190000D01*
X32799991Y31874990D02*
G75*
G02*
X32875001Y31693932I-181091J-181090D01*
G01*
X32874989Y25400826D02*
G75*
G02*
X31937500Y23137500I-3200789J-26D01*
G01*
X57600473Y23274988D02*
G75*
G02*
X59283546Y22577849I27J-2380188D01*
G01*
X77836401Y15825006D02*
G75*
G03*
X74335784Y17275001I-3500601J-3500606D01*
G01*
X63717175Y20374987D02*
G75*
G02*
X64370696Y20104301I25J-924187D01*
G01*
X59283546Y22577849D02*
G75*
G02*
X59283546Y22577849I0J0D01*
G01*
X101194008Y15345001D02*
G75*
G02*
X103535796Y16315000I2341792J-2341801D01*
G01*
X101194001Y15345008D02*
G75*
G02*
X98852221Y14375000I-2341801J2341792D01*
G01*
X65920697Y17274995D02*
G75*
G02*
X64641395Y18554303I3J1279305D01*
G01*
X64641387Y19450780D02*
G75*
G03*
X64370696Y20104301I-924187J20D01*
G01*
X61653059Y20374954D02*
G75*
G02*
X61368547Y20492849I41J402346D01*
G01*
X61368546Y20492848D02*
G75*
G02*
X61368546Y20492848I0J0D01*
G01*
X57600473Y23274988D02*
G75*
G02*
X59283546Y22577849I27J-2380188D01*
G01*
X81337006Y14375001D02*
G75*
G02*
X77836395Y15825000I-6J4950599D01*
G01*
X41537488Y22737512D02*
G75*
G02*
X42835141Y23275001I1297612J-1297612D01*
G01*
X61653059Y20374982D02*
G75*
G02*
X61368547Y20492849I41J402418D01*
G01*
X110449499Y15752499D02*
G75*
G03*
X109091504Y16315000I-1357999J-1357999D01*
G01*
%TO.N,P20*%
X99011207Y29533792D02*
X98763792Y29781206D01*
X110449500Y20832500D02*
X111012000Y20270000D01*
X92334999Y31375000D02*
X93107500Y31375000D01*
X91562498Y31375000D02*
X90017497Y31375000D01*
X42835141Y40275001D02*
X56535784Y40275001D01*
X62892500Y37375000D02*
X62793198Y37375000D01*
X93107500Y31375000D02*
X94916036Y31375000D01*
X32875001Y48693932D02*
X32875001Y42400826D01*
X93107500Y31375000D02*
X93880001Y31375000D01*
X31937500Y40137500D02*
X31000000Y39200000D01*
X32800000Y48874999D02*
X32725000Y48950000D01*
X100605000Y24056394D02*
X100605000Y25686036D01*
X91562498Y31375000D02*
X92334999Y31375000D01*
X90017497Y31375000D02*
X91562498Y31375000D01*
X80620208Y31776187D02*
X79423197Y32973198D01*
X91562498Y31375000D02*
X92334999Y31375000D01*
X92334999Y31375000D02*
X93107500Y31375000D01*
X90017497Y31375000D02*
X80873198Y31375000D01*
X41537500Y39737500D02*
X41000000Y39200000D01*
X60562347Y38299048D02*
X60036395Y38825000D01*
X109091504Y21395000D02*
X103266394Y21395000D01*
X64100000Y36167500D02*
X64100000Y35444367D01*
X65269366Y34275001D02*
X76280368Y34275001D01*
X92334999Y31375000D02*
G75*
G02*
X92334999Y31375000I0J0D01*
G01*
X80873198Y31375000D02*
G75*
G02*
X80725000Y31523198I2J148200D01*
G01*
X32799991Y48874990D02*
G75*
G02*
X32875001Y48693932I-181091J-181090D01*
G01*
X110449499Y20832499D02*
G75*
G03*
X109091504Y21395000I-1357999J-1357999D01*
G01*
X94916036Y31375009D02*
G75*
G02*
X98763792Y29781206I-36J-5441609D01*
G01*
X64099987Y35444367D02*
G75*
G03*
X64442500Y34617501I1169413J33D01*
G01*
X80620213Y31776192D02*
G75*
G02*
X80725000Y31523198I-253013J-252992D01*
G01*
X100605010Y25686036D02*
G75*
G03*
X99011207Y29533792I-5441610J-36D01*
G01*
X41537488Y39737512D02*
G75*
G02*
X42835141Y40275001I1297612J-1297612D01*
G01*
X64100000Y36167500D02*
G75*
G03*
X62892500Y37375000I-1207500J0D01*
G01*
X79423207Y32973208D02*
G75*
G03*
X76280368Y34275001I-3142807J-3142808D01*
G01*
X56535784Y40274992D02*
G75*
G02*
X60036395Y38825000I16J-4950592D01*
G01*
X62793198Y37374999D02*
G75*
G02*
X60562348Y38299049I2J3154901D01*
G01*
X93107500Y31375000D02*
G75*
G02*
X93107500Y31375000I0J0D01*
G01*
X100604998Y24056394D02*
G75*
G03*
X101384505Y22174505I2661402J6D01*
G01*
X103266394Y21394998D02*
G75*
G02*
X101384505Y22174505I6J2661402D01*
G01*
X91562498Y31375000D02*
G75*
G02*
X91562498Y31375000I0J0D01*
G01*
X64442510Y34617511D02*
G75*
G03*
X65269366Y34275001I826890J826889D01*
G01*
X32874989Y42400826D02*
G75*
G02*
X31937500Y40137500I-3200789J-26D01*
G01*
%TO.N,P7*%
X50137500Y12137500D02*
X49200000Y11200000D01*
X51075001Y20693932D02*
X51075001Y14400826D01*
X51000000Y20874999D02*
X50925000Y20950000D01*
X50137508Y12137492D02*
G75*
G03*
X51075001Y14400826I-2263308J2263308D01*
G01*
X50999991Y20874990D02*
G75*
G02*
X51075001Y20693932I-181091J-181090D01*
G01*
%TO.N,P4*%
X51000000Y37874999D02*
X50925000Y37950000D01*
X51075001Y31400826D02*
X51075001Y37693932D01*
X50137500Y29137500D02*
X49200000Y28200000D01*
X50137508Y29137492D02*
G75*
G03*
X51075001Y31400826I-2263308J2263308D01*
G01*
X51075013Y37693932D02*
G75*
G03*
X51000000Y37874999I-256113J-32D01*
G01*
%TO.N,P0*%
X51075001Y54693932D02*
X51075001Y48400826D01*
X50137500Y46137500D02*
X49200000Y45200000D01*
X51000000Y54874999D02*
X50925000Y54950000D01*
X51074989Y48400826D02*
G75*
G02*
X50137500Y46137500I-3200789J-26D01*
G01*
X51075013Y54693932D02*
G75*
G03*
X51000000Y54874999I-256113J-32D01*
G01*
%TO.N,P15*%
X101781001Y13391992D02*
X101730000Y13340991D01*
X98564349Y2775745D02*
X96957651Y1169047D01*
X101883003Y13493994D02*
X101781001Y13391992D01*
X96555976Y767372D02*
X95752627Y-35976D01*
X101883003Y13493994D02*
X101934004Y13544995D01*
X101055000Y8796802D02*
X101055000Y8208401D01*
X101055000Y6443198D02*
X101055000Y7031599D01*
X95752627Y-35976D02*
X95350953Y-437651D01*
X68875001Y8400826D02*
X68875001Y14693932D01*
X98564349Y2775745D02*
X100222875Y4434271D01*
X101730000Y13340991D02*
X101525996Y13136987D01*
X96555976Y767372D02*
X96957651Y1169047D01*
X101055000Y11150406D02*
X101055000Y8796802D01*
X67937500Y6137500D02*
X67000000Y5200000D01*
X101055000Y11150406D02*
X101055000Y12347792D01*
X87314963Y-1241000D02*
X93455461Y-1241000D01*
X68800000Y14874999D02*
X68725000Y14950000D01*
X108751790Y13974000D02*
X102969712Y13974000D01*
X110350000Y13312000D02*
X111012000Y12650000D01*
X101280000Y12890991D02*
X101525996Y13136987D01*
X93411496Y-1240999D02*
X91440000Y-1241000D01*
X83467207Y352792D02*
X79192756Y4627243D01*
X77810000Y5200000D02*
X77000000Y5200000D01*
X101055000Y8208401D02*
X101055000Y7031599D01*
X95350953Y-437651D02*
G75*
G02*
X93411496Y-1240999I-1939453J1939451D01*
G01*
X68799991Y14874990D02*
G75*
G02*
X68875001Y14693932I-181091J-181090D01*
G01*
X87314963Y-1241011D02*
G75*
G02*
X83467207Y352792I37J5441611D01*
G01*
X77810000Y5200003D02*
G75*
G02*
X79192756Y4627243I0J-1955503D01*
G01*
X101055006Y12347792D02*
G75*
G02*
X101280000Y12890991I768194J8D01*
G01*
X100222884Y4434262D02*
G75*
G03*
X101055000Y6443198I-2008984J2008938D01*
G01*
X68874989Y8400826D02*
G75*
G02*
X67937500Y6137500I-3200789J-26D01*
G01*
X101934000Y13544999D02*
G75*
G02*
X102969712Y13974000I1035700J-1035699D01*
G01*
X110350003Y13312003D02*
G75*
G03*
X108751790Y13974000I-1598203J-1598203D01*
G01*
%TO.N,P19*%
X67937500Y23137500D02*
X67000000Y22200000D01*
X68800000Y31874999D02*
X68725000Y31950000D01*
X81221319Y14825000D02*
X99338500Y14825000D01*
X101026307Y16512806D02*
X101026307Y16772106D01*
X110350000Y18392000D02*
X111012000Y17730000D01*
X77000000Y19046319D02*
X77000000Y22200000D01*
X108751790Y19054000D02*
X103308200Y19054000D01*
X68875001Y31693932D02*
X68875001Y25400826D01*
X103308200Y19053997D02*
G75*
G03*
X101694659Y18385648I0J-2281897D01*
G01*
X68799991Y31874990D02*
G75*
G02*
X68875001Y31693932I-181091J-181090D01*
G01*
X110350003Y18392003D02*
G75*
G03*
X108751790Y19054000I-1598203J-1598203D01*
G01*
X78236390Y16061390D02*
G75*
G03*
X81221319Y14825000I2984910J2984910D01*
G01*
X101026303Y16772106D02*
G75*
G02*
X101694659Y18385648I2281897J-6D01*
G01*
X78236390Y16061390D02*
G75*
G02*
X77000000Y19046319I2984910J2984910D01*
G01*
X100531963Y15319344D02*
G75*
G03*
X101026307Y16512806I-1193463J1193456D01*
G01*
X68874989Y25400826D02*
G75*
G02*
X67937500Y23137500I-3200789J-26D01*
G01*
X100531958Y15319349D02*
G75*
G02*
X99338500Y14825000I-1193458J1193451D01*
G01*
%TO.N,P21*%
X68875001Y48693932D02*
X68875001Y42400826D01*
X78119777Y34913014D02*
X79613998Y33418792D01*
X68800000Y48874999D02*
X68725000Y48950000D01*
X100067742Y29113653D02*
X98950188Y30231206D01*
X101055000Y26182543D02*
X101055000Y26730202D01*
X95102432Y31825000D02*
X83461755Y31825000D01*
X67937500Y40137500D02*
X67000000Y39200000D01*
X103103543Y24134000D02*
X108751790Y24134000D01*
X77000000Y37616396D02*
X77000000Y39200000D01*
X110350000Y23472000D02*
X111012000Y22810000D01*
X101654992Y24733992D02*
G75*
G02*
X101055000Y26182543I1448508J1448508D01*
G01*
X101654992Y24733992D02*
G75*
G03*
X103103543Y24134000I1448508J1448508D01*
G01*
X110350003Y23472003D02*
G75*
G03*
X108751790Y24134000I-1598203J-1598203D01*
G01*
X68874989Y42400826D02*
G75*
G02*
X67937500Y40137500I-3200789J-26D01*
G01*
X77000009Y37616396D02*
G75*
G03*
X78119777Y34913014I3823191J4D01*
G01*
X68875013Y48693932D02*
G75*
G03*
X68800000Y48874999I-256113J-32D01*
G01*
X100067739Y29113650D02*
G75*
G02*
X101055000Y26730202I-2383439J-2383450D01*
G01*
X83461755Y31824982D02*
G75*
G02*
X79613998Y33418792I45J5441618D01*
G01*
X98950183Y30231201D02*
G75*
G03*
X95102432Y31825000I-3847783J-3847801D01*
G01*
%TO.N,P6*%
X85937500Y3137500D02*
X85000000Y2200000D01*
X86875001Y11693932D02*
X86875001Y5400826D01*
X86800000Y11874999D02*
X86725000Y11950000D01*
X85937508Y3137492D02*
G75*
G03*
X86875001Y5400826I-2263308J2263308D01*
G01*
X86799991Y11874990D02*
G75*
G02*
X86875001Y11693932I-181091J-181090D01*
G01*
%TO.N,P3*%
X86800000Y28874999D02*
X86725000Y28950000D01*
X85937500Y20137500D02*
X85000000Y19200000D01*
X86875001Y22400826D02*
X86875001Y28693932D01*
X85937508Y20137492D02*
G75*
G03*
X86875001Y22400826I-2263308J2263308D01*
G01*
X86875013Y28693932D02*
G75*
G03*
X86800000Y28874999I-256113J-32D01*
G01*
%TO.N,P1*%
X86800000Y45874999D02*
X86725000Y45950000D01*
X86875001Y45693932D02*
X86875001Y39400826D01*
X85937500Y37137500D02*
X85000000Y36200000D01*
X86874989Y39400826D02*
G75*
G02*
X85937500Y37137500I-3200789J-26D01*
G01*
X86875013Y45693932D02*
G75*
G03*
X86800000Y45874999I-256113J-32D01*
G01*
%TO.N,P9*%
X72529649Y-10022777D02*
X72529649Y-5673430D01*
X71038212Y-13623423D02*
X69546776Y-15114860D01*
X72529642Y-10022777D02*
G75*
G02*
X71038212Y-13623423I-5092042J-23D01*
G01*
%TO.N,P10*%
X98346176Y-12609174D02*
X98346176Y-11097754D01*
X97277440Y-15189329D02*
X93021320Y-19445450D01*
X98346161Y-12609174D02*
G75*
G02*
X97277440Y-15189329I-3648861J-26D01*
G01*
%TO.N,RAW*%
X119750000Y32806134D02*
X119750000Y4967680D01*
X116840000Y-1254719D02*
X116840000Y-2293504D01*
X111676351Y-6673674D02*
X109687586Y-6673674D01*
X112932495Y34095000D02*
X118461134Y34095000D01*
X116318690Y-2814814D02*
X114670439Y-2814814D01*
X113112660Y-5237365D02*
X113112660Y-4372593D01*
X111574500Y33532500D02*
X111012000Y32970000D01*
X118295000Y1454999D02*
X117727220Y887220D01*
X116840005Y-2293504D02*
G75*
G02*
X116687311Y-2662125I-521305J4D01*
G01*
X119372490Y33717490D02*
G75*
G02*
X119750000Y32806134I-911390J-911390D01*
G01*
X117727223Y887217D02*
G75*
G03*
X116840000Y-1254719I2141877J-2141917D01*
G01*
X118294994Y1455005D02*
G75*
G03*
X119750000Y4967680I-3512694J3512695D01*
G01*
X114670439Y-2814844D02*
G75*
G03*
X113568923Y-3271077I-39J-1557756D01*
G01*
X112932495Y34095002D02*
G75*
G03*
X111574500Y33532500I5J-1920502D01*
G01*
X112692003Y-6253017D02*
G75*
G03*
X113112660Y-5237365I-1015703J1015617D01*
G01*
X116687318Y-2662132D02*
G75*
G02*
X116318690Y-2814814I-368618J368632D01*
G01*
X113112644Y-4372593D02*
G75*
G02*
X113568923Y-3271077I1557756J-7D01*
G01*
X112691942Y-6252956D02*
G75*
G02*
X111676351Y-6673674I-1015642J1015556D01*
G01*
X118461134Y34095014D02*
G75*
G02*
X119372500Y33717500I-34J-1288914D01*
G01*
%TO.N,RST*%
X114438762Y-69867D02*
X112743788Y-69868D01*
X111674000Y28552000D02*
X111012000Y27890000D01*
X117314619Y29214000D02*
X113272209Y29214000D01*
X117716868Y1513263D02*
X117332263Y1128659D01*
X119300000Y5335282D02*
X119300000Y27228619D01*
X113272209Y29213996D02*
G75*
G03*
X111674000Y28552000I-9J-2260196D01*
G01*
X117314619Y29214007D02*
G75*
G02*
X118718495Y28632495I-19J-1985407D01*
G01*
X114438762Y-69829D02*
G75*
G03*
X117332262Y1128660I38J4092029D01*
G01*
X117716869Y1513262D02*
G75*
G03*
X119300000Y5335282I-3822069J3822038D01*
G01*
X119300007Y27228619D02*
G75*
G03*
X118718495Y28632495I-1985407J-19D01*
G01*
%TO.N,pos*%
X108553618Y-5746381D02*
X110009652Y-4290347D01*
X110680095Y-4012641D02*
X111072832Y-4012641D01*
X105218482Y-7127840D02*
X103264805Y-7127840D01*
X105218482Y-7127813D02*
G75*
G03*
X108553618Y-5746381I18J4716613D01*
G01*
X110009653Y-4290348D02*
G75*
G02*
X110680095Y-4012641I670447J-670452D01*
G01*
%TD*%
%TA.AperFunction,Conductor*%
%TO.N,P7*%
G36*
X50629096Y13008408D02*
G01*
X50832159Y12905775D01*
X50837997Y12898985D01*
X50837415Y12890241D01*
X50714135Y12635224D01*
X50615542Y12407590D01*
X50615502Y12407483D01*
X50615500Y12407479D01*
X50548169Y12229013D01*
X50540506Y12208703D01*
X50482895Y12029575D01*
X50436576Y11861222D01*
X50436547Y11861103D01*
X50436544Y11861093D01*
X50395416Y11694658D01*
X50353304Y11520981D01*
X50353259Y11520802D01*
X50304089Y11331112D01*
X50303999Y11330785D01*
X50241627Y11116026D01*
X50241507Y11115639D01*
X50162319Y10874460D01*
X50156482Y10867669D01*
X50151432Y10866412D01*
X48852955Y10841028D01*
X48844616Y10844293D01*
X48841028Y10852955D01*
X48850375Y11331112D01*
X48866406Y12151157D01*
X48869994Y12159360D01*
X48874801Y12162151D01*
X49101547Y12228875D01*
X49102493Y12229111D01*
X49319608Y12273761D01*
X49320198Y12273867D01*
X49464178Y12295869D01*
X49521821Y12304677D01*
X49561071Y12310416D01*
X49709165Y12332071D01*
X49709182Y12332074D01*
X49709319Y12332094D01*
X49883968Y12366589D01*
X49884276Y12366687D01*
X49884283Y12366689D01*
X50046852Y12418526D01*
X50046855Y12418527D01*
X50047334Y12418680D01*
X50200984Y12498886D01*
X50346484Y12617723D01*
X50485400Y12785708D01*
X50613733Y13003898D01*
X50620881Y13009291D01*
X50629096Y13008408D01*
G37*
%TD.AperFunction*%
%TD*%
%TA.AperFunction,Conductor*%
%TO.N,GND*%
G36*
X73352050Y38613144D02*
G01*
X73513144Y38452050D01*
X73516571Y38443777D01*
X73513575Y38435960D01*
X73360230Y38265238D01*
X73334162Y38227297D01*
X73261164Y38121051D01*
X73247131Y38100627D01*
X73172538Y37945925D01*
X73127297Y37796681D01*
X73102256Y37648443D01*
X73102237Y37648239D01*
X73102236Y37648230D01*
X73088263Y37496762D01*
X73076182Y37337398D01*
X73076142Y37336973D01*
X73056861Y37165687D01*
X73056729Y37164818D01*
X73021158Y36977106D01*
X73020894Y36976004D01*
X72962139Y36774824D01*
X72956530Y36767843D01*
X72951137Y36766406D01*
X72853258Y36764493D01*
X71652955Y36741028D01*
X71644616Y36744293D01*
X71641028Y36752955D01*
X71666406Y38051137D01*
X71669994Y38059341D01*
X71674824Y38062139D01*
X71876004Y38120894D01*
X71877104Y38121157D01*
X72064822Y38156730D01*
X72065683Y38156860D01*
X72158038Y38167257D01*
X72236973Y38176142D01*
X72237398Y38176182D01*
X72396762Y38188263D01*
X72548230Y38202236D01*
X72548239Y38202237D01*
X72548443Y38202256D01*
X72696681Y38227297D01*
X72697030Y38227403D01*
X72697035Y38227404D01*
X72766950Y38248598D01*
X72845925Y38272538D01*
X73000627Y38347131D01*
X73000984Y38347376D01*
X73000987Y38347378D01*
X73074246Y38397712D01*
X73165238Y38460230D01*
X73335960Y38613575D01*
X73344403Y38616554D01*
X73352050Y38613144D01*
G37*
%TD.AperFunction*%
%TD*%
%TA.AperFunction,Conductor*%
%TO.N,P6*%
G36*
X86429096Y4008408D02*
G01*
X86632159Y3905775D01*
X86637997Y3898985D01*
X86637415Y3890241D01*
X86514135Y3635224D01*
X86415542Y3407590D01*
X86415502Y3407483D01*
X86415500Y3407479D01*
X86348169Y3229013D01*
X86340506Y3208703D01*
X86282895Y3029575D01*
X86236576Y2861222D01*
X86236547Y2861103D01*
X86236544Y2861093D01*
X86195416Y2694658D01*
X86153304Y2520981D01*
X86153259Y2520802D01*
X86104089Y2331112D01*
X86103999Y2330785D01*
X86041627Y2116026D01*
X86041507Y2115639D01*
X85962319Y1874460D01*
X85956482Y1867669D01*
X85951432Y1866412D01*
X84652955Y1841028D01*
X84644616Y1844293D01*
X84641028Y1852955D01*
X84650375Y2331112D01*
X84666406Y3151157D01*
X84669994Y3159360D01*
X84674801Y3162151D01*
X84901547Y3228875D01*
X84902493Y3229111D01*
X85119608Y3273761D01*
X85120198Y3273867D01*
X85264178Y3295869D01*
X85321821Y3304677D01*
X85361071Y3310416D01*
X85509165Y3332071D01*
X85509182Y3332074D01*
X85509319Y3332094D01*
X85683968Y3366589D01*
X85684276Y3366687D01*
X85684283Y3366689D01*
X85846852Y3418526D01*
X85846855Y3418527D01*
X85847334Y3418680D01*
X86000984Y3498886D01*
X86146484Y3617723D01*
X86285400Y3785708D01*
X86413733Y4003898D01*
X86420881Y4009291D01*
X86429096Y4008408D01*
G37*
%TD.AperFunction*%
%TD*%
%TA.AperFunction,Conductor*%
%TO.N,RAW*%
G36*
X111822894Y33878808D02*
G01*
X111870331Y33805947D01*
X111917294Y33733815D01*
X111946648Y33688728D01*
X111948290Y33679925D01*
X111943503Y33672724D01*
X111837914Y33599626D01*
X111745145Y33525010D01*
X111671119Y33453119D01*
X111612408Y33381720D01*
X111570993Y33317030D01*
X111570533Y33316312D01*
X111563186Y33311192D01*
X111554371Y33312766D01*
X111550401Y33317030D01*
X111538476Y33338957D01*
X111538275Y33339327D01*
X111537908Y33339819D01*
X111501663Y33381720D01*
X111489517Y33395762D01*
X111489508Y33395772D01*
X111489384Y33395915D01*
X111339457Y33545842D01*
X111336030Y33554115D01*
X111339457Y33562388D01*
X111341582Y33564069D01*
X111342344Y33564539D01*
X111417066Y33614595D01*
X111497063Y33670495D01*
X111523005Y33688728D01*
X111587065Y33733751D01*
X111587157Y33733815D01*
X111691897Y33805947D01*
X111692058Y33806056D01*
X111806614Y33882169D01*
X111815401Y33883893D01*
X111822894Y33878808D01*
G37*
%TD.AperFunction*%
%TD*%
%TA.AperFunction,Conductor*%
%TO.N,GND*%
G36*
X91352050Y18613144D02*
G01*
X91513144Y18452050D01*
X91516571Y18443777D01*
X91513575Y18435960D01*
X91360230Y18265238D01*
X91334162Y18227297D01*
X91261164Y18121051D01*
X91247131Y18100627D01*
X91172538Y17945925D01*
X91127297Y17796681D01*
X91102256Y17648443D01*
X91102237Y17648239D01*
X91102236Y17648230D01*
X91088263Y17496762D01*
X91076182Y17337398D01*
X91076142Y17336973D01*
X91056861Y17165687D01*
X91056729Y17164818D01*
X91021158Y16977106D01*
X91020894Y16976004D01*
X90962139Y16774824D01*
X90956530Y16767843D01*
X90951137Y16766406D01*
X90853258Y16764493D01*
X89652955Y16741028D01*
X89644616Y16744293D01*
X89641028Y16752955D01*
X89666406Y18051137D01*
X89669994Y18059341D01*
X89674824Y18062139D01*
X89876004Y18120894D01*
X89877104Y18121157D01*
X90064822Y18156730D01*
X90065683Y18156860D01*
X90158038Y18167257D01*
X90236973Y18176142D01*
X90237398Y18176182D01*
X90396762Y18188263D01*
X90548230Y18202236D01*
X90548239Y18202237D01*
X90548443Y18202256D01*
X90696681Y18227297D01*
X90697030Y18227403D01*
X90697035Y18227404D01*
X90766950Y18248598D01*
X90845925Y18272538D01*
X91000627Y18347131D01*
X91000984Y18347376D01*
X91000987Y18347378D01*
X91074246Y18397712D01*
X91165238Y18460230D01*
X91335960Y18613575D01*
X91344403Y18616554D01*
X91352050Y18613144D01*
G37*
%TD.AperFunction*%
%TD*%
%TA.AperFunction,Conductor*%
%TO.N,GND*%
G36*
X19352050Y12613144D02*
G01*
X19513144Y12452050D01*
X19516571Y12443777D01*
X19513575Y12435960D01*
X19360230Y12265238D01*
X19334162Y12227297D01*
X19261164Y12121051D01*
X19247131Y12100627D01*
X19172538Y11945925D01*
X19127297Y11796681D01*
X19102256Y11648443D01*
X19102237Y11648239D01*
X19102236Y11648230D01*
X19088263Y11496762D01*
X19076182Y11337398D01*
X19076142Y11336973D01*
X19056861Y11165687D01*
X19056729Y11164818D01*
X19021158Y10977106D01*
X19020894Y10976004D01*
X18962139Y10774824D01*
X18956530Y10767843D01*
X18951137Y10766406D01*
X18853258Y10764493D01*
X17652955Y10741028D01*
X17644616Y10744293D01*
X17641028Y10752955D01*
X17666406Y12051137D01*
X17669994Y12059341D01*
X17674824Y12062139D01*
X17876004Y12120894D01*
X17877104Y12121157D01*
X18064822Y12156730D01*
X18065683Y12156860D01*
X18158038Y12167257D01*
X18236973Y12176142D01*
X18237398Y12176182D01*
X18396762Y12188263D01*
X18548230Y12202236D01*
X18548239Y12202237D01*
X18548443Y12202256D01*
X18696681Y12227297D01*
X18697030Y12227403D01*
X18697035Y12227404D01*
X18766950Y12248598D01*
X18845925Y12272538D01*
X19000627Y12347131D01*
X19000984Y12347376D01*
X19000987Y12347378D01*
X19074246Y12397712D01*
X19165238Y12460230D01*
X19335960Y12613575D01*
X19344403Y12616554D01*
X19352050Y12613144D01*
G37*
%TD.AperFunction*%
%TD*%
%TA.AperFunction,Conductor*%
%TO.N,GND*%
G36*
X37352050Y38613144D02*
G01*
X37513144Y38452050D01*
X37516571Y38443777D01*
X37513575Y38435960D01*
X37360230Y38265238D01*
X37334162Y38227297D01*
X37261164Y38121051D01*
X37247131Y38100627D01*
X37172538Y37945925D01*
X37127297Y37796681D01*
X37102256Y37648443D01*
X37102237Y37648239D01*
X37102236Y37648230D01*
X37088263Y37496762D01*
X37076182Y37337398D01*
X37076142Y37336973D01*
X37056861Y37165687D01*
X37056729Y37164818D01*
X37021158Y36977106D01*
X37020894Y36976004D01*
X36962139Y36774824D01*
X36956530Y36767843D01*
X36951137Y36766406D01*
X36853258Y36764493D01*
X35652955Y36741028D01*
X35644616Y36744293D01*
X35641028Y36752955D01*
X35666406Y38051137D01*
X35669994Y38059341D01*
X35674824Y38062139D01*
X35876004Y38120894D01*
X35877104Y38121157D01*
X36064822Y38156730D01*
X36065683Y38156860D01*
X36158038Y38167257D01*
X36236973Y38176142D01*
X36237398Y38176182D01*
X36396762Y38188263D01*
X36548230Y38202236D01*
X36548239Y38202237D01*
X36548443Y38202256D01*
X36696681Y38227297D01*
X36697030Y38227403D01*
X36697035Y38227404D01*
X36766950Y38248598D01*
X36845925Y38272538D01*
X37000627Y38347131D01*
X37000984Y38347376D01*
X37000987Y38347378D01*
X37074246Y38397712D01*
X37165238Y38460230D01*
X37335960Y38613575D01*
X37344403Y38616554D01*
X37352050Y38613144D01*
G37*
%TD.AperFunction*%
%TD*%
%TA.AperFunction,Conductor*%
%TO.N,GND*%
G36*
X90959730Y34433425D02*
G01*
X91021051Y34223456D01*
X91044445Y34099998D01*
X91044445Y34099997D01*
X91044670Y34098811D01*
X91056728Y34035180D01*
X91056860Y34034311D01*
X91076141Y33863025D01*
X91076181Y33862600D01*
X91085447Y33740369D01*
X91088262Y33703236D01*
X91102255Y33551555D01*
X91127296Y33403317D01*
X91172538Y33254073D01*
X91247131Y33099371D01*
X91247376Y33099014D01*
X91247378Y33099011D01*
X91285676Y33043270D01*
X91360230Y32934760D01*
X91433619Y32853056D01*
X91513575Y32764040D01*
X91516554Y32755596D01*
X91513144Y32747949D01*
X91352050Y32586855D01*
X91343777Y32583428D01*
X91335959Y32586424D01*
X91165525Y32739510D01*
X91165238Y32739768D01*
X91074246Y32802286D01*
X91000987Y32852620D01*
X91000984Y32852622D01*
X91000627Y32852867D01*
X90845925Y32927460D01*
X90766927Y32951408D01*
X90697035Y32972595D01*
X90697030Y32972596D01*
X90696681Y32972702D01*
X90548443Y32997743D01*
X90548239Y32997762D01*
X90548230Y32997763D01*
X90396762Y33011736D01*
X90237398Y33023817D01*
X90236973Y33023857D01*
X90158038Y33032742D01*
X90065683Y33043139D01*
X90064822Y33043269D01*
X89877104Y33078842D01*
X89876004Y33079105D01*
X89674824Y33137861D01*
X89667843Y33143470D01*
X89666406Y33148863D01*
X89654875Y33738737D01*
X89647813Y34100019D01*
X89647813Y34100030D01*
X89641124Y34442165D01*
X89641029Y34447046D01*
X89644294Y34455385D01*
X89650418Y34457921D01*
X89650335Y34458133D01*
X89652501Y34458981D01*
X90959730Y34433425D01*
G37*
%TD.AperFunction*%
%TD*%
%TA.AperFunction,Conductor*%
%TO.N,GND*%
G36*
X55552050Y44613144D02*
G01*
X55713144Y44452050D01*
X55716571Y44443777D01*
X55713575Y44435960D01*
X55560230Y44265238D01*
X55534162Y44227297D01*
X55461164Y44121051D01*
X55447131Y44100627D01*
X55372538Y43945925D01*
X55327297Y43796681D01*
X55302256Y43648443D01*
X55302237Y43648239D01*
X55302236Y43648230D01*
X55288263Y43496762D01*
X55276182Y43337398D01*
X55276142Y43336973D01*
X55256861Y43165687D01*
X55256729Y43164818D01*
X55221158Y42977106D01*
X55220894Y42976004D01*
X55162139Y42774824D01*
X55156530Y42767843D01*
X55151137Y42766406D01*
X55053258Y42764493D01*
X53852955Y42741028D01*
X53844616Y42744293D01*
X53841028Y42752955D01*
X53866406Y44051137D01*
X53869994Y44059341D01*
X53874824Y44062139D01*
X54076004Y44120894D01*
X54077104Y44121157D01*
X54264822Y44156730D01*
X54265683Y44156860D01*
X54358038Y44167257D01*
X54436973Y44176142D01*
X54437398Y44176182D01*
X54596762Y44188263D01*
X54748230Y44202236D01*
X54748239Y44202237D01*
X54748443Y44202256D01*
X54896681Y44227297D01*
X54897030Y44227403D01*
X54897035Y44227404D01*
X54966950Y44248598D01*
X55045925Y44272538D01*
X55200627Y44347131D01*
X55200984Y44347376D01*
X55200987Y44347378D01*
X55274246Y44397712D01*
X55365238Y44460230D01*
X55535960Y44613575D01*
X55544403Y44616554D01*
X55552050Y44613144D01*
G37*
%TD.AperFunction*%
%TD*%
%TA.AperFunction,Conductor*%
%TO.N,GND*%
G36*
X75581944Y-16336381D02*
G01*
X75743039Y-16497475D01*
X75746466Y-16505748D01*
X75743470Y-16513565D01*
X75590125Y-16684286D01*
X75564057Y-16722227D01*
X75491059Y-16828473D01*
X75477026Y-16848897D01*
X75402433Y-17003599D01*
X75357192Y-17152843D01*
X75332151Y-17301081D01*
X75332132Y-17301285D01*
X75332131Y-17301294D01*
X75318158Y-17452762D01*
X75306077Y-17612126D01*
X75306037Y-17612551D01*
X75286756Y-17783837D01*
X75286624Y-17784706D01*
X75251053Y-17972418D01*
X75250789Y-17973520D01*
X75192034Y-18174701D01*
X75186425Y-18181682D01*
X75181032Y-18183119D01*
X75083153Y-18185032D01*
X73882850Y-18208497D01*
X73874511Y-18205232D01*
X73870923Y-18196570D01*
X73896301Y-16898388D01*
X73899889Y-16890184D01*
X73904719Y-16887386D01*
X74105898Y-16828630D01*
X74106998Y-16828367D01*
X74294716Y-16792794D01*
X74295577Y-16792664D01*
X74387932Y-16782267D01*
X74466867Y-16773382D01*
X74467292Y-16773342D01*
X74626656Y-16761261D01*
X74778125Y-16747288D01*
X74778134Y-16747287D01*
X74778338Y-16747268D01*
X74926575Y-16722227D01*
X74926924Y-16722121D01*
X74926929Y-16722120D01*
X74996851Y-16700924D01*
X75075820Y-16676986D01*
X75230522Y-16602393D01*
X75230879Y-16602148D01*
X75230882Y-16602146D01*
X75371184Y-16505748D01*
X75395132Y-16489294D01*
X75565853Y-16335950D01*
X75574297Y-16332971D01*
X75581944Y-16336381D01*
G37*
%TD.AperFunction*%
%TD*%
%TA.AperFunction,Conductor*%
%TO.N,GND*%
G36*
X37352050Y4613144D02*
G01*
X37513144Y4452050D01*
X37516571Y4443777D01*
X37513575Y4435960D01*
X37360230Y4265238D01*
X37334162Y4227297D01*
X37261164Y4121051D01*
X37247131Y4100627D01*
X37172538Y3945925D01*
X37127297Y3796681D01*
X37102256Y3648443D01*
X37102237Y3648239D01*
X37102236Y3648230D01*
X37088263Y3496762D01*
X37076182Y3337398D01*
X37076142Y3336973D01*
X37056861Y3165687D01*
X37056729Y3164818D01*
X37021158Y2977106D01*
X37020894Y2976004D01*
X36962139Y2774824D01*
X36956530Y2767843D01*
X36951137Y2766406D01*
X36853258Y2764493D01*
X35652955Y2741028D01*
X35644616Y2744293D01*
X35641028Y2752955D01*
X35666406Y4051137D01*
X35669994Y4059341D01*
X35674824Y4062139D01*
X35876004Y4120894D01*
X35877104Y4121157D01*
X36064822Y4156730D01*
X36065683Y4156860D01*
X36158038Y4167257D01*
X36236973Y4176142D01*
X36237398Y4176182D01*
X36396762Y4188263D01*
X36548230Y4202236D01*
X36548239Y4202237D01*
X36548443Y4202256D01*
X36696681Y4227297D01*
X36697030Y4227403D01*
X36697035Y4227404D01*
X36766950Y4248598D01*
X36845925Y4272538D01*
X37000627Y4347131D01*
X37000984Y4347376D01*
X37000987Y4347378D01*
X37074246Y4397712D01*
X37165238Y4460230D01*
X37335960Y4613575D01*
X37344403Y4616554D01*
X37352050Y4613144D01*
G37*
%TD.AperFunction*%
%TD*%
%TA.AperFunction,Conductor*%
%TO.N,GND*%
G36*
X98651520Y-21530726D02*
G01*
X98761475Y-21729772D01*
X98762476Y-21738670D01*
X98757458Y-21745336D01*
X98544827Y-21878918D01*
X98521796Y-21893387D01*
X98521476Y-21893657D01*
X98380163Y-22012899D01*
X98338151Y-22048349D01*
X98205205Y-22206900D01*
X98112275Y-22371602D01*
X98048678Y-22545016D01*
X98003733Y-22729704D01*
X98003703Y-22729867D01*
X98003702Y-22729870D01*
X97966756Y-22928229D01*
X97927112Y-23142903D01*
X97927017Y-23143368D01*
X97874069Y-23376636D01*
X97873859Y-23377430D01*
X97799275Y-23624291D01*
X97793602Y-23631219D01*
X97788304Y-23632605D01*
X96490039Y-23657986D01*
X96481700Y-23654721D01*
X96478112Y-23646059D01*
X96503496Y-22347534D01*
X96507084Y-22339330D01*
X96511484Y-22336667D01*
X96769614Y-22250356D01*
X96769859Y-22250277D01*
X96909743Y-22206900D01*
X96998556Y-22179360D01*
X96998643Y-22179334D01*
X97199898Y-22120216D01*
X97199900Y-22120222D01*
X97199920Y-22120210D01*
X97284104Y-22095670D01*
X97383155Y-22066796D01*
X97383243Y-22066770D01*
X97383325Y-22066745D01*
X97558120Y-22012899D01*
X97558276Y-22012851D01*
X97734630Y-21952300D01*
X97921940Y-21878959D01*
X98129839Y-21786671D01*
X98129914Y-21786634D01*
X98129927Y-21786628D01*
X98245254Y-21729772D01*
X98367961Y-21669278D01*
X98501250Y-21597999D01*
X98635762Y-21526066D01*
X98644673Y-21525186D01*
X98651520Y-21530726D01*
G37*
%TD.AperFunction*%
%TD*%
%TA.AperFunction,Conductor*%
%TO.N,P3*%
G36*
X86429096Y21008408D02*
G01*
X86632159Y20905775D01*
X86637997Y20898985D01*
X86637415Y20890241D01*
X86514135Y20635224D01*
X86415542Y20407590D01*
X86415502Y20407483D01*
X86415500Y20407479D01*
X86348169Y20229013D01*
X86340506Y20208703D01*
X86282895Y20029575D01*
X86236576Y19861222D01*
X86236547Y19861103D01*
X86236544Y19861093D01*
X86195416Y19694658D01*
X86153304Y19520981D01*
X86153259Y19520802D01*
X86104089Y19331112D01*
X86103999Y19330785D01*
X86041627Y19116026D01*
X86041507Y19115639D01*
X85962319Y18874460D01*
X85956482Y18867669D01*
X85951432Y18866412D01*
X84652955Y18841028D01*
X84644616Y18844293D01*
X84641028Y18852955D01*
X84650375Y19331112D01*
X84666406Y20151157D01*
X84669994Y20159360D01*
X84674801Y20162151D01*
X84901547Y20228875D01*
X84902493Y20229111D01*
X85119608Y20273761D01*
X85120198Y20273867D01*
X85264178Y20295869D01*
X85321821Y20304677D01*
X85361071Y20310416D01*
X85509165Y20332071D01*
X85509182Y20332074D01*
X85509319Y20332094D01*
X85683968Y20366589D01*
X85684276Y20366687D01*
X85684283Y20366689D01*
X85846852Y20418526D01*
X85846855Y20418527D01*
X85847334Y20418680D01*
X86000984Y20498886D01*
X86146484Y20617723D01*
X86285400Y20785708D01*
X86413733Y21003898D01*
X86420881Y21009291D01*
X86429096Y21008408D01*
G37*
%TD.AperFunction*%
%TD*%
%TA.AperFunction,Conductor*%
%TO.N,P18*%
G36*
X32429088Y24008416D02*
G01*
X32632151Y23905783D01*
X32637989Y23898993D01*
X32637407Y23890249D01*
X32514126Y23635232D01*
X32415533Y23407597D01*
X32415493Y23407490D01*
X32415491Y23407486D01*
X32365041Y23273762D01*
X32340498Y23208709D01*
X32282888Y23029581D01*
X32236570Y22861227D01*
X32236541Y22861108D01*
X32236538Y22861098D01*
X32195413Y22694662D01*
X32153302Y22520983D01*
X32153257Y22520804D01*
X32104088Y22331114D01*
X32103998Y22330787D01*
X32041627Y22116027D01*
X32041507Y22115640D01*
X31962319Y21874460D01*
X31956482Y21867669D01*
X31951432Y21866412D01*
X30652955Y21841028D01*
X30644616Y21844293D01*
X30641028Y21852955D01*
X30660736Y22861098D01*
X30666406Y23151157D01*
X30669994Y23159360D01*
X30674801Y23162151D01*
X30901546Y23228875D01*
X30902492Y23229111D01*
X31119607Y23273762D01*
X31120197Y23273868D01*
X31264363Y23295899D01*
X31321818Y23304679D01*
X31361058Y23310417D01*
X31509161Y23332074D01*
X31509178Y23332077D01*
X31509315Y23332097D01*
X31683963Y23366594D01*
X31684277Y23366694D01*
X31846846Y23418533D01*
X31846849Y23418534D01*
X31847328Y23418687D01*
X32000977Y23498893D01*
X32146476Y23617731D01*
X32285392Y23785717D01*
X32352962Y23900598D01*
X32413725Y24003906D01*
X32420873Y24009299D01*
X32429088Y24008416D01*
G37*
%TD.AperFunction*%
%TD*%
%TA.AperFunction,Conductor*%
%TO.N,GND*%
G36*
X55552050Y44613144D02*
G01*
X55713144Y44452050D01*
X55716571Y44443777D01*
X55713575Y44435960D01*
X55560230Y44265238D01*
X55534162Y44227297D01*
X55461164Y44121051D01*
X55447131Y44100627D01*
X55372538Y43945925D01*
X55327297Y43796681D01*
X55302256Y43648443D01*
X55302237Y43648239D01*
X55302236Y43648230D01*
X55288263Y43496762D01*
X55276182Y43337398D01*
X55276142Y43336973D01*
X55256861Y43165687D01*
X55256729Y43164818D01*
X55221158Y42977106D01*
X55220894Y42976004D01*
X55162139Y42774824D01*
X55156530Y42767843D01*
X55151137Y42766406D01*
X55053258Y42764493D01*
X53852955Y42741028D01*
X53844616Y42744293D01*
X53841028Y42752955D01*
X53866406Y44051137D01*
X53869994Y44059341D01*
X53874824Y44062139D01*
X54076004Y44120894D01*
X54077104Y44121157D01*
X54264822Y44156730D01*
X54265683Y44156860D01*
X54358038Y44167257D01*
X54436973Y44176142D01*
X54437398Y44176182D01*
X54596762Y44188263D01*
X54748230Y44202236D01*
X54748239Y44202237D01*
X54748443Y44202256D01*
X54896681Y44227297D01*
X54897030Y44227403D01*
X54897035Y44227404D01*
X54966950Y44248598D01*
X55045925Y44272538D01*
X55200627Y44347131D01*
X55200984Y44347376D01*
X55200987Y44347378D01*
X55274246Y44397712D01*
X55365238Y44460230D01*
X55535960Y44613575D01*
X55544403Y44616554D01*
X55552050Y44613144D01*
G37*
%TD.AperFunction*%
%TD*%
%TA.AperFunction,Conductor*%
%TO.N,P20*%
G36*
X42666282Y40389267D02*
G01*
X42670428Y40381286D01*
X42689665Y40154477D01*
X42686950Y40145944D01*
X42680103Y40141977D01*
X42622037Y40131404D01*
X42490441Y40107441D01*
X42490439Y40107440D01*
X42489712Y40107308D01*
X42342340Y40039186D01*
X42238819Y39943179D01*
X42169520Y39822952D01*
X42124814Y39682169D01*
X42095072Y39524495D01*
X42095050Y39524341D01*
X42070685Y39353734D01*
X42070658Y39353550D01*
X42042025Y39173512D01*
X42041875Y39172741D01*
X41999489Y38987421D01*
X41999124Y38986156D01*
X41936068Y38806456D01*
X41930095Y38799784D01*
X41924412Y38798646D01*
X41252469Y38834078D01*
X40629602Y38866922D01*
X40621522Y38870780D01*
X40618535Y38879222D01*
X40618797Y38881140D01*
X40854411Y39943179D01*
X40912275Y40204003D01*
X40917412Y40211338D01*
X40922659Y40213123D01*
X41128810Y40231462D01*
X41311376Y40249359D01*
X41470608Y40266419D01*
X41615285Y40283007D01*
X41754190Y40299486D01*
X41754190Y40299483D01*
X41754198Y40299487D01*
X41896045Y40316213D01*
X41896102Y40316220D01*
X42049713Y40333562D01*
X42049802Y40333572D01*
X42224070Y40351908D01*
X42427688Y40371591D01*
X42427783Y40371599D01*
X42582274Y40385272D01*
X42657739Y40391951D01*
X42666282Y40389267D01*
G37*
%TD.AperFunction*%
%TD*%
%TA.AperFunction,Conductor*%
%TO.N,GND*%
G36*
X55552050Y10613144D02*
G01*
X55713144Y10452050D01*
X55716571Y10443777D01*
X55713575Y10435960D01*
X55560230Y10265238D01*
X55534162Y10227297D01*
X55461164Y10121051D01*
X55447131Y10100627D01*
X55372538Y9945925D01*
X55327297Y9796681D01*
X55302256Y9648443D01*
X55302237Y9648239D01*
X55302236Y9648230D01*
X55288263Y9496762D01*
X55276182Y9337398D01*
X55276142Y9336973D01*
X55256861Y9165687D01*
X55256729Y9164818D01*
X55221158Y8977106D01*
X55220894Y8976004D01*
X55162139Y8774824D01*
X55156530Y8767843D01*
X55151137Y8766406D01*
X55053258Y8764493D01*
X53852955Y8741028D01*
X53844616Y8744293D01*
X53841028Y8752955D01*
X53866406Y10051137D01*
X53869994Y10059341D01*
X53874824Y10062139D01*
X54076004Y10120894D01*
X54077104Y10121157D01*
X54264822Y10156730D01*
X54265683Y10156860D01*
X54358038Y10167257D01*
X54436973Y10176142D01*
X54437398Y10176182D01*
X54596762Y10188263D01*
X54748230Y10202236D01*
X54748239Y10202237D01*
X54748443Y10202256D01*
X54896681Y10227297D01*
X54897030Y10227403D01*
X54897035Y10227404D01*
X54966950Y10248598D01*
X55045925Y10272538D01*
X55200627Y10347131D01*
X55200984Y10347376D01*
X55200987Y10347378D01*
X55274246Y10397712D01*
X55365238Y10460230D01*
X55535960Y10613575D01*
X55544403Y10616554D01*
X55552050Y10613144D01*
G37*
%TD.AperFunction*%
%TD*%
%TA.AperFunction,Conductor*%
%TO.N,GND*%
G36*
X73352050Y4613144D02*
G01*
X73513144Y4452050D01*
X73516571Y4443777D01*
X73513575Y4435960D01*
X73360230Y4265238D01*
X73334162Y4227297D01*
X73261164Y4121051D01*
X73247131Y4100627D01*
X73172538Y3945925D01*
X73127297Y3796681D01*
X73102256Y3648443D01*
X73102237Y3648239D01*
X73102236Y3648230D01*
X73088263Y3496762D01*
X73076182Y3337398D01*
X73076142Y3336973D01*
X73056861Y3165687D01*
X73056729Y3164818D01*
X73021158Y2977106D01*
X73020894Y2976004D01*
X72962139Y2774824D01*
X72956530Y2767843D01*
X72951137Y2766406D01*
X72853258Y2764493D01*
X71652955Y2741028D01*
X71644616Y2744293D01*
X71641028Y2752955D01*
X71666406Y4051137D01*
X71669994Y4059341D01*
X71674824Y4062139D01*
X71876004Y4120894D01*
X71877104Y4121157D01*
X72064822Y4156730D01*
X72065683Y4156860D01*
X72158038Y4167257D01*
X72236973Y4176142D01*
X72237398Y4176182D01*
X72396762Y4188263D01*
X72548230Y4202236D01*
X72548239Y4202237D01*
X72548443Y4202256D01*
X72696681Y4227297D01*
X72697030Y4227403D01*
X72697035Y4227404D01*
X72766950Y4248598D01*
X72845925Y4272538D01*
X73000627Y4347131D01*
X73000984Y4347376D01*
X73000987Y4347378D01*
X73074246Y4397712D01*
X73165238Y4460230D01*
X73335960Y4613575D01*
X73344403Y4616554D01*
X73352050Y4613144D01*
G37*
%TD.AperFunction*%
%TD*%
%TA.AperFunction,Conductor*%
%TO.N,GND*%
G36*
X19352050Y29613144D02*
G01*
X19513144Y29452050D01*
X19516571Y29443777D01*
X19513575Y29435960D01*
X19360230Y29265238D01*
X19334162Y29227297D01*
X19261164Y29121051D01*
X19247131Y29100627D01*
X19172538Y28945925D01*
X19127297Y28796681D01*
X19102256Y28648443D01*
X19102237Y28648239D01*
X19102236Y28648230D01*
X19088263Y28496762D01*
X19076182Y28337398D01*
X19076142Y28336973D01*
X19056861Y28165687D01*
X19056729Y28164818D01*
X19021158Y27977106D01*
X19020894Y27976004D01*
X18962139Y27774824D01*
X18956530Y27767843D01*
X18951137Y27766406D01*
X18853258Y27764493D01*
X17652955Y27741028D01*
X17644616Y27744293D01*
X17641028Y27752955D01*
X17666406Y29051137D01*
X17669994Y29059341D01*
X17674824Y29062139D01*
X17876004Y29120894D01*
X17877104Y29121157D01*
X18064822Y29156730D01*
X18065683Y29156860D01*
X18158038Y29167257D01*
X18236973Y29176142D01*
X18237398Y29176182D01*
X18396762Y29188263D01*
X18548230Y29202236D01*
X18548239Y29202237D01*
X18548443Y29202256D01*
X18696681Y29227297D01*
X18697030Y29227403D01*
X18697035Y29227404D01*
X18766950Y29248598D01*
X18845925Y29272538D01*
X19000627Y29347131D01*
X19000984Y29347376D01*
X19000987Y29347378D01*
X19074246Y29397712D01*
X19165238Y29460230D01*
X19335960Y29613575D01*
X19344403Y29616554D01*
X19352050Y29613144D01*
G37*
%TD.AperFunction*%
%TD*%
%TA.AperFunction,Conductor*%
%TO.N,P10*%
G36*
X94373370Y-17932306D02*
G01*
X94534464Y-18093400D01*
X94537891Y-18101673D01*
X94534895Y-18109490D01*
X94381550Y-18280211D01*
X94338302Y-18343157D01*
X94282484Y-18424398D01*
X94268451Y-18444822D01*
X94193858Y-18599524D01*
X94148617Y-18748768D01*
X94123576Y-18897006D01*
X94123557Y-18897210D01*
X94123556Y-18897219D01*
X94109583Y-19048687D01*
X94097502Y-19208051D01*
X94097462Y-19208476D01*
X94078181Y-19379762D01*
X94078049Y-19380631D01*
X94042478Y-19568343D01*
X94042214Y-19569445D01*
X93983459Y-19770626D01*
X93977850Y-19777607D01*
X93972457Y-19779044D01*
X93874578Y-19780957D01*
X92674275Y-19804422D01*
X92665936Y-19801157D01*
X92662348Y-19792495D01*
X92687726Y-18494313D01*
X92691314Y-18486109D01*
X92696144Y-18483311D01*
X92897324Y-18424555D01*
X92898424Y-18424292D01*
X93086142Y-18388719D01*
X93087003Y-18388589D01*
X93179358Y-18378192D01*
X93258293Y-18369307D01*
X93258718Y-18369267D01*
X93418082Y-18357186D01*
X93569550Y-18343213D01*
X93569559Y-18343212D01*
X93569763Y-18343193D01*
X93718001Y-18318153D01*
X93718350Y-18318047D01*
X93718355Y-18318046D01*
X93788247Y-18296859D01*
X93867245Y-18272911D01*
X94021947Y-18198318D01*
X94022304Y-18198073D01*
X94022307Y-18198071D01*
X94151231Y-18109491D01*
X94186558Y-18085219D01*
X94357279Y-17931875D01*
X94365723Y-17928896D01*
X94373370Y-17932306D01*
G37*
%TD.AperFunction*%
%TD*%
%TA.AperFunction,Conductor*%
%TO.N,GND*%
G36*
X19352050Y-4386856D02*
G01*
X19513144Y-4547950D01*
X19516571Y-4556223D01*
X19513575Y-4564040D01*
X19360230Y-4734761D01*
X19316982Y-4797707D01*
X19261164Y-4878948D01*
X19247131Y-4899372D01*
X19172538Y-5054074D01*
X19127297Y-5203318D01*
X19102256Y-5351556D01*
X19102237Y-5351760D01*
X19102236Y-5351769D01*
X19088263Y-5503237D01*
X19076182Y-5662601D01*
X19076142Y-5663026D01*
X19056861Y-5834312D01*
X19056729Y-5835181D01*
X19021158Y-6022893D01*
X19020894Y-6023995D01*
X18962139Y-6225176D01*
X18956530Y-6232157D01*
X18951137Y-6233594D01*
X18853258Y-6235507D01*
X17652955Y-6258972D01*
X17644616Y-6255707D01*
X17641028Y-6247045D01*
X17666406Y-4948863D01*
X17669994Y-4940659D01*
X17674824Y-4937861D01*
X17876004Y-4879105D01*
X17877104Y-4878842D01*
X18064822Y-4843269D01*
X18065683Y-4843139D01*
X18158038Y-4832742D01*
X18236973Y-4823857D01*
X18237398Y-4823817D01*
X18396762Y-4811736D01*
X18548230Y-4797763D01*
X18548239Y-4797762D01*
X18548443Y-4797743D01*
X18696681Y-4772703D01*
X18697030Y-4772597D01*
X18697035Y-4772596D01*
X18766927Y-4751409D01*
X18845925Y-4727461D01*
X19000627Y-4652868D01*
X19000984Y-4652623D01*
X19000987Y-4652621D01*
X19129911Y-4564041D01*
X19165238Y-4539769D01*
X19335959Y-4386425D01*
X19344403Y-4383446D01*
X19352050Y-4386856D01*
G37*
%TD.AperFunction*%
%TD*%
%TA.AperFunction,Conductor*%
%TO.N,pos*%
G36*
X103490233Y-6681808D02*
G01*
X103547981Y-6712420D01*
X103572095Y-6725203D01*
X103572772Y-6725591D01*
X103648057Y-6772256D01*
X103648516Y-6772556D01*
X103714359Y-6817772D01*
X103714484Y-6817859D01*
X103774923Y-6860525D01*
X103775018Y-6860592D01*
X103775121Y-6860660D01*
X103834024Y-6899542D01*
X103834030Y-6899546D01*
X103834223Y-6899673D01*
X103896191Y-6934008D01*
X103896493Y-6934133D01*
X103896497Y-6934135D01*
X103923989Y-6945523D01*
X103965078Y-6962544D01*
X104016502Y-6976490D01*
X104044689Y-6984134D01*
X104044692Y-6984135D01*
X104045040Y-6984229D01*
X104140230Y-6998012D01*
X104203811Y-7000691D01*
X104243598Y-7002368D01*
X104251719Y-7006141D01*
X104254805Y-7014058D01*
X104254805Y-7241622D01*
X104251378Y-7249895D01*
X104243598Y-7253312D01*
X104209912Y-7254731D01*
X104140230Y-7257667D01*
X104045040Y-7271450D01*
X104044692Y-7271544D01*
X104044689Y-7271545D01*
X104016502Y-7279189D01*
X103965078Y-7293135D01*
X103923989Y-7310156D01*
X103896497Y-7321544D01*
X103896493Y-7321546D01*
X103896191Y-7321671D01*
X103834223Y-7356006D01*
X103834030Y-7356133D01*
X103834024Y-7356137D01*
X103775121Y-7395019D01*
X103775018Y-7395087D01*
X103774926Y-7395152D01*
X103774923Y-7395154D01*
X103714484Y-7437820D01*
X103714359Y-7437907D01*
X103648516Y-7483123D01*
X103648057Y-7483423D01*
X103572772Y-7530088D01*
X103572094Y-7530476D01*
X103545931Y-7544346D01*
X103490233Y-7573872D01*
X103481318Y-7574719D01*
X103476643Y-7571968D01*
X103251949Y-7355890D01*
X103023574Y-7136273D01*
X103019986Y-7128069D01*
X103023574Y-7119407D01*
X103164143Y-6984229D01*
X103384256Y-6772556D01*
X103476643Y-6683712D01*
X103484982Y-6680447D01*
X103490233Y-6681808D01*
G37*
%TD.AperFunction*%
%TD*%
%TA.AperFunction,Conductor*%
%TO.N,GND*%
G36*
X55552050Y27613144D02*
G01*
X55713144Y27452050D01*
X55716571Y27443777D01*
X55713575Y27435960D01*
X55560230Y27265238D01*
X55534162Y27227297D01*
X55461164Y27121051D01*
X55447131Y27100627D01*
X55372538Y26945925D01*
X55327297Y26796681D01*
X55302256Y26648443D01*
X55302237Y26648239D01*
X55302236Y26648230D01*
X55288263Y26496762D01*
X55276182Y26337398D01*
X55276142Y26336973D01*
X55256861Y26165687D01*
X55256729Y26164818D01*
X55221158Y25977106D01*
X55220894Y25976004D01*
X55162139Y25774824D01*
X55156530Y25767843D01*
X55151137Y25766406D01*
X55053258Y25764493D01*
X53852955Y25741028D01*
X53844616Y25744293D01*
X53841028Y25752955D01*
X53866406Y27051137D01*
X53869994Y27059341D01*
X53874824Y27062139D01*
X54076004Y27120894D01*
X54077104Y27121157D01*
X54264822Y27156730D01*
X54265683Y27156860D01*
X54358038Y27167257D01*
X54436973Y27176142D01*
X54437398Y27176182D01*
X54596762Y27188263D01*
X54748230Y27202236D01*
X54748239Y27202237D01*
X54748443Y27202256D01*
X54896681Y27227297D01*
X54897030Y27227403D01*
X54897035Y27227404D01*
X54966950Y27248598D01*
X55045925Y27272538D01*
X55200627Y27347131D01*
X55200984Y27347376D01*
X55200987Y27347378D01*
X55274246Y27397712D01*
X55365238Y27460230D01*
X55535960Y27613575D01*
X55544403Y27616554D01*
X55552050Y27613144D01*
G37*
%TD.AperFunction*%
%TD*%
%TA.AperFunction,Conductor*%
%TO.N,P19*%
G36*
X77008433Y22699231D02*
G01*
X77908442Y21763331D01*
X77911707Y21754992D01*
X77910270Y21749599D01*
X77809563Y21565800D01*
X77808971Y21564834D01*
X77701382Y21406940D01*
X77700860Y21406232D01*
X77593376Y21271478D01*
X77593109Y21271156D01*
X77488965Y21149927D01*
X77391604Y21032777D01*
X77391476Y21032597D01*
X77304700Y20910546D01*
X77304695Y20910538D01*
X77304491Y20910251D01*
X77230950Y20772729D01*
X77174305Y20610592D01*
X77137880Y20414222D01*
X77137860Y20413847D01*
X77125594Y20185074D01*
X77121729Y20176996D01*
X77113911Y20174000D01*
X76886089Y20174000D01*
X76877816Y20177427D01*
X76874406Y20185074D01*
X76862139Y20413847D01*
X76862119Y20414222D01*
X76825694Y20610592D01*
X76769049Y20772729D01*
X76695508Y20910251D01*
X76695304Y20910538D01*
X76695299Y20910546D01*
X76608523Y21032597D01*
X76608395Y21032777D01*
X76511034Y21149927D01*
X76406890Y21271156D01*
X76406623Y21271478D01*
X76299139Y21406232D01*
X76298617Y21406940D01*
X76191028Y21564834D01*
X76190436Y21565800D01*
X76089730Y21749599D01*
X76088760Y21758501D01*
X76091558Y21763331D01*
X76991567Y22699231D01*
X76999771Y22702819D01*
X77008433Y22699231D01*
G37*
%TD.AperFunction*%
%TD*%
%TA.AperFunction,Conductor*%
%TO.N,GND*%
G36*
X73352050Y21613144D02*
G01*
X73513144Y21452050D01*
X73516571Y21443777D01*
X73513575Y21435960D01*
X73360230Y21265238D01*
X73334162Y21227297D01*
X73261164Y21121051D01*
X73247131Y21100627D01*
X73172538Y20945925D01*
X73127297Y20796681D01*
X73102256Y20648443D01*
X73102237Y20648239D01*
X73102236Y20648230D01*
X73088263Y20496762D01*
X73076182Y20337398D01*
X73076142Y20336973D01*
X73056861Y20165687D01*
X73056729Y20164818D01*
X73021158Y19977106D01*
X73020894Y19976004D01*
X72962139Y19774824D01*
X72956530Y19767843D01*
X72951137Y19766406D01*
X72853258Y19764493D01*
X71652955Y19741028D01*
X71644616Y19744293D01*
X71641028Y19752955D01*
X71666406Y21051137D01*
X71669994Y21059341D01*
X71674824Y21062139D01*
X71876004Y21120894D01*
X71877104Y21121157D01*
X72064822Y21156730D01*
X72065683Y21156860D01*
X72158038Y21167257D01*
X72236973Y21176142D01*
X72237398Y21176182D01*
X72396762Y21188263D01*
X72548230Y21202236D01*
X72548239Y21202237D01*
X72548443Y21202256D01*
X72696681Y21227297D01*
X72697030Y21227403D01*
X72697035Y21227404D01*
X72766950Y21248598D01*
X72845925Y21272538D01*
X73000627Y21347131D01*
X73000984Y21347376D01*
X73000987Y21347378D01*
X73074246Y21397712D01*
X73165238Y21460230D01*
X73335960Y21613575D01*
X73344403Y21616554D01*
X73352050Y21613144D01*
G37*
%TD.AperFunction*%
%TD*%
%TA.AperFunction,Conductor*%
%TO.N,P8*%
G36*
X14429089Y-1991582D02*
G01*
X14632152Y-2094215D01*
X14637990Y-2101005D01*
X14637408Y-2109749D01*
X14514127Y-2364766D01*
X14415534Y-2592400D01*
X14415494Y-2592507D01*
X14415492Y-2592511D01*
X14387050Y-2667901D01*
X14340499Y-2791288D01*
X14282888Y-2970417D01*
X14236570Y-3138771D01*
X14236541Y-3138890D01*
X14236538Y-3138900D01*
X14195413Y-3305336D01*
X14153302Y-3479014D01*
X14153257Y-3479193D01*
X14104087Y-3668884D01*
X14103997Y-3669211D01*
X14041627Y-3883971D01*
X14041507Y-3884358D01*
X13962319Y-4125539D01*
X13956482Y-4132330D01*
X13951432Y-4133587D01*
X12652956Y-4158972D01*
X12644617Y-4155707D01*
X12641029Y-4147045D01*
X12660739Y-3138771D01*
X12666406Y-2848843D01*
X12669994Y-2840640D01*
X12674801Y-2837849D01*
X12901546Y-2771124D01*
X12902492Y-2770888D01*
X13119607Y-2726237D01*
X13120197Y-2726131D01*
X13264484Y-2704081D01*
X13321819Y-2695319D01*
X13361059Y-2689581D01*
X13509162Y-2667924D01*
X13509179Y-2667921D01*
X13509316Y-2667901D01*
X13510376Y-2667692D01*
X13683632Y-2633471D01*
X13683639Y-2633469D01*
X13683964Y-2633405D01*
X13847329Y-2581311D01*
X13847771Y-2581080D01*
X13847774Y-2581079D01*
X13896964Y-2555401D01*
X14000978Y-2501104D01*
X14146477Y-2382267D01*
X14285393Y-2214281D01*
X14352963Y-2099400D01*
X14413726Y-1996092D01*
X14420874Y-1990699D01*
X14429089Y-1991582D01*
G37*
%TD.AperFunction*%
%TD*%
%TA.AperFunction,Conductor*%
%TO.N,P15*%
G36*
X77607101Y6014664D02*
G01*
X77747407Y5910971D01*
X77777972Y5888382D01*
X77928143Y5775150D01*
X78058284Y5675039D01*
X78175905Y5583066D01*
X78288512Y5494248D01*
X78403617Y5403601D01*
X78528727Y5306144D01*
X78671352Y5196891D01*
X78671360Y5196885D01*
X78839000Y5070861D01*
X79029805Y4929993D01*
X79034426Y4922322D01*
X79032297Y4913670D01*
X78897782Y4729976D01*
X78890130Y4725327D01*
X78882329Y4726855D01*
X78713052Y4828336D01*
X78554095Y4877275D01*
X78553220Y4877275D01*
X78480541Y4877241D01*
X78409677Y4877209D01*
X78274869Y4837161D01*
X78144741Y4766154D01*
X78014361Y4673212D01*
X78014287Y4673155D01*
X78014284Y4673152D01*
X77878863Y4567407D01*
X77878702Y4567284D01*
X77806891Y4513184D01*
X77733444Y4457852D01*
X77732810Y4457407D01*
X77572957Y4353358D01*
X77571829Y4352712D01*
X77456658Y4295058D01*
X77399568Y4266479D01*
X77390636Y4265840D01*
X77385768Y4268968D01*
X76501849Y5218283D01*
X76498719Y5226673D01*
X76502439Y5234819D01*
X76503608Y5235774D01*
X76738456Y5403655D01*
X77593343Y6014773D01*
X77602066Y6016797D01*
X77607101Y6014664D01*
G37*
%TD.AperFunction*%
%TD*%
%TA.AperFunction,Conductor*%
%TO.N,GND*%
G36*
X37352050Y38613144D02*
G01*
X37513144Y38452050D01*
X37516571Y38443777D01*
X37513575Y38435960D01*
X37360230Y38265238D01*
X37334162Y38227297D01*
X37261164Y38121051D01*
X37247131Y38100627D01*
X37172538Y37945925D01*
X37127297Y37796681D01*
X37102256Y37648443D01*
X37102237Y37648239D01*
X37102236Y37648230D01*
X37088263Y37496762D01*
X37076182Y37337398D01*
X37076142Y37336973D01*
X37056861Y37165687D01*
X37056729Y37164818D01*
X37021158Y36977106D01*
X37020894Y36976004D01*
X36962139Y36774824D01*
X36956530Y36767843D01*
X36951137Y36766406D01*
X36853258Y36764493D01*
X35652955Y36741028D01*
X35644616Y36744293D01*
X35641028Y36752955D01*
X35666406Y38051137D01*
X35669994Y38059341D01*
X35674824Y38062139D01*
X35876004Y38120894D01*
X35877104Y38121157D01*
X36064822Y38156730D01*
X36065683Y38156860D01*
X36158038Y38167257D01*
X36236973Y38176142D01*
X36237398Y38176182D01*
X36396762Y38188263D01*
X36548230Y38202236D01*
X36548239Y38202237D01*
X36548443Y38202256D01*
X36696681Y38227297D01*
X36697030Y38227403D01*
X36697035Y38227404D01*
X36766950Y38248598D01*
X36845925Y38272538D01*
X37000627Y38347131D01*
X37000984Y38347376D01*
X37000987Y38347378D01*
X37074246Y38397712D01*
X37165238Y38460230D01*
X37335960Y38613575D01*
X37344403Y38616554D01*
X37352050Y38613144D01*
G37*
%TD.AperFunction*%
%TD*%
%TA.AperFunction,Conductor*%
%TO.N,GND*%
G36*
X91352050Y18613144D02*
G01*
X91513144Y18452050D01*
X91516571Y18443777D01*
X91513575Y18435960D01*
X91360230Y18265238D01*
X91334162Y18227297D01*
X91261164Y18121051D01*
X91247131Y18100627D01*
X91172538Y17945925D01*
X91127297Y17796681D01*
X91102256Y17648443D01*
X91102237Y17648239D01*
X91102236Y17648230D01*
X91088263Y17496762D01*
X91076182Y17337398D01*
X91076142Y17336973D01*
X91056861Y17165687D01*
X91056729Y17164818D01*
X91021158Y16977106D01*
X91020894Y16976004D01*
X90962139Y16774824D01*
X90956530Y16767843D01*
X90951137Y16766406D01*
X90853258Y16764493D01*
X89652955Y16741028D01*
X89644616Y16744293D01*
X89641028Y16752955D01*
X89666406Y18051137D01*
X89669994Y18059341D01*
X89674824Y18062139D01*
X89876004Y18120894D01*
X89877104Y18121157D01*
X90064822Y18156730D01*
X90065683Y18156860D01*
X90158038Y18167257D01*
X90236973Y18176142D01*
X90237398Y18176182D01*
X90396762Y18188263D01*
X90548230Y18202236D01*
X90548239Y18202237D01*
X90548443Y18202256D01*
X90696681Y18227297D01*
X90697030Y18227403D01*
X90697035Y18227404D01*
X90766950Y18248598D01*
X90845925Y18272538D01*
X91000627Y18347131D01*
X91000984Y18347376D01*
X91000987Y18347378D01*
X91074246Y18397712D01*
X91165238Y18460230D01*
X91335960Y18613575D01*
X91344403Y18616554D01*
X91352050Y18613144D01*
G37*
%TD.AperFunction*%
%TD*%
%TA.AperFunction,Conductor*%
%TO.N,GND*%
G36*
X73352050Y21613144D02*
G01*
X73513144Y21452050D01*
X73516571Y21443777D01*
X73513575Y21435960D01*
X73360230Y21265238D01*
X73334162Y21227297D01*
X73261164Y21121051D01*
X73247131Y21100627D01*
X73172538Y20945925D01*
X73127297Y20796681D01*
X73102256Y20648443D01*
X73102237Y20648239D01*
X73102236Y20648230D01*
X73088263Y20496762D01*
X73076182Y20337398D01*
X73076142Y20336973D01*
X73056861Y20165687D01*
X73056729Y20164818D01*
X73021158Y19977106D01*
X73020894Y19976004D01*
X72962139Y19774824D01*
X72956530Y19767843D01*
X72951137Y19766406D01*
X72853258Y19764493D01*
X71652955Y19741028D01*
X71644616Y19744293D01*
X71641028Y19752955D01*
X71666406Y21051137D01*
X71669994Y21059341D01*
X71674824Y21062139D01*
X71876004Y21120894D01*
X71877104Y21121157D01*
X72064822Y21156730D01*
X72065683Y21156860D01*
X72158038Y21167257D01*
X72236973Y21176142D01*
X72237398Y21176182D01*
X72396762Y21188263D01*
X72548230Y21202236D01*
X72548239Y21202237D01*
X72548443Y21202256D01*
X72696681Y21227297D01*
X72697030Y21227403D01*
X72697035Y21227404D01*
X72766950Y21248598D01*
X72845925Y21272538D01*
X73000627Y21347131D01*
X73000984Y21347376D01*
X73000987Y21347378D01*
X73074246Y21397712D01*
X73165238Y21460230D01*
X73335960Y21613575D01*
X73344403Y21616554D01*
X73352050Y21613144D01*
G37*
%TD.AperFunction*%
%TD*%
%TA.AperFunction,Conductor*%
%TO.N,P9*%
G36*
X70898826Y-13601715D02*
G01*
X71059920Y-13762809D01*
X71063347Y-13771082D01*
X71060351Y-13778899D01*
X70907006Y-13949620D01*
X70863719Y-14012623D01*
X70808013Y-14093701D01*
X70793907Y-14114231D01*
X70719314Y-14268933D01*
X70674072Y-14418177D01*
X70649031Y-14566415D01*
X70649012Y-14566619D01*
X70649011Y-14566628D01*
X70635038Y-14718096D01*
X70622957Y-14877460D01*
X70622917Y-14877885D01*
X70603636Y-15049171D01*
X70603504Y-15050040D01*
X70567934Y-15237752D01*
X70567670Y-15238854D01*
X70508915Y-15440035D01*
X70503306Y-15447016D01*
X70497913Y-15448453D01*
X69199732Y-15473832D01*
X69191393Y-15470567D01*
X69187805Y-15461905D01*
X69213182Y-14163723D01*
X69216770Y-14155519D01*
X69221600Y-14152721D01*
X69422780Y-14093965D01*
X69423880Y-14093702D01*
X69611598Y-14058129D01*
X69612459Y-14057999D01*
X69704814Y-14047602D01*
X69783749Y-14038717D01*
X69784174Y-14038677D01*
X69943538Y-14026596D01*
X70095006Y-14012623D01*
X70095015Y-14012622D01*
X70095219Y-14012603D01*
X70243457Y-13987562D01*
X70243806Y-13987456D01*
X70243811Y-13987455D01*
X70313703Y-13966268D01*
X70392701Y-13942320D01*
X70547403Y-13867727D01*
X70547760Y-13867482D01*
X70547763Y-13867480D01*
X70676687Y-13778900D01*
X70712014Y-13754628D01*
X70882735Y-13601284D01*
X70891179Y-13598305D01*
X70898826Y-13601715D01*
G37*
%TD.AperFunction*%
%TD*%
%TA.AperFunction,Conductor*%
%TO.N,P18*%
G36*
X42666282Y23389267D02*
G01*
X42670428Y23381286D01*
X42689665Y23154477D01*
X42686950Y23145944D01*
X42680103Y23141977D01*
X42622037Y23131404D01*
X42490441Y23107441D01*
X42490439Y23107440D01*
X42489712Y23107308D01*
X42342340Y23039186D01*
X42238819Y22943179D01*
X42169520Y22822952D01*
X42124814Y22682169D01*
X42095072Y22524495D01*
X42095050Y22524341D01*
X42070685Y22353734D01*
X42070658Y22353550D01*
X42042025Y22173512D01*
X42041875Y22172741D01*
X41999489Y21987421D01*
X41999124Y21986156D01*
X41936068Y21806456D01*
X41930095Y21799784D01*
X41924412Y21798646D01*
X41252469Y21834078D01*
X40629602Y21866922D01*
X40621522Y21870780D01*
X40618535Y21879222D01*
X40618797Y21881140D01*
X40854411Y22943179D01*
X40912275Y23204003D01*
X40917412Y23211338D01*
X40922659Y23213123D01*
X41128810Y23231462D01*
X41311376Y23249359D01*
X41470608Y23266419D01*
X41615285Y23283007D01*
X41754190Y23299486D01*
X41754190Y23299483D01*
X41754198Y23299487D01*
X41896045Y23316213D01*
X41896102Y23316220D01*
X42049713Y23333562D01*
X42049802Y23333572D01*
X42224070Y23351908D01*
X42427688Y23371591D01*
X42427783Y23371599D01*
X42582274Y23385272D01*
X42657739Y23391951D01*
X42666282Y23389267D01*
G37*
%TD.AperFunction*%
%TD*%
%TA.AperFunction,Conductor*%
%TO.N,GND*%
G36*
X73352050Y38613144D02*
G01*
X73513144Y38452050D01*
X73516571Y38443777D01*
X73513575Y38435960D01*
X73360230Y38265238D01*
X73334162Y38227297D01*
X73261164Y38121051D01*
X73247131Y38100627D01*
X73172538Y37945925D01*
X73127297Y37796681D01*
X73102256Y37648443D01*
X73102237Y37648239D01*
X73102236Y37648230D01*
X73088263Y37496762D01*
X73076182Y37337398D01*
X73076142Y37336973D01*
X73056861Y37165687D01*
X73056729Y37164818D01*
X73021158Y36977106D01*
X73020894Y36976004D01*
X72962139Y36774824D01*
X72956530Y36767843D01*
X72951137Y36766406D01*
X72853258Y36764493D01*
X71652955Y36741028D01*
X71644616Y36744293D01*
X71641028Y36752955D01*
X71666406Y38051137D01*
X71669994Y38059341D01*
X71674824Y38062139D01*
X71876004Y38120894D01*
X71877104Y38121157D01*
X72064822Y38156730D01*
X72065683Y38156860D01*
X72158038Y38167257D01*
X72236973Y38176142D01*
X72237398Y38176182D01*
X72396762Y38188263D01*
X72548230Y38202236D01*
X72548239Y38202237D01*
X72548443Y38202256D01*
X72696681Y38227297D01*
X72697030Y38227403D01*
X72697035Y38227404D01*
X72766950Y38248598D01*
X72845925Y38272538D01*
X73000627Y38347131D01*
X73000984Y38347376D01*
X73000987Y38347378D01*
X73074246Y38397712D01*
X73165238Y38460230D01*
X73335960Y38613575D01*
X73344403Y38616554D01*
X73352050Y38613144D01*
G37*
%TD.AperFunction*%
%TD*%
%TA.AperFunction,Conductor*%
%TO.N,P20*%
G36*
X32429088Y41008416D02*
G01*
X32632151Y40905783D01*
X32637989Y40898993D01*
X32637407Y40890249D01*
X32514126Y40635232D01*
X32415533Y40407597D01*
X32415493Y40407490D01*
X32415491Y40407486D01*
X32365041Y40273762D01*
X32340498Y40208709D01*
X32282888Y40029581D01*
X32236570Y39861227D01*
X32236541Y39861108D01*
X32236538Y39861098D01*
X32195413Y39694662D01*
X32153302Y39520983D01*
X32153257Y39520804D01*
X32104088Y39331114D01*
X32103998Y39330787D01*
X32041627Y39116027D01*
X32041507Y39115640D01*
X31962319Y38874460D01*
X31956482Y38867669D01*
X31951432Y38866412D01*
X30652955Y38841028D01*
X30644616Y38844293D01*
X30641028Y38852955D01*
X30660736Y39861098D01*
X30666406Y40151157D01*
X30669994Y40159360D01*
X30674801Y40162151D01*
X30901546Y40228875D01*
X30902492Y40229111D01*
X31119607Y40273762D01*
X31120197Y40273868D01*
X31264363Y40295899D01*
X31321818Y40304679D01*
X31361058Y40310417D01*
X31509161Y40332074D01*
X31509178Y40332077D01*
X31509315Y40332097D01*
X31683963Y40366594D01*
X31684277Y40366694D01*
X31846846Y40418533D01*
X31846849Y40418534D01*
X31847328Y40418687D01*
X32000977Y40498893D01*
X32146476Y40617731D01*
X32285392Y40785717D01*
X32352962Y40900598D01*
X32413725Y41003906D01*
X32420873Y41009299D01*
X32429088Y41008416D01*
G37*
%TD.AperFunction*%
%TD*%
%TA.AperFunction,Conductor*%
%TO.N,GND*%
G36*
X90959730Y34433425D02*
G01*
X91021051Y34223456D01*
X91044445Y34099998D01*
X91044445Y34099997D01*
X91044670Y34098811D01*
X91056728Y34035180D01*
X91056860Y34034311D01*
X91076141Y33863025D01*
X91076181Y33862600D01*
X91085447Y33740369D01*
X91088262Y33703236D01*
X91102255Y33551555D01*
X91127296Y33403317D01*
X91172538Y33254073D01*
X91247131Y33099371D01*
X91247376Y33099014D01*
X91247378Y33099011D01*
X91285676Y33043270D01*
X91360230Y32934760D01*
X91433619Y32853056D01*
X91513575Y32764040D01*
X91516554Y32755596D01*
X91513144Y32747949D01*
X91352050Y32586855D01*
X91343777Y32583428D01*
X91335959Y32586424D01*
X91165525Y32739510D01*
X91165238Y32739768D01*
X91074246Y32802286D01*
X91000987Y32852620D01*
X91000984Y32852622D01*
X91000627Y32852867D01*
X90845925Y32927460D01*
X90766927Y32951408D01*
X90697035Y32972595D01*
X90697030Y32972596D01*
X90696681Y32972702D01*
X90548443Y32997743D01*
X90548239Y32997762D01*
X90548230Y32997763D01*
X90396762Y33011736D01*
X90237398Y33023817D01*
X90236973Y33023857D01*
X90158038Y33032742D01*
X90065683Y33043139D01*
X90064822Y33043269D01*
X89877104Y33078842D01*
X89876004Y33079105D01*
X89674824Y33137861D01*
X89667843Y33143470D01*
X89666406Y33148863D01*
X89654875Y33738737D01*
X89647813Y34100019D01*
X89647813Y34100030D01*
X89641124Y34442165D01*
X89641029Y34447046D01*
X89644294Y34455385D01*
X89650418Y34457921D01*
X89650335Y34458133D01*
X89652501Y34458981D01*
X90959730Y34433425D01*
G37*
%TD.AperFunction*%
%TD*%
%TA.AperFunction,Conductor*%
%TO.N,P14*%
G36*
X41822255Y6423600D02*
G01*
X41983736Y6262119D01*
X41987163Y6253846D01*
X41984427Y6246328D01*
X41925735Y6176374D01*
X41882495Y6097836D01*
X41858452Y6019472D01*
X41850464Y5941827D01*
X41855390Y5865445D01*
X41870089Y5790872D01*
X41891417Y5718654D01*
X41916233Y5649335D01*
X41916259Y5649268D01*
X41941369Y5583532D01*
X41941442Y5583334D01*
X41960499Y5530611D01*
X41960089Y5521666D01*
X41955542Y5516617D01*
X40744718Y4785797D01*
X40735864Y4784456D01*
X40728655Y4789768D01*
X40727056Y4797216D01*
X40814505Y5521579D01*
X40896529Y6201007D01*
X40900923Y6208810D01*
X40907607Y6211293D01*
X40979168Y6214588D01*
X40980041Y6214595D01*
X41063968Y6212193D01*
X41064273Y6212180D01*
X41080471Y6211293D01*
X41151085Y6207426D01*
X41151143Y6207424D01*
X41151161Y6207423D01*
X41208133Y6205339D01*
X41240353Y6204161D01*
X41240531Y6204165D01*
X41240537Y6204165D01*
X41278802Y6205035D01*
X41331741Y6206239D01*
X41425081Y6217505D01*
X41425446Y6217598D01*
X41425450Y6217599D01*
X41519766Y6241690D01*
X41519765Y6241690D01*
X41520201Y6241801D01*
X41520612Y6241976D01*
X41520618Y6241978D01*
X41580176Y6267328D01*
X41616931Y6282972D01*
X41715100Y6344862D01*
X41806305Y6424157D01*
X41814797Y6426999D01*
X41822255Y6423600D01*
G37*
%TD.AperFunction*%
%TD*%
%TA.AperFunction,Conductor*%
%TO.N,P21*%
G36*
X68429096Y41008408D02*
G01*
X68632159Y40905775D01*
X68637997Y40898985D01*
X68637415Y40890241D01*
X68514135Y40635224D01*
X68415542Y40407590D01*
X68415502Y40407483D01*
X68415500Y40407479D01*
X68348169Y40229013D01*
X68340506Y40208703D01*
X68282895Y40029575D01*
X68236576Y39861222D01*
X68236547Y39861103D01*
X68236544Y39861093D01*
X68195416Y39694658D01*
X68153304Y39520981D01*
X68153259Y39520802D01*
X68104089Y39331112D01*
X68103999Y39330785D01*
X68041627Y39116026D01*
X68041507Y39115639D01*
X67962319Y38874460D01*
X67956482Y38867669D01*
X67951432Y38866412D01*
X66652955Y38841028D01*
X66644616Y38844293D01*
X66641028Y38852955D01*
X66650375Y39331112D01*
X66666406Y40151157D01*
X66669994Y40159360D01*
X66674801Y40162151D01*
X66901547Y40228875D01*
X66902493Y40229111D01*
X67119608Y40273761D01*
X67120198Y40273867D01*
X67264178Y40295869D01*
X67321821Y40304677D01*
X67361071Y40310416D01*
X67509165Y40332071D01*
X67509182Y40332074D01*
X67509319Y40332094D01*
X67683968Y40366589D01*
X67684276Y40366687D01*
X67684283Y40366689D01*
X67846852Y40418526D01*
X67846855Y40418527D01*
X67847334Y40418680D01*
X68000984Y40498886D01*
X68146484Y40617723D01*
X68285400Y40785708D01*
X68413733Y41003898D01*
X68420881Y41009291D01*
X68429096Y41008408D01*
G37*
%TD.AperFunction*%
%TD*%
%TA.AperFunction,Conductor*%
%TO.N,GND*%
G36*
X37352050Y21613144D02*
G01*
X37513144Y21452050D01*
X37516571Y21443777D01*
X37513575Y21435960D01*
X37360230Y21265238D01*
X37334162Y21227297D01*
X37261164Y21121051D01*
X37247131Y21100627D01*
X37172538Y20945925D01*
X37127297Y20796681D01*
X37102256Y20648443D01*
X37102237Y20648239D01*
X37102236Y20648230D01*
X37088263Y20496762D01*
X37076182Y20337398D01*
X37076142Y20336973D01*
X37056861Y20165687D01*
X37056729Y20164818D01*
X37021158Y19977106D01*
X37020894Y19976004D01*
X36962139Y19774824D01*
X36956530Y19767843D01*
X36951137Y19766406D01*
X36853258Y19764493D01*
X35652955Y19741028D01*
X35644616Y19744293D01*
X35641028Y19752955D01*
X35666406Y21051137D01*
X35669994Y21059341D01*
X35674824Y21062139D01*
X35876004Y21120894D01*
X35877104Y21121157D01*
X36064822Y21156730D01*
X36065683Y21156860D01*
X36158038Y21167257D01*
X36236973Y21176142D01*
X36237398Y21176182D01*
X36396762Y21188263D01*
X36548230Y21202236D01*
X36548239Y21202237D01*
X36548443Y21202256D01*
X36696681Y21227297D01*
X36697030Y21227403D01*
X36697035Y21227404D01*
X36766950Y21248598D01*
X36845925Y21272538D01*
X37000627Y21347131D01*
X37000984Y21347376D01*
X37000987Y21347378D01*
X37074246Y21397712D01*
X37165238Y21460230D01*
X37335960Y21613575D01*
X37344403Y21616554D01*
X37352050Y21613144D01*
G37*
%TD.AperFunction*%
%TD*%
%TA.AperFunction,Conductor*%
%TO.N,P0*%
G36*
X50629096Y47008408D02*
G01*
X50832159Y46905775D01*
X50837997Y46898985D01*
X50837415Y46890241D01*
X50714135Y46635224D01*
X50615542Y46407590D01*
X50615502Y46407483D01*
X50615500Y46407479D01*
X50548169Y46229013D01*
X50540506Y46208703D01*
X50482895Y46029575D01*
X50436576Y45861222D01*
X50436547Y45861103D01*
X50436544Y45861093D01*
X50395416Y45694658D01*
X50353304Y45520981D01*
X50353259Y45520802D01*
X50304089Y45331112D01*
X50303999Y45330785D01*
X50241627Y45116026D01*
X50241507Y45115639D01*
X50162319Y44874460D01*
X50156482Y44867669D01*
X50151432Y44866412D01*
X48852955Y44841028D01*
X48844616Y44844293D01*
X48841028Y44852955D01*
X48850375Y45331112D01*
X48866406Y46151157D01*
X48869994Y46159360D01*
X48874801Y46162151D01*
X49101547Y46228875D01*
X49102493Y46229111D01*
X49319608Y46273761D01*
X49320198Y46273867D01*
X49464178Y46295869D01*
X49521821Y46304677D01*
X49561071Y46310416D01*
X49709165Y46332071D01*
X49709182Y46332074D01*
X49709319Y46332094D01*
X49883968Y46366589D01*
X49884276Y46366687D01*
X49884283Y46366689D01*
X50046852Y46418526D01*
X50046855Y46418527D01*
X50047334Y46418680D01*
X50200984Y46498886D01*
X50346484Y46617723D01*
X50485400Y46785708D01*
X50613733Y47003898D01*
X50620881Y47009291D01*
X50629096Y47008408D01*
G37*
%TD.AperFunction*%
%TD*%
%TA.AperFunction,Conductor*%
%TO.N,P21*%
G36*
X77008433Y39699231D02*
G01*
X77908520Y38763250D01*
X77911785Y38754912D01*
X77910417Y38749647D01*
X77784439Y38512785D01*
X77784064Y38512133D01*
X77653975Y38301425D01*
X77653750Y38301073D01*
X77638272Y38277895D01*
X77528606Y38113674D01*
X77413983Y37940061D01*
X77315440Y37770636D01*
X77315311Y37770343D01*
X77315310Y37770341D01*
X77303129Y37742663D01*
X77238431Y37595652D01*
X77238315Y37595211D01*
X77238314Y37595208D01*
X77231049Y37567571D01*
X77188409Y37405359D01*
X77170830Y37190008D01*
X77191148Y36939851D01*
X77191228Y36939481D01*
X77252476Y36655986D01*
X77250874Y36647175D01*
X77244113Y36642226D01*
X77024752Y36582521D01*
X77015869Y36583655D01*
X77010427Y36590604D01*
X76924432Y36892436D01*
X76924429Y36892446D01*
X76924417Y36892488D01*
X76841600Y37153896D01*
X76762454Y37375120D01*
X76684295Y37567571D01*
X76671487Y37595652D01*
X76604466Y37742598D01*
X76604459Y37742613D01*
X76604436Y37742663D01*
X76520189Y37911806D01*
X76428869Y38086412D01*
X76327788Y38277895D01*
X76214303Y38497582D01*
X76214216Y38497754D01*
X76089257Y38749761D01*
X76088652Y38758696D01*
X76091306Y38763069D01*
X76991567Y39699231D01*
X76999771Y39702819D01*
X77008433Y39699231D01*
G37*
%TD.AperFunction*%
%TD*%
%TA.AperFunction,Conductor*%
%TO.N,GND*%
G36*
X91352050Y1613144D02*
G01*
X91513144Y1452050D01*
X91516571Y1443777D01*
X91513575Y1435960D01*
X91360230Y1265238D01*
X91334162Y1227297D01*
X91261164Y1121051D01*
X91247131Y1100627D01*
X91172538Y945925D01*
X91127297Y796681D01*
X91102256Y648443D01*
X91102237Y648239D01*
X91102236Y648230D01*
X91088263Y496762D01*
X91076182Y337398D01*
X91076142Y336973D01*
X91056861Y165687D01*
X91056729Y164818D01*
X91021158Y-22893D01*
X91020894Y-23995D01*
X90962139Y-225176D01*
X90956530Y-232157D01*
X90951137Y-233594D01*
X90853258Y-235507D01*
X89652955Y-258972D01*
X89644616Y-255707D01*
X89641028Y-247045D01*
X89666406Y1051137D01*
X89669994Y1059341D01*
X89674824Y1062139D01*
X89876004Y1120894D01*
X89877104Y1121157D01*
X90064822Y1156730D01*
X90065683Y1156860D01*
X90158038Y1167257D01*
X90236973Y1176142D01*
X90237398Y1176182D01*
X90396762Y1188263D01*
X90548230Y1202236D01*
X90548239Y1202237D01*
X90548443Y1202256D01*
X90696681Y1227297D01*
X90697030Y1227403D01*
X90697035Y1227404D01*
X90766950Y1248598D01*
X90845925Y1272538D01*
X91000627Y1347131D01*
X91000984Y1347376D01*
X91000987Y1347378D01*
X91074246Y1397712D01*
X91165238Y1460230D01*
X91335960Y1613575D01*
X91344403Y1616554D01*
X91352050Y1613144D01*
G37*
%TD.AperFunction*%
%TD*%
%TA.AperFunction,Conductor*%
%TO.N,P19*%
G36*
X68429096Y24008408D02*
G01*
X68632159Y23905775D01*
X68637997Y23898985D01*
X68637415Y23890241D01*
X68514135Y23635224D01*
X68415542Y23407590D01*
X68415502Y23407483D01*
X68415500Y23407479D01*
X68348169Y23229013D01*
X68340506Y23208703D01*
X68282895Y23029575D01*
X68236576Y22861222D01*
X68236547Y22861103D01*
X68236544Y22861093D01*
X68195416Y22694658D01*
X68153304Y22520981D01*
X68153259Y22520802D01*
X68104089Y22331112D01*
X68103999Y22330785D01*
X68041627Y22116026D01*
X68041507Y22115639D01*
X67962319Y21874460D01*
X67956482Y21867669D01*
X67951432Y21866412D01*
X66652955Y21841028D01*
X66644616Y21844293D01*
X66641028Y21852955D01*
X66650375Y22331112D01*
X66666406Y23151157D01*
X66669994Y23159360D01*
X66674801Y23162151D01*
X66901547Y23228875D01*
X66902493Y23229111D01*
X67119608Y23273761D01*
X67120198Y23273867D01*
X67264178Y23295869D01*
X67321821Y23304677D01*
X67361071Y23310416D01*
X67509165Y23332071D01*
X67509182Y23332074D01*
X67509319Y23332094D01*
X67683968Y23366589D01*
X67684276Y23366687D01*
X67684283Y23366689D01*
X67846852Y23418526D01*
X67846855Y23418527D01*
X67847334Y23418680D01*
X68000984Y23498886D01*
X68146484Y23617723D01*
X68285400Y23785708D01*
X68413733Y24003898D01*
X68420881Y24009291D01*
X68429096Y24008408D01*
G37*
%TD.AperFunction*%
%TD*%
%TA.AperFunction,Conductor*%
%TO.N,GND*%
G36*
X37352050Y4613144D02*
G01*
X37513144Y4452050D01*
X37516571Y4443777D01*
X37513575Y4435960D01*
X37360230Y4265238D01*
X37334162Y4227297D01*
X37261164Y4121051D01*
X37247131Y4100627D01*
X37172538Y3945925D01*
X37127297Y3796681D01*
X37102256Y3648443D01*
X37102237Y3648239D01*
X37102236Y3648230D01*
X37088263Y3496762D01*
X37076182Y3337398D01*
X37076142Y3336973D01*
X37056861Y3165687D01*
X37056729Y3164818D01*
X37021158Y2977106D01*
X37020894Y2976004D01*
X36962139Y2774824D01*
X36956530Y2767843D01*
X36951137Y2766406D01*
X36853258Y2764493D01*
X35652955Y2741028D01*
X35644616Y2744293D01*
X35641028Y2752955D01*
X35666406Y4051137D01*
X35669994Y4059341D01*
X35674824Y4062139D01*
X35876004Y4120894D01*
X35877104Y4121157D01*
X36064822Y4156730D01*
X36065683Y4156860D01*
X36158038Y4167257D01*
X36236973Y4176142D01*
X36237398Y4176182D01*
X36396762Y4188263D01*
X36548230Y4202236D01*
X36548239Y4202237D01*
X36548443Y4202256D01*
X36696681Y4227297D01*
X36697030Y4227403D01*
X36697035Y4227404D01*
X36766950Y4248598D01*
X36845925Y4272538D01*
X37000627Y4347131D01*
X37000984Y4347376D01*
X37000987Y4347378D01*
X37074246Y4397712D01*
X37165238Y4460230D01*
X37335960Y4613575D01*
X37344403Y4616554D01*
X37352050Y4613144D01*
G37*
%TD.AperFunction*%
%TD*%
%TA.AperFunction,Conductor*%
%TO.N,P15*%
G36*
X68429096Y7008408D02*
G01*
X68632159Y6905775D01*
X68637997Y6898985D01*
X68637415Y6890241D01*
X68514135Y6635224D01*
X68415542Y6407590D01*
X68415502Y6407483D01*
X68415500Y6407479D01*
X68348169Y6229013D01*
X68340506Y6208703D01*
X68282895Y6029575D01*
X68236576Y5861222D01*
X68236547Y5861103D01*
X68236544Y5861093D01*
X68195416Y5694658D01*
X68153304Y5520981D01*
X68153259Y5520802D01*
X68104089Y5331112D01*
X68103999Y5330785D01*
X68041627Y5116026D01*
X68041507Y5115639D01*
X67962319Y4874460D01*
X67956482Y4867669D01*
X67951432Y4866412D01*
X66652955Y4841028D01*
X66644616Y4844293D01*
X66641028Y4852955D01*
X66650375Y5331112D01*
X66666406Y6151157D01*
X66669994Y6159360D01*
X66674801Y6162151D01*
X66901547Y6228875D01*
X66902493Y6229111D01*
X67119608Y6273761D01*
X67120198Y6273867D01*
X67264178Y6295869D01*
X67321821Y6304677D01*
X67361071Y6310416D01*
X67509165Y6332071D01*
X67509182Y6332074D01*
X67509319Y6332094D01*
X67683968Y6366589D01*
X67684276Y6366687D01*
X67684283Y6366689D01*
X67846852Y6418526D01*
X67846855Y6418527D01*
X67847334Y6418680D01*
X68000984Y6498886D01*
X68146484Y6617723D01*
X68285400Y6785708D01*
X68413733Y7003898D01*
X68420881Y7009291D01*
X68429096Y7008408D01*
G37*
%TD.AperFunction*%
%TD*%
%TA.AperFunction,Conductor*%
%TO.N,GND*%
G36*
X73352050Y4613144D02*
G01*
X73513144Y4452050D01*
X73516571Y4443777D01*
X73513575Y4435960D01*
X73360230Y4265238D01*
X73334162Y4227297D01*
X73261164Y4121051D01*
X73247131Y4100627D01*
X73172538Y3945925D01*
X73127297Y3796681D01*
X73102256Y3648443D01*
X73102237Y3648239D01*
X73102236Y3648230D01*
X73088263Y3496762D01*
X73076182Y3337398D01*
X73076142Y3336973D01*
X73056861Y3165687D01*
X73056729Y3164818D01*
X73021158Y2977106D01*
X73020894Y2976004D01*
X72962139Y2774824D01*
X72956530Y2767843D01*
X72951137Y2766406D01*
X72853258Y2764493D01*
X71652955Y2741028D01*
X71644616Y2744293D01*
X71641028Y2752955D01*
X71666406Y4051137D01*
X71669994Y4059341D01*
X71674824Y4062139D01*
X71876004Y4120894D01*
X71877104Y4121157D01*
X72064822Y4156730D01*
X72065683Y4156860D01*
X72158038Y4167257D01*
X72236973Y4176142D01*
X72237398Y4176182D01*
X72396762Y4188263D01*
X72548230Y4202236D01*
X72548239Y4202237D01*
X72548443Y4202256D01*
X72696681Y4227297D01*
X72697030Y4227403D01*
X72697035Y4227404D01*
X72766950Y4248598D01*
X72845925Y4272538D01*
X73000627Y4347131D01*
X73000984Y4347376D01*
X73000987Y4347378D01*
X73074246Y4397712D01*
X73165238Y4460230D01*
X73335960Y4613575D01*
X73344403Y4616554D01*
X73352050Y4613144D01*
G37*
%TD.AperFunction*%
%TD*%
%TA.AperFunction,Conductor*%
%TO.N,P4*%
G36*
X50629096Y30008408D02*
G01*
X50832159Y29905775D01*
X50837997Y29898985D01*
X50837415Y29890241D01*
X50714135Y29635224D01*
X50615542Y29407590D01*
X50615502Y29407483D01*
X50615500Y29407479D01*
X50548169Y29229013D01*
X50540506Y29208703D01*
X50482895Y29029575D01*
X50436576Y28861222D01*
X50436547Y28861103D01*
X50436544Y28861093D01*
X50395416Y28694658D01*
X50353304Y28520981D01*
X50353259Y28520802D01*
X50304089Y28331112D01*
X50303999Y28330785D01*
X50241627Y28116026D01*
X50241507Y28115639D01*
X50162319Y27874460D01*
X50156482Y27867669D01*
X50151432Y27866412D01*
X48852955Y27841028D01*
X48844616Y27844293D01*
X48841028Y27852955D01*
X48850375Y28331112D01*
X48866406Y29151157D01*
X48869994Y29159360D01*
X48874801Y29162151D01*
X49101547Y29228875D01*
X49102493Y29229111D01*
X49319608Y29273761D01*
X49320198Y29273867D01*
X49464178Y29295869D01*
X49521821Y29304677D01*
X49561071Y29310416D01*
X49709165Y29332071D01*
X49709182Y29332074D01*
X49709319Y29332094D01*
X49883968Y29366589D01*
X49884276Y29366687D01*
X49884283Y29366689D01*
X50046852Y29418526D01*
X50046855Y29418527D01*
X50047334Y29418680D01*
X50200984Y29498886D01*
X50346484Y29617723D01*
X50485400Y29785708D01*
X50613733Y30003898D01*
X50620881Y30009291D01*
X50629096Y30008408D01*
G37*
%TD.AperFunction*%
%TD*%
%TA.AperFunction,Conductor*%
%TO.N,GND*%
G36*
X98651520Y-21530726D02*
G01*
X98761475Y-21729772D01*
X98762476Y-21738670D01*
X98757458Y-21745336D01*
X98544827Y-21878918D01*
X98521796Y-21893387D01*
X98521476Y-21893657D01*
X98380163Y-22012899D01*
X98338151Y-22048349D01*
X98205205Y-22206900D01*
X98112275Y-22371602D01*
X98048678Y-22545016D01*
X98003733Y-22729704D01*
X98003703Y-22729867D01*
X98003702Y-22729870D01*
X97966756Y-22928229D01*
X97927112Y-23142903D01*
X97927017Y-23143368D01*
X97874069Y-23376636D01*
X97873859Y-23377430D01*
X97799275Y-23624291D01*
X97793602Y-23631219D01*
X97788304Y-23632605D01*
X96490039Y-23657986D01*
X96481700Y-23654721D01*
X96478112Y-23646059D01*
X96503496Y-22347534D01*
X96507084Y-22339330D01*
X96511484Y-22336667D01*
X96769614Y-22250356D01*
X96769859Y-22250277D01*
X96909743Y-22206900D01*
X96998556Y-22179360D01*
X96998643Y-22179334D01*
X97199898Y-22120216D01*
X97199900Y-22120222D01*
X97199920Y-22120210D01*
X97284104Y-22095670D01*
X97383155Y-22066796D01*
X97383243Y-22066770D01*
X97383325Y-22066745D01*
X97558120Y-22012899D01*
X97558276Y-22012851D01*
X97734630Y-21952300D01*
X97921940Y-21878959D01*
X98129839Y-21786671D01*
X98129914Y-21786634D01*
X98129927Y-21786628D01*
X98245254Y-21729772D01*
X98367961Y-21669278D01*
X98501250Y-21597999D01*
X98635762Y-21526066D01*
X98644673Y-21525186D01*
X98651520Y-21530726D01*
G37*
%TD.AperFunction*%
%TD*%
%TA.AperFunction,Conductor*%
%TO.N,GND*%
G36*
X19352050Y12613144D02*
G01*
X19513144Y12452050D01*
X19516571Y12443777D01*
X19513575Y12435960D01*
X19360230Y12265238D01*
X19334162Y12227297D01*
X19261164Y12121051D01*
X19247131Y12100627D01*
X19172538Y11945925D01*
X19127297Y11796681D01*
X19102256Y11648443D01*
X19102237Y11648239D01*
X19102236Y11648230D01*
X19088263Y11496762D01*
X19076182Y11337398D01*
X19076142Y11336973D01*
X19056861Y11165687D01*
X19056729Y11164818D01*
X19021158Y10977106D01*
X19020894Y10976004D01*
X18962139Y10774824D01*
X18956530Y10767843D01*
X18951137Y10766406D01*
X18853258Y10764493D01*
X17652955Y10741028D01*
X17644616Y10744293D01*
X17641028Y10752955D01*
X17666406Y12051137D01*
X17669994Y12059341D01*
X17674824Y12062139D01*
X17876004Y12120894D01*
X17877104Y12121157D01*
X18064822Y12156730D01*
X18065683Y12156860D01*
X18158038Y12167257D01*
X18236973Y12176142D01*
X18237398Y12176182D01*
X18396762Y12188263D01*
X18548230Y12202236D01*
X18548239Y12202237D01*
X18548443Y12202256D01*
X18696681Y12227297D01*
X18697030Y12227403D01*
X18697035Y12227404D01*
X18766950Y12248598D01*
X18845925Y12272538D01*
X19000627Y12347131D01*
X19000984Y12347376D01*
X19000987Y12347378D01*
X19074246Y12397712D01*
X19165238Y12460230D01*
X19335960Y12613575D01*
X19344403Y12616554D01*
X19352050Y12613144D01*
G37*
%TD.AperFunction*%
%TD*%
%TA.AperFunction,Conductor*%
%TO.N,GND*%
G36*
X55552050Y27613144D02*
G01*
X55713144Y27452050D01*
X55716571Y27443777D01*
X55713575Y27435960D01*
X55560230Y27265238D01*
X55534162Y27227297D01*
X55461164Y27121051D01*
X55447131Y27100627D01*
X55372538Y26945925D01*
X55327297Y26796681D01*
X55302256Y26648443D01*
X55302237Y26648239D01*
X55302236Y26648230D01*
X55288263Y26496762D01*
X55276182Y26337398D01*
X55276142Y26336973D01*
X55256861Y26165687D01*
X55256729Y26164818D01*
X55221158Y25977106D01*
X55220894Y25976004D01*
X55162139Y25774824D01*
X55156530Y25767843D01*
X55151137Y25766406D01*
X55053258Y25764493D01*
X53852955Y25741028D01*
X53844616Y25744293D01*
X53841028Y25752955D01*
X53866406Y27051137D01*
X53869994Y27059341D01*
X53874824Y27062139D01*
X54076004Y27120894D01*
X54077104Y27121157D01*
X54264822Y27156730D01*
X54265683Y27156860D01*
X54358038Y27167257D01*
X54436973Y27176142D01*
X54437398Y27176182D01*
X54596762Y27188263D01*
X54748230Y27202236D01*
X54748239Y27202237D01*
X54748443Y27202256D01*
X54896681Y27227297D01*
X54897030Y27227403D01*
X54897035Y27227404D01*
X54966950Y27248598D01*
X55045925Y27272538D01*
X55200627Y27347131D01*
X55200984Y27347376D01*
X55200987Y27347378D01*
X55274246Y27397712D01*
X55365238Y27460230D01*
X55535960Y27613575D01*
X55544403Y27616554D01*
X55552050Y27613144D01*
G37*
%TD.AperFunction*%
%TD*%
%TA.AperFunction,Conductor*%
%TO.N,GND*%
G36*
X75581944Y-16336381D02*
G01*
X75743039Y-16497475D01*
X75746466Y-16505748D01*
X75743470Y-16513565D01*
X75590125Y-16684286D01*
X75564057Y-16722227D01*
X75491059Y-16828473D01*
X75477026Y-16848897D01*
X75402433Y-17003599D01*
X75357192Y-17152843D01*
X75332151Y-17301081D01*
X75332132Y-17301285D01*
X75332131Y-17301294D01*
X75318158Y-17452762D01*
X75306077Y-17612126D01*
X75306037Y-17612551D01*
X75286756Y-17783837D01*
X75286624Y-17784706D01*
X75251053Y-17972418D01*
X75250789Y-17973520D01*
X75192034Y-18174701D01*
X75186425Y-18181682D01*
X75181032Y-18183119D01*
X75083153Y-18185032D01*
X73882850Y-18208497D01*
X73874511Y-18205232D01*
X73870923Y-18196570D01*
X73896301Y-16898388D01*
X73899889Y-16890184D01*
X73904719Y-16887386D01*
X74105898Y-16828630D01*
X74106998Y-16828367D01*
X74294716Y-16792794D01*
X74295577Y-16792664D01*
X74387932Y-16782267D01*
X74466867Y-16773382D01*
X74467292Y-16773342D01*
X74626656Y-16761261D01*
X74778125Y-16747288D01*
X74778134Y-16747287D01*
X74778338Y-16747268D01*
X74926575Y-16722227D01*
X74926924Y-16722121D01*
X74926929Y-16722120D01*
X74996851Y-16700924D01*
X75075820Y-16676986D01*
X75230522Y-16602393D01*
X75230879Y-16602148D01*
X75230882Y-16602146D01*
X75371184Y-16505748D01*
X75395132Y-16489294D01*
X75565853Y-16335950D01*
X75574297Y-16332971D01*
X75581944Y-16336381D01*
G37*
%TD.AperFunction*%
%TD*%
%TA.AperFunction,Conductor*%
%TO.N,GND*%
G36*
X91352050Y35613144D02*
G01*
X91513144Y35452050D01*
X91516571Y35443777D01*
X91513575Y35435960D01*
X91360230Y35265238D01*
X91334162Y35227297D01*
X91261164Y35121051D01*
X91247131Y35100627D01*
X91172538Y34945925D01*
X91127297Y34796681D01*
X91102256Y34648443D01*
X91102237Y34648239D01*
X91102236Y34648230D01*
X91088263Y34496762D01*
X91076182Y34337398D01*
X91076142Y34336973D01*
X91056861Y34165687D01*
X91056729Y34164818D01*
X91044650Y34101078D01*
X91044650Y34101075D01*
X91044452Y34100030D01*
X91021051Y33976542D01*
X90959730Y33766574D01*
X89652502Y33741019D01*
X89650336Y33741867D01*
X89650399Y33742028D01*
X89644618Y33744290D01*
X89641028Y33752953D01*
X89641294Y33766573D01*
X89647811Y34099927D01*
X89647811Y34099928D01*
X89647813Y34100030D01*
X89647813Y34100035D01*
X89654829Y34458936D01*
X89655569Y34496762D01*
X89666406Y35051137D01*
X89669994Y35059341D01*
X89674824Y35062139D01*
X89876004Y35120894D01*
X89877104Y35121157D01*
X90064822Y35156730D01*
X90065683Y35156860D01*
X90158038Y35167257D01*
X90236973Y35176142D01*
X90237398Y35176182D01*
X90396762Y35188263D01*
X90548230Y35202236D01*
X90548239Y35202237D01*
X90548443Y35202256D01*
X90696681Y35227297D01*
X90697030Y35227403D01*
X90697035Y35227404D01*
X90766950Y35248598D01*
X90845925Y35272538D01*
X91000627Y35347131D01*
X91000984Y35347376D01*
X91000987Y35347378D01*
X91074246Y35397712D01*
X91165238Y35460230D01*
X91335960Y35613575D01*
X91344403Y35616554D01*
X91352050Y35613144D01*
G37*
%TD.AperFunction*%
%TD*%
%TA.AperFunction,Conductor*%
%TO.N,GND*%
G36*
X91352050Y35613144D02*
G01*
X91513144Y35452050D01*
X91516571Y35443777D01*
X91513575Y35435960D01*
X91360230Y35265238D01*
X91334162Y35227297D01*
X91261164Y35121051D01*
X91247131Y35100627D01*
X91172538Y34945925D01*
X91127297Y34796681D01*
X91102256Y34648443D01*
X91102237Y34648239D01*
X91102236Y34648230D01*
X91088263Y34496762D01*
X91076182Y34337398D01*
X91076142Y34336973D01*
X91056861Y34165687D01*
X91056729Y34164818D01*
X91044650Y34101078D01*
X91044650Y34101075D01*
X91044452Y34100030D01*
X91021051Y33976542D01*
X90959730Y33766574D01*
X89652502Y33741019D01*
X89650336Y33741867D01*
X89650399Y33742028D01*
X89644618Y33744290D01*
X89641028Y33752953D01*
X89641294Y33766573D01*
X89647811Y34099927D01*
X89647811Y34099928D01*
X89647813Y34100030D01*
X89647813Y34100035D01*
X89654829Y34458936D01*
X89655569Y34496762D01*
X89666406Y35051137D01*
X89669994Y35059341D01*
X89674824Y35062139D01*
X89876004Y35120894D01*
X89877104Y35121157D01*
X90064822Y35156730D01*
X90065683Y35156860D01*
X90158038Y35167257D01*
X90236973Y35176142D01*
X90237398Y35176182D01*
X90396762Y35188263D01*
X90548230Y35202236D01*
X90548239Y35202237D01*
X90548443Y35202256D01*
X90696681Y35227297D01*
X90697030Y35227403D01*
X90697035Y35227404D01*
X90766950Y35248598D01*
X90845925Y35272538D01*
X91000627Y35347131D01*
X91000984Y35347376D01*
X91000987Y35347378D01*
X91074246Y35397712D01*
X91165238Y35460230D01*
X91335960Y35613575D01*
X91344403Y35616554D01*
X91352050Y35613144D01*
G37*
%TD.AperFunction*%
%TD*%
%TA.AperFunction,Conductor*%
%TO.N,P2*%
G36*
X14429088Y32008416D02*
G01*
X14632151Y31905783D01*
X14637989Y31898993D01*
X14637407Y31890249D01*
X14514126Y31635232D01*
X14415533Y31407597D01*
X14415493Y31407490D01*
X14415491Y31407486D01*
X14365041Y31273762D01*
X14340498Y31208709D01*
X14282888Y31029581D01*
X14236570Y30861227D01*
X14236541Y30861108D01*
X14236538Y30861098D01*
X14195413Y30694662D01*
X14153302Y30520983D01*
X14153257Y30520804D01*
X14104088Y30331114D01*
X14103998Y30330787D01*
X14041627Y30116027D01*
X14041507Y30115640D01*
X13962319Y29874460D01*
X13956482Y29867669D01*
X13951432Y29866412D01*
X12652955Y29841028D01*
X12644616Y29844293D01*
X12641028Y29852955D01*
X12660736Y30861098D01*
X12666406Y31151157D01*
X12669994Y31159360D01*
X12674801Y31162151D01*
X12901546Y31228875D01*
X12902492Y31229111D01*
X13119607Y31273762D01*
X13120197Y31273868D01*
X13264363Y31295899D01*
X13321818Y31304679D01*
X13361058Y31310417D01*
X13509161Y31332074D01*
X13509178Y31332077D01*
X13509315Y31332097D01*
X13683963Y31366594D01*
X13684277Y31366694D01*
X13846846Y31418533D01*
X13846849Y31418534D01*
X13847328Y31418687D01*
X14000977Y31498893D01*
X14146476Y31617731D01*
X14285392Y31785717D01*
X14352962Y31900598D01*
X14413725Y32003906D01*
X14420873Y32009299D01*
X14429088Y32008416D01*
G37*
%TD.AperFunction*%
%TD*%
%TA.AperFunction,Conductor*%
%TO.N,GND*%
G36*
X19352050Y-4386856D02*
G01*
X19513144Y-4547950D01*
X19516571Y-4556223D01*
X19513575Y-4564040D01*
X19360230Y-4734761D01*
X19316982Y-4797707D01*
X19261164Y-4878948D01*
X19247131Y-4899372D01*
X19172538Y-5054074D01*
X19127297Y-5203318D01*
X19102256Y-5351556D01*
X19102237Y-5351760D01*
X19102236Y-5351769D01*
X19088263Y-5503237D01*
X19076182Y-5662601D01*
X19076142Y-5663026D01*
X19056861Y-5834312D01*
X19056729Y-5835181D01*
X19021158Y-6022893D01*
X19020894Y-6023995D01*
X18962139Y-6225176D01*
X18956530Y-6232157D01*
X18951137Y-6233594D01*
X18853258Y-6235507D01*
X17652955Y-6258972D01*
X17644616Y-6255707D01*
X17641028Y-6247045D01*
X17666406Y-4948863D01*
X17669994Y-4940659D01*
X17674824Y-4937861D01*
X17876004Y-4879105D01*
X17877104Y-4878842D01*
X18064822Y-4843269D01*
X18065683Y-4843139D01*
X18158038Y-4832742D01*
X18236973Y-4823857D01*
X18237398Y-4823817D01*
X18396762Y-4811736D01*
X18548230Y-4797763D01*
X18548239Y-4797762D01*
X18548443Y-4797743D01*
X18696681Y-4772703D01*
X18697030Y-4772597D01*
X18697035Y-4772596D01*
X18766927Y-4751409D01*
X18845925Y-4727461D01*
X19000627Y-4652868D01*
X19000984Y-4652623D01*
X19000987Y-4652621D01*
X19129911Y-4564041D01*
X19165238Y-4539769D01*
X19335959Y-4386425D01*
X19344403Y-4383446D01*
X19352050Y-4386856D01*
G37*
%TD.AperFunction*%
%TD*%
%TA.AperFunction,Conductor*%
%TO.N,P14*%
G36*
X32429088Y7008416D02*
G01*
X32632151Y6905783D01*
X32637989Y6898993D01*
X32637407Y6890249D01*
X32514126Y6635232D01*
X32415533Y6407597D01*
X32415493Y6407490D01*
X32415491Y6407486D01*
X32365041Y6273762D01*
X32340498Y6208709D01*
X32282888Y6029581D01*
X32236570Y5861227D01*
X32236541Y5861108D01*
X32236538Y5861098D01*
X32195413Y5694662D01*
X32153302Y5520983D01*
X32153257Y5520804D01*
X32104088Y5331114D01*
X32103998Y5330787D01*
X32041627Y5116027D01*
X32041507Y5115640D01*
X31962319Y4874460D01*
X31956482Y4867669D01*
X31951432Y4866412D01*
X30652955Y4841028D01*
X30644616Y4844293D01*
X30641028Y4852955D01*
X30660736Y5861098D01*
X30666406Y6151157D01*
X30669994Y6159360D01*
X30674801Y6162151D01*
X30901546Y6228875D01*
X30902492Y6229111D01*
X31119607Y6273762D01*
X31120197Y6273868D01*
X31264363Y6295899D01*
X31321818Y6304679D01*
X31361058Y6310417D01*
X31509161Y6332074D01*
X31509178Y6332077D01*
X31509315Y6332097D01*
X31683963Y6366594D01*
X31684277Y6366694D01*
X31846846Y6418533D01*
X31846849Y6418534D01*
X31847328Y6418687D01*
X32000977Y6498893D01*
X32146476Y6617731D01*
X32285392Y6785717D01*
X32352962Y6900598D01*
X32413725Y7003906D01*
X32420873Y7009299D01*
X32429088Y7008416D01*
G37*
%TD.AperFunction*%
%TD*%
%TA.AperFunction,Conductor*%
%TO.N,GND*%
G36*
X55552050Y10613144D02*
G01*
X55713144Y10452050D01*
X55716571Y10443777D01*
X55713575Y10435960D01*
X55560230Y10265238D01*
X55534162Y10227297D01*
X55461164Y10121051D01*
X55447131Y10100627D01*
X55372538Y9945925D01*
X55327297Y9796681D01*
X55302256Y9648443D01*
X55302237Y9648239D01*
X55302236Y9648230D01*
X55288263Y9496762D01*
X55276182Y9337398D01*
X55276142Y9336973D01*
X55256861Y9165687D01*
X55256729Y9164818D01*
X55221158Y8977106D01*
X55220894Y8976004D01*
X55162139Y8774824D01*
X55156530Y8767843D01*
X55151137Y8766406D01*
X55053258Y8764493D01*
X53852955Y8741028D01*
X53844616Y8744293D01*
X53841028Y8752955D01*
X53866406Y10051137D01*
X53869994Y10059341D01*
X53874824Y10062139D01*
X54076004Y10120894D01*
X54077104Y10121157D01*
X54264822Y10156730D01*
X54265683Y10156860D01*
X54358038Y10167257D01*
X54436973Y10176142D01*
X54437398Y10176182D01*
X54596762Y10188263D01*
X54748230Y10202236D01*
X54748239Y10202237D01*
X54748443Y10202256D01*
X54896681Y10227297D01*
X54897030Y10227403D01*
X54897035Y10227404D01*
X54966950Y10248598D01*
X55045925Y10272538D01*
X55200627Y10347131D01*
X55200984Y10347376D01*
X55200987Y10347378D01*
X55274246Y10397712D01*
X55365238Y10460230D01*
X55535960Y10613575D01*
X55544403Y10616554D01*
X55552050Y10613144D01*
G37*
%TD.AperFunction*%
%TD*%
%TA.AperFunction,Conductor*%
%TO.N,GND*%
G36*
X102078656Y-6095885D02*
G01*
X102151826Y-6131456D01*
X102152751Y-6131961D01*
X102225573Y-6176258D01*
X102226066Y-6176576D01*
X102293410Y-6222479D01*
X102357041Y-6266105D01*
X102418697Y-6303503D01*
X102419028Y-6303650D01*
X102448631Y-6316796D01*
X102480359Y-6330886D01*
X102480959Y-6331014D01*
X102480962Y-6331015D01*
X102543239Y-6344303D01*
X102543243Y-6344303D01*
X102544010Y-6344467D01*
X102544790Y-6344421D01*
X102544793Y-6344421D01*
X102591136Y-6341674D01*
X102611629Y-6340460D01*
X102639007Y-6331015D01*
X102684580Y-6315293D01*
X102684583Y-6315291D01*
X102685199Y-6315079D01*
X102752847Y-6273127D01*
X102757585Y-6270189D01*
X102766422Y-6268741D01*
X102773122Y-6273127D01*
X102909302Y-6455290D01*
X102911511Y-6463968D01*
X102906829Y-6471745D01*
X102817978Y-6536596D01*
X102817737Y-6536768D01*
X102733064Y-6595350D01*
X102732818Y-6595515D01*
X102658729Y-6643955D01*
X102658562Y-6644060D01*
X102591950Y-6685413D01*
X102591877Y-6685458D01*
X102529642Y-6722780D01*
X102468789Y-6759063D01*
X102406295Y-6797321D01*
X102339099Y-6840586D01*
X102339053Y-6840617D01*
X102339037Y-6840628D01*
X102287921Y-6875617D01*
X102264142Y-6891894D01*
X102178363Y-6954279D01*
X101686357Y-6608169D01*
X101640347Y-6575803D01*
X101635552Y-6568241D01*
X101637510Y-6559502D01*
X101638497Y-6558283D01*
X101829966Y-6351836D01*
X101829966Y-6351835D01*
X101865857Y-6313137D01*
X101992663Y-6176411D01*
X102064966Y-6098453D01*
X102073104Y-6094717D01*
X102078656Y-6095885D01*
G37*
%TD.AperFunction*%
%TD*%
%TA.AperFunction,Conductor*%
%TO.N,GND*%
G36*
X37352050Y21613144D02*
G01*
X37513144Y21452050D01*
X37516571Y21443777D01*
X37513575Y21435960D01*
X37360230Y21265238D01*
X37334162Y21227297D01*
X37261164Y21121051D01*
X37247131Y21100627D01*
X37172538Y20945925D01*
X37127297Y20796681D01*
X37102256Y20648443D01*
X37102237Y20648239D01*
X37102236Y20648230D01*
X37088263Y20496762D01*
X37076182Y20337398D01*
X37076142Y20336973D01*
X37056861Y20165687D01*
X37056729Y20164818D01*
X37021158Y19977106D01*
X37020894Y19976004D01*
X36962139Y19774824D01*
X36956530Y19767843D01*
X36951137Y19766406D01*
X36853258Y19764493D01*
X35652955Y19741028D01*
X35644616Y19744293D01*
X35641028Y19752955D01*
X35666406Y21051137D01*
X35669994Y21059341D01*
X35674824Y21062139D01*
X35876004Y21120894D01*
X35877104Y21121157D01*
X36064822Y21156730D01*
X36065683Y21156860D01*
X36158038Y21167257D01*
X36236973Y21176142D01*
X36237398Y21176182D01*
X36396762Y21188263D01*
X36548230Y21202236D01*
X36548239Y21202237D01*
X36548443Y21202256D01*
X36696681Y21227297D01*
X36697030Y21227403D01*
X36697035Y21227404D01*
X36766950Y21248598D01*
X36845925Y21272538D01*
X37000627Y21347131D01*
X37000984Y21347376D01*
X37000987Y21347378D01*
X37074246Y21397712D01*
X37165238Y21460230D01*
X37335960Y21613575D01*
X37344403Y21616554D01*
X37352050Y21613144D01*
G37*
%TD.AperFunction*%
%TD*%
%TA.AperFunction,Conductor*%
%TO.N,P5*%
G36*
X14429088Y15008416D02*
G01*
X14632151Y14905783D01*
X14637989Y14898993D01*
X14637407Y14890249D01*
X14514126Y14635232D01*
X14415533Y14407597D01*
X14415493Y14407490D01*
X14415491Y14407486D01*
X14365041Y14273762D01*
X14340498Y14208709D01*
X14282888Y14029581D01*
X14236570Y13861227D01*
X14236541Y13861108D01*
X14236538Y13861098D01*
X14195413Y13694662D01*
X14153302Y13520983D01*
X14153257Y13520804D01*
X14104088Y13331114D01*
X14103998Y13330787D01*
X14041627Y13116027D01*
X14041507Y13115640D01*
X13962319Y12874460D01*
X13956482Y12867669D01*
X13951432Y12866412D01*
X12652955Y12841028D01*
X12644616Y12844293D01*
X12641028Y12852955D01*
X12660736Y13861098D01*
X12666406Y14151157D01*
X12669994Y14159360D01*
X12674801Y14162151D01*
X12901546Y14228875D01*
X12902492Y14229111D01*
X13119607Y14273762D01*
X13120197Y14273868D01*
X13264363Y14295899D01*
X13321818Y14304679D01*
X13361058Y14310417D01*
X13509161Y14332074D01*
X13509178Y14332077D01*
X13509315Y14332097D01*
X13683963Y14366594D01*
X13684277Y14366694D01*
X13846846Y14418533D01*
X13846849Y14418534D01*
X13847328Y14418687D01*
X14000977Y14498893D01*
X14146476Y14617731D01*
X14285392Y14785717D01*
X14352962Y14900598D01*
X14413725Y15003906D01*
X14420873Y15009299D01*
X14429088Y15008416D01*
G37*
%TD.AperFunction*%
%TD*%
%TA.AperFunction,Conductor*%
%TO.N,GND*%
G36*
X19352050Y29613144D02*
G01*
X19513144Y29452050D01*
X19516571Y29443777D01*
X19513575Y29435960D01*
X19360230Y29265238D01*
X19334162Y29227297D01*
X19261164Y29121051D01*
X19247131Y29100627D01*
X19172538Y28945925D01*
X19127297Y28796681D01*
X19102256Y28648443D01*
X19102237Y28648239D01*
X19102236Y28648230D01*
X19088263Y28496762D01*
X19076182Y28337398D01*
X19076142Y28336973D01*
X19056861Y28165687D01*
X19056729Y28164818D01*
X19021158Y27977106D01*
X19020894Y27976004D01*
X18962139Y27774824D01*
X18956530Y27767843D01*
X18951137Y27766406D01*
X18853258Y27764493D01*
X17652955Y27741028D01*
X17644616Y27744293D01*
X17641028Y27752955D01*
X17666406Y29051137D01*
X17669994Y29059341D01*
X17674824Y29062139D01*
X17876004Y29120894D01*
X17877104Y29121157D01*
X18064822Y29156730D01*
X18065683Y29156860D01*
X18158038Y29167257D01*
X18236973Y29176142D01*
X18237398Y29176182D01*
X18396762Y29188263D01*
X18548230Y29202236D01*
X18548239Y29202237D01*
X18548443Y29202256D01*
X18696681Y29227297D01*
X18697030Y29227403D01*
X18697035Y29227404D01*
X18766950Y29248598D01*
X18845925Y29272538D01*
X19000627Y29347131D01*
X19000984Y29347376D01*
X19000987Y29347378D01*
X19074246Y29397712D01*
X19165238Y29460230D01*
X19335960Y29613575D01*
X19344403Y29616554D01*
X19352050Y29613144D01*
G37*
%TD.AperFunction*%
%TD*%
%TA.AperFunction,Conductor*%
%TO.N,GND*%
G36*
X91352050Y1613144D02*
G01*
X91513144Y1452050D01*
X91516571Y1443777D01*
X91513575Y1435960D01*
X91360230Y1265238D01*
X91334162Y1227297D01*
X91261164Y1121051D01*
X91247131Y1100627D01*
X91172538Y945925D01*
X91127297Y796681D01*
X91102256Y648443D01*
X91102237Y648239D01*
X91102236Y648230D01*
X91088263Y496762D01*
X91076182Y337398D01*
X91076142Y336973D01*
X91056861Y165687D01*
X91056729Y164818D01*
X91021158Y-22893D01*
X91020894Y-23995D01*
X90962139Y-225176D01*
X90956530Y-232157D01*
X90951137Y-233594D01*
X90853258Y-235507D01*
X89652955Y-258972D01*
X89644616Y-255707D01*
X89641028Y-247045D01*
X89666406Y1051137D01*
X89669994Y1059341D01*
X89674824Y1062139D01*
X89876004Y1120894D01*
X89877104Y1121157D01*
X90064822Y1156730D01*
X90065683Y1156860D01*
X90158038Y1167257D01*
X90236973Y1176142D01*
X90237398Y1176182D01*
X90396762Y1188263D01*
X90548230Y1202236D01*
X90548239Y1202237D01*
X90548443Y1202256D01*
X90696681Y1227297D01*
X90697030Y1227403D01*
X90697035Y1227404D01*
X90766950Y1248598D01*
X90845925Y1272538D01*
X91000627Y1347131D01*
X91000984Y1347376D01*
X91000987Y1347378D01*
X91074246Y1397712D01*
X91165238Y1460230D01*
X91335960Y1613575D01*
X91344403Y1616554D01*
X91352050Y1613144D01*
G37*
%TD.AperFunction*%
%TD*%
%TA.AperFunction,Conductor*%
%TO.N,P1*%
G36*
X86429096Y38008408D02*
G01*
X86632159Y37905775D01*
X86637997Y37898985D01*
X86637415Y37890241D01*
X86514135Y37635224D01*
X86415542Y37407590D01*
X86415502Y37407483D01*
X86415500Y37407479D01*
X86348169Y37229013D01*
X86340506Y37208703D01*
X86282895Y37029575D01*
X86236576Y36861222D01*
X86236547Y36861103D01*
X86236544Y36861093D01*
X86195416Y36694658D01*
X86153304Y36520981D01*
X86153259Y36520802D01*
X86104089Y36331112D01*
X86103999Y36330785D01*
X86041627Y36116026D01*
X86041507Y36115639D01*
X85962319Y35874460D01*
X85956482Y35867669D01*
X85951432Y35866412D01*
X84652955Y35841028D01*
X84644616Y35844293D01*
X84641028Y35852955D01*
X84650375Y36331112D01*
X84666406Y37151157D01*
X84669994Y37159360D01*
X84674801Y37162151D01*
X84901547Y37228875D01*
X84902493Y37229111D01*
X85119608Y37273761D01*
X85120198Y37273867D01*
X85264178Y37295869D01*
X85321821Y37304677D01*
X85361071Y37310416D01*
X85509165Y37332071D01*
X85509182Y37332074D01*
X85509319Y37332094D01*
X85683968Y37366589D01*
X85684276Y37366687D01*
X85684283Y37366689D01*
X85846852Y37418526D01*
X85846855Y37418527D01*
X85847334Y37418680D01*
X86000984Y37498886D01*
X86146484Y37617723D01*
X86285400Y37785708D01*
X86413733Y38003898D01*
X86420881Y38009291D01*
X86429096Y38008408D01*
G37*
%TD.AperFunction*%
%TD*%
%TA.AperFunction,Conductor*%
%TO.N,GND*%
G36*
X101863499Y-6311414D02*
G01*
X101864100Y-6311614D01*
X102346911Y-6730009D01*
X102310556Y-6811400D01*
X102268319Y-6886281D01*
X102265260Y-6891129D01*
X102224306Y-6956025D01*
X102224302Y-6956028D01*
X102224303Y-6956029D01*
X102182614Y-7022022D01*
X102182544Y-7022148D01*
X102182537Y-7022160D01*
X102168750Y-7047034D01*
X102147354Y-7085636D01*
X102147217Y-7085982D01*
X102147215Y-7085987D01*
X102122861Y-7147655D01*
X102122860Y-7147660D01*
X102122627Y-7148249D01*
X102122527Y-7148876D01*
X102122526Y-7148878D01*
X102118867Y-7171726D01*
X102112538Y-7211238D01*
X102112651Y-7212084D01*
X102115261Y-7231611D01*
X102121190Y-7275980D01*
X102152687Y-7343853D01*
X102163532Y-7357284D01*
X102204443Y-7407949D01*
X102206974Y-7416538D01*
X102203512Y-7423672D01*
X102041269Y-7582016D01*
X102040826Y-7582448D01*
X102032512Y-7585774D01*
X102024061Y-7582016D01*
X101952429Y-7504505D01*
X101951967Y-7503973D01*
X101889287Y-7427364D01*
X101888842Y-7426784D01*
X101839066Y-7357544D01*
X101838703Y-7357008D01*
X101797855Y-7292986D01*
X101797635Y-7292627D01*
X101761761Y-7231670D01*
X101761726Y-7231611D01*
X101726958Y-7171726D01*
X101726942Y-7171699D01*
X101726907Y-7171639D01*
X101712462Y-7148249D01*
X101689445Y-7110978D01*
X101689441Y-7110972D01*
X101689362Y-7110844D01*
X101671865Y-7085636D01*
X101645275Y-7047330D01*
X101645272Y-7047326D01*
X101645170Y-7047179D01*
X101624985Y-7021898D01*
X101590539Y-6978755D01*
X101590530Y-6978744D01*
X101590409Y-6978593D01*
X101526877Y-6909279D01*
X101523813Y-6900865D01*
X101525295Y-6895655D01*
X101565646Y-6823632D01*
X101830303Y-6351234D01*
X101830306Y-6351230D01*
X101849597Y-6316796D01*
X101856630Y-6311254D01*
X101863499Y-6311414D01*
G37*
%TD.AperFunction*%
%TD*%
M02*
